{
.appVersion = "895";
DisplayStrings = (
O
);
copyright = "Copyright (c) 2011 by vernon adams. All rights reserved.";
customParameters = (
{
name = description;
value = "Copyright (c) 2011 by vernon adams. All rights reserved.";
},
{
name = trademark;
value = "Francois is a trademark of vernon adams.";
},
{
name = panose;
value = (
2,
0,
5,
3,
4,
0,
0,
2,
0,
4
);
},
{
name = openTypeOS2VendorID;
value = newt;
},
{
name = glyphOrder;
value = (
.null,
CR,
space,
E,
F,
G,
H,
I,
J,
K,
L,
M,
N,
O,
P,
Q,
R,
S,
T,
U,
V,
W,
X,
Y,
Z,
one,
two,
three,
four,
five,
six,
seven,
eight,
nine,
zero,
dollar,
ampersand,
a,
b,
c,
d,
e,
f,
g,
h,
i,
j,
k,
l,
m,
n,
o,
p,
q,
r,
s,
t,
u,
v,
w,
x,
y,
z,
bar,
D,
parenright,
parenleft,
A,
B,
C,
exclam,
fi,
fl,
fraction,
slash,
plus,
Eacute,
acute,
macron,
grave,
period,
dieresis,
Edieresis,
dotaccent,
periodcentered,
comma,
semicolon,
colon,
hyphen,
quotedblbase,
quotedblright,
quotedblleft,
quoteleft,
quoteright,
minus,
logicalnot,
brokenbar,
circumflex,
Ecircumflex,
caron,
bracketleft,
bracketright,
backslash,
hungarumlaut,
ring,
degree,
Aring,
aring,
currency,
cent,
yen,
OE,
oe,
plusminus,
bullet,
copyright,
registered,
florin,
ae,
paragraph,
question,
breve,
ogonek,
cedilla,
Ccedilla,
ccedilla,
dagger,
daggerdbl,
sterling,
tilde,
ellipsis,
quotesinglbase,
at,
quotesingle,
quotedbl,
numbersign,
asterisk,
dotlessi,
equal,
braceleft,
braceright,
ntilde,
otilde,
mu,
ordmasculine,
percent,
perthousand,
section,
greater,
less,
guilsinglleft,
guilsinglright,
trademark,
emdash,
endash,
onesuperior,
underscore,
asciicircum,
twosuperior,
threesuperior,
onehalf,
onequarter,
foursuperior,
threequarters,
questiondown,
exclamdown,
oslash,
Oslash,
Thorn,
AE,
Lslash,
lslash,
Euro,
thorn,
divide,
eth,
multiply,
guillemotleft,
guillemotright,
asciitilde,
ordfeminine,
germandbls,
Eth,
Zcaron,
zcaron,
Scaron,
scaron,
Ydieresis,
uni00A0,
Agrave,
Aacute,
Acircumflex,
Atilde,
Adieresis,
Egrave,
Igrave,
Iacute,
Icircumflex,
Idieresis,
Ntilde,
Ograve,
Oacute,

glyphs = (
{
glyphname = E;
lastChange = "2016-07-28 15:52:12 +0000";
layers = (
{
hints = (
{
place = "{142, 300}";
},
{
horizontal = 1;
place = "{0, 240}";
},
{
horizontal = 1;
place = "{672, 258}";
},
{
horizontal = 1;
place = "{1296, 240}";
}
);
layerId = UUID0;
paths = (
{
closed = 1;
nodes = (
"142 1536 LINE",
"922 1536 LINE",
"898 1296 LINE",
"442 1296 LINE",
"442 930 LINE",
"765 930 LINE",
"764 672 LINE",
"442 672 LINE",
"442 240 LINE",
"938 240 LINE",
"914 0 LINE",
"142 0 LINE"
);
}
);
width = 988;
}
);
leftKerningGroup = E;
rightKerningGroup = E;
unicode = 0045;
},
{
glyphname = F;
lastChange = "2016-07-28 15:52:12 +0000";
layers = (
{
hints = (
{
place = "{141, 300}";
},
{
horizontal = 1;
place = "{638, 255}";
},
{
horizontal = 1;
place = "{1295, 241}";
},
{
horizontal = 1;
place = "{-12, 21}";
target = up;
type = BottomGhost;
}
);
layerId = UUID0;
paths = (
{
closed = 1;
nodes = (
"141 1536 LINE",
"921 1536 LINE",
"897 1295 LINE",
"441 1295 LINE",
"441 893 LINE",
"763 893 LINE",
"763 638 LINE",
"441 638 LINE",
"441 12 LINE",
"141 -12 LINE"
);
}
);
width = 940;
}
);
leftKerningGroup = E;
unicode = 0046;
},
{
glyphname = G;
lastChange = "2016-07-28 15:52:12 +0000";
layers = (
{
hints = (
{
place = "{81, 300}";
},
{
place = "{742, 289}";
},
{
horizontal = 1;
place = "{-32, 241}";
},
{
horizontal = 1;
place = "{508, 260}";
},
{
horizontal = 1;
place = "{1332, 236}";
}
);
layerId = UUID0;
paths = (
{
closed = 1;
nodes = (
"739 1015 LINE",
"723 1131 OFFCURVE",
"718 1332 OFFCURVE",
"576 1332 CURVE SMOOTH",
"415 1332 OFFCURVE",
"381 991 OFFCURVE",
"381 758 CURVE SMOOTH",
"381 538 OFFCURVE",
"381 209 OFFCURVE",
"578 209 CURVE SMOOTH",
"685 209 OFFCURVE",
"742 336 OFFCURVE",
"742 508 CURVE",
"590 508 LINE",
"614 768 LINE",
"1031 768 LINE",
"1031 12 LINE",
"916 0 LINE",
"913 12 OFFCURVE",
"895 82 OFFCURVE",
"879 151 CURVE",
"846 285 LINE",
"841 226 OFFCURVE",
"827 173 OFFCURVE",
"803 126 CURVE SMOOTH",
"763 47 OFFCURVE",
"681 -32 OFFCURVE",
"521 -32 CURVE SMOOTH",
"196 -32 OFFCURVE",
"81 354 OFFCURVE",
"81 774 CURVE SMOOTH",
"81 1129 OFFCURVE",
"211 1568 OFFCURVE",
"580 1568 CURVE SMOOTH",
"891 1568 OFFCURVE",
"1025 1311 OFFCURVE",
"1025 1034 CURVE"
);
}
);
width = 1132;
}
);
leftKerningGroup = G;
rightKerningGroup = G;
unicode = 0047;
},
{
glyphname = H;
lastChange = "2016-07-28 15:52:12 +0000";
layers = (
{
hints = (
{
place = "{142, 300}";
},
{
place = "{730, 300}";
},
{
horizontal = 1;
place = "{639, 274}";
},
{
horizontal = 1;
place = "{-12, 21}";
target = up;
type = BottomGhost;
},
{
horizontal = 1;
place = "{1536, -20}";
target = down;
type = TopGhost;
}
);
layerId = UUID0;
paths = (
{
closed = 1;
nodes = (
"730 639 LINE",
"442 639 LINE",
"442 12 LINE",
"142 -12 LINE",
"142 1512 LINE",
"442 1536 LINE",
"442 913 LINE",
"730 913 LINE",
"730 1512 LINE",
"1030 1536 LINE",
"1030 12 LINE",
"730 -12 LINE"
);
}
);
width = 1171;
}
);
leftKerningGroup = E;
rightKerningGroup = H;
unicode = 0048;
},
{
glyphname = I;
lastChange = "2016-07-28 15:52:12 +0000";
layers = (
{
hints = (
{
place = "{142, 300}";
},
{
horizontal = 1;
place = "{-12, 21}";
target = up;
type = BottomGhost;
},
{
horizontal = 1;
place = "{1536, -20}";
target = down;
type = TopGhost;
}
);
layerId = UUID0;
paths = (
{
closed = 1;
nodes = (
"142 1512 LINE",
"442 1536 LINE",
"442 12 LINE",
"142 -12 LINE"
);
}
);
width = 583;
}
);
leftKerningGroup = E;
rightKerningGroup = H;
unicode = 0049;
},
{
glyphname = J;
lastChange = "2016-07-28 15:52:12 +0000";
layers = (
{
hints = (
{
place = "{34, 492}";
},
{
place = "{226, 300}";
},
{
horizontal = 1;
place = "{-28, 219}";
},
{
horizontal = 1;
place = "{1536, -20}";
target = down;
type = TopGhost;
}
);
layerId = UUID0;
paths = (
{
closed = 1;
nodes = (
"34 205 LINE",
"66 194 OFFCURVE",
"91 191 OFFCURVE",
"114 191 CURVE SMOOTH",
"225 191 OFFCURVE",
"226 301 OFFCURVE",
"226 409 CURVE SMOOTH",
"226 1512 LINE",
"526 1536 LINE",
"526 384 LINE SMOOTH",
"526 140 OFFCURVE",
"455 -28 OFFCURVE",
"226 -28 CURVE SMOOTH",
"172 -28 OFFCURVE",
"108 -18 OFFCURVE",
"34 2 CURVE"
);
}
);
width = 660;
}
);
leftKerningGroup = J;
rightKerningGroup = J;
unicode = 004A;
},
{
glyphname = K;
lastChange = "2016-07-28 15:52:12 +0000";
layers = (
{
hints = (
{
place = "{142, 300}";
},
{
horizontal = 1;
place = "{-27, 21}";
target = up;
type = BottomGhost;
},
{
horizontal = 1;
place = "{1536, -20}";
target = down;
type = TopGhost;
}
);
layerId = UUID0;
paths = (
{
closed = 1;
nodes = (
"590 666 LINE",
"442 401 LINE",
"442 0 LINE",
"142 0 LINE",
"142 1512 LINE",
"442 1536 LINE",
"442 864 LINE",
"806 1536 LINE",
"1126 1536 LINE",
"797 902 LINE",
"1131 43 LINE",
"826 -27 LINE"
);
}
);
width = 1150;
}
);
leftKerningGroup = E;
rightKerningGroup = K;
unicode = 004B;
},
{
glyphname = L;
lastChange = "2016-07-28 15:52:12 +0000";
layers = (
{
hints = (
{
place = "{142, 299}";
},
{
horizontal = 1;
place = "{0, 240}";
},
{
horizontal = 1;
place = "{1536, -20}";
target = down;
type = TopGhost;
}
);
layerId = UUID0;
paths = (
{
closed = 1;
nodes = (
"441 1536 LINE",
"441 240 LINE",
"961 240 LINE",
"913 0 LINE",
"142 0 LINE",
"142 1512 LINE"
);
}
);
width = 971;
}
);
leftKerningGroup = E;
rightKerningGroup = L;
unicode = 004C;
},
{
glyphname = M;
lastChange = "2016-07-28 15:52:12 +0000";
layers = (
{
hints = (
{
place = "{142, 248}";
},
{
place = "{1170, 310}";
},
{
horizontal = 1;
place = "{-12, 21}";
target = up;
type = BottomGhost;
},
{
horizontal = 1;
place = "{1534, -20}";
target = down;
type = TopGhost;
}
);
layerId = UUID0;
paths = (
{
closed = 1;
nodes = (
"390 1144 LINE",
"390 12 LINE",
"142 0 LINE",
"142 1522 LINE",
"581 1534 LINE",
"835 584 LINE",
"1079 1500 LINE",
"1480 1524 LINE",
"1480 12 LINE",
"1170 -12 LINE",
"1170 1140 LINE",
"883 0 LINE",
"698 0 LINE"
);
}
);
width = 1621;
}
);
leftKerningGroup = E;
rightKerningGroup = H;
unicode = 004D;
},
{
glyphname = N;
lastChange = "2016-07-28 15:52:12 +0000";
layers = (
{
hints = (
{
place = "{141, 268}";
},
{
place = "{850, 254}";
},
{
horizontal = 1;
place = "{-12, 21}";
target = up;
type = BottomGhost;
},
{
horizontal = 1;
place = "{1536, -20}";
target = down;
type = TopGhost;
}
);
layerId = UUID0;
paths = (
{
closed = 1;
nodes = (
"409 948 LINE",
"409 12 LINE",
"141 0 LINE",
"141 1524 LINE",
"454 1536 LINE",
"850 622 LINE",
"850 1512 LINE",
"1104 1536 LINE",
"1104 12 LINE",
"858 -12 LINE"
);
}
);
width = 1245;
}
);
leftKerningGroup = E;
rightKerningGroup = H;
unicode = 004E;
},
{
glyphname = O;
lastChange = "2016-07-28 16:09:05 +0000";
layers = (
{
hints = (
{
place = "{86, 299}";
},
{
place = "{739, 300}";
},
{
horizontal = 1;
place = "{-32, 255}";
},
{
horizontal = 1;
place = "{1329, 239}";
}
);
layerId = UUID0;
paths = (
{
closed = 1;
nodes = (
"561 -32 LINE SMOOTH",
"168 -32 OFFCURVE",
"86 389 OFFCURVE",
"86 820 CURVE SMOOTH",
"86 1036 OFFCURVE",
"122 1225 OFFCURVE",
"199 1356 CURVE SMOOTH",
"276 1487 OFFCURVE",
"394 1561 OFFCURVE",
"561 1561 CURVE SMOOTH",
"728 1561 OFFCURVE",
"848 1487 OFFCURVE",
"925 1356 CURVE",
"1004 1225 OFFCURVE",
"1039 1036 OFFCURVE",
"1039 820 CURVE SMOOTH",
"1039 389 OFFCURVE",
"955 -32 OFFCURVE",
"561 -32 CURVE SMOOTH"
);
},
{
closed = 1;
nodes = (
"561 223 LINE SMOOTH",
"722 223 OFFCURVE",
"739 452 OFFCURVE",
"739 820 CURVE SMOOTH",
"739 1001 OFFCURVE",
"727 1322 OFFCURVE",
"561 1322 CURVE SMOOTH",
"397 1322 OFFCURVE",
"385 1001 OFFCURVE",
"385 820 CURVE SMOOTH",
"385 452 OFFCURVE",
"401 223 OFFCURVE",
"561 223 CURVE SMOOTH"
);
}
);
width = 1125;
}
);
leftKerningGroup = O;
rightKerningGroup = O;
unicode = 004F;
},
{
glyphname = P;
lastChange = "2016-07-28 15:52:12 +0000";
layers = (
{
hints = (
{
place = "{141, 300}";
},
{
place = "{750, 299}";
},
{
horizontal = 1;
place = "{604, 243}";
},
{
horizontal = 1;
place = "{1296, 240}";
},
{
horizontal = 1;
place = "{-12, 21}";
target = up;
type = BottomGhost;
}
);
layerId = UUID0;
paths = (
{
closed = 1;
nodes = (
"141 1536 LINE",
"333 1536 LINE SMOOTH",
"644 1536 OFFCURVE",
"1049 1552 OFFCURVE",
"1049 1075 CURVE SMOOTH",
"1049 644 OFFCURVE",
"714 604 OFFCURVE",
"441 604 CURVE",
"441 12 LINE",
"141 -12 LINE"
);
},
{
closed = 1;
nodes = (
"494 847 LINE SMOOTH",
"633 847 OFFCURVE",
"750 889 OFFCURVE",
"750 1077 CURVE SMOOTH",
"750 1261 OFFCURVE",
"654 1296 OFFCURVE",
"486 1296 CURVE SMOOTH",
"443 1296 LINE",
"443 847 LINE"
);
}
);
width = 1089;
}
);
leftKerningGroup = E;
unicode = 0050;
},
{
glyphname = Q;
lastChange = "2016-07-28 15:52:12 +0000";
layers = (
{
hints = (
{
place = "{84, 299}";
},
{
place = "{737, 300}";
},
{
horizontal = 1;
place = "{-32, 255}";
},
{
horizontal = 1;
place = "{1330, 238}";
},
{
horizontal = 1;
place = "{-295, 21}";
target = up;
type = BottomGhost;
}
);
layerId = UUID0;
paths = (
{
closed = 1;
nodes = (
"559 -32 LINE",
"166 -32 OFFCURVE",
"84 416 OFFCURVE",
"84 820 CURVE SMOOTH",
"84 1225 OFFCURVE",
"227 1568 OFFCURVE",
"559 1568 CURVE SMOOTH",
"893 1568 OFFCURVE",
"1037 1225 OFFCURVE",
"1037 820 CURVE SMOOTH",
"1037 540 OFFCURVE",
"996 241 OFFCURVE",
"841 84 CURVE",
"863 -37 OFFCURVE",
"967 -52 OFFCURVE",
"1042 -63 CURVE",
"1042 -293 LINE",
"1027 -293 OFFCURVE",
"1015 -295 OFFCURVE",
"1003 -295 CURVE SMOOTH",
"803 -295 OFFCURVE",
"697 -192 OFFCURVE",
"649 -24 CURVE",
"649 -27 OFFCURVE",
"627 -26 OFFCURVE",
"604 -29 CURVE"
);
},
{
closed = 1;
nodes = (
"559 223 LINE SMOOTH",
"732 223 OFFCURVE",
"737 477 OFFCURVE",
"737 820 CURVE SMOOTH",
"737 989 OFFCURVE",
"736 1330 OFFCURVE",
"559 1330 CURVE SMOOTH",
"383 1330 OFFCURVE",
"383 989 OFFCURVE",
"383 820 CURVE SMOOTH",
"383 477 OFFCURVE",
"387 223 OFFCURVE",
"559 223 CURVE SMOOTH"
);
}
);
width = 1121;
}
);
leftKerningGroup = O;
rightKerningGroup = O;
unicode = 0051;
},
{
glyphname = R;
lastChange = "2016-07-28 15:52:12 +0000";
layers = (
{
hints = (
{
place = "{142, 299}";
},
{
place = "{770, 300}";
},
{
horizontal = 1;
place = "{895, 401}";
},
{
horizontal = 1;
place = "{1296, 240}";
},
{
horizontal = 1;
place = "{-27, 21}";
target = up;
type = BottomGhost;
}
);
layerId = UUID0;
paths = (
{
closed = 1;
nodes = (
"142 -12 LINE",
"142 1524 LINE",
"506 1536 LINE",
"843 1536 OFFCURVE",
"1070 1408 OFFCURVE",
"1070 1108 CURVE SMOOTH",
"1070 907 OFFCURVE",
"981 794 OFFCURVE",
"850 719 CURVE",
"850 717 OFFCURVE",
"919 549 OFFCURVE",
"988 384 CURVE SMOOTH",
"1127 53 LINE",
"832 -27 LINE",
"558 673 LINE",
"441 673 LINE",
"441 12 LINE"
);
},
{
closed = 1;
nodes = (
"441 895 LINE",
"543 895 LINE SMOOTH",
"663 895 OFFCURVE",
"770 925 OFFCURVE",
"770 1105 CURVE SMOOTH",
"770 1249 OFFCURVE",
"688 1296 OFFCURVE",
"581 1296 CURVE SMOOTH",
"441 1296 LINE"
);
}
);
width = 1156;
}
);
leftKerningGroup = E;
rightKerningGroup = R;
unicode = 0052;
},
{
glyphname = S;
lastChange = "2016-07-28 15:52:12 +0000";
layers = (
{
hints = (
{
place = "{85, 322}";
},
{
place = "{712, 326}";
},
{
horizontal = 1;
place = "{-32, 255}";
},
{
horizontal = 1;
place = "{1329, 239}";
}
);
layerId = UUID0;
paths = (
{
closed = 1;
nodes = (
"739 1141 LINE",
"691 1242 OFFCURVE",
"666 1329 OFFCURVE",
"546 1329 CURVE SMOOTH",
"452 1329 OFFCURVE",
"407 1254 OFFCURVE",
"407 1169 CURVE SMOOTH",
"407 1100 OFFCURVE",
"455 1045 OFFCURVE",
"501 1018 CURVE SMOOTH",
"749 873 LINE",
"986 739 OFFCURVE",
"1033 573 OFFCURVE",
"1038 463 CURVE",
"1038 166 OFFCURVE",
"825 -32 OFFCURVE",
"548 -32 CURVE SMOOTH",
"291 -32 OFFCURVE",
"123 132 OFFCURVE",
"48 352 CURVE",
"302 471 LINE",
"361 374 OFFCURVE",
"433 223 OFFCURVE",
"576 223 CURVE SMOOTH",
"647 223 OFFCURVE",
"712 296 OFFCURVE",
"712 376 CURVE SMOOTH",
"712 457 OFFCURVE",
"667 520 OFFCURVE",
"610 557 CURVE",
"341 716 LINE",
"193 801 OFFCURVE",
"85 936 OFFCURVE",
"85 1108 CURVE SMOOTH",
"85 1380 OFFCURVE",
"290 1568 OFFCURVE",
"562 1568 CURVE SMOOTH",
"770 1568 OFFCURVE",
"922 1460 OFFCURVE",
"993 1256 CURVE"
);
}
);
width = 1091;
}
);
leftKerningGroup = S;
rightKerningGroup = S;
unicode = 0053;
},
{
glyphname = T;
lastChange = "2016-07-28 15:52:12 +0000";
layers = (
{
hints = (
{
place = "{341, 300}";
},
{
horizontal = 1;
place = "{1296, 240}";
},
{
horizontal = 1;
place = "{-12, 21}";
target = up;
type = BottomGhost;
}
);
layerId = UUID0;
paths = (
{
closed = 1;
nodes = (
"28 1296 LINE",
"52 1536 LINE",
"952 1536 LINE",
"928 1296 LINE",
"641 1296 LINE",
"641 12 LINE",
"341 -12 LINE",
"341 1296 LINE"
);
}
);
width = 977;
}
);
leftKerningGroup = T;
rightKerningGroup = T;
unicode = 0054;
},
{
glyphname = U;
lastChange = "2016-07-28 15:52:12 +0000";
layers = (
{
hints = (
{
place = "{132, 300}";
},
{
place = "{756, 275}";
},
{
horizontal = 1;
place = "{-32, 255}";
},
{
horizontal = 1;
place = "{1536, -20}";
target = down;
type = TopGhost;
}
);
layerId = UUID0;
paths = (
{
closed = 1;
nodes = (
"132 1524 LINE",
"432 1536 LINE",
"432 482 LINE SMOOTH",
"432 360 OFFCURVE",
"436 223 OFFCURVE",
"600 223 CURVE SMOOTH",
"755 223 OFFCURVE",
"756 365 OFFCURVE",
"756 485 CURVE SMOOTH",
"756 1512 LINE",
"1031 1536 LINE",
"1031 541 LINE SMOOTH",
"1031 365 OFFCURVE",
"1036 -32 OFFCURVE",
"559 -32 CURVE SMOOTH",
"263 -32 OFFCURVE",
"132 217 OFFCURVE",
"132 506 CURVE SMOOTH"
);
}
);
width = 1163;
}
);
leftKerningGroup = U;
rightKerningGroup = U;
unicode = 0055;
},
{
glyphname = V;
lastChange = "2016-07-28 15:52:12 +0000";
layers = (
{
hints = (
{
horizontal = 1;
place = "{0, 21}";
target = up;
type = BottomGhost;
},
{
horizontal = 1;
place = "{1536, -20}";
target = down;
type = TopGhost;
}
);
layerId = UUID0;
paths = (
{
closed = 1;
nodes = (
"17 1524 LINE",
"372 1536 LINE",
"576 476 LINE",
"789 1524 LINE",
"1078 1536 LINE",
"708 0 LINE",
"379 0 LINE"
);
}
);
width = 1092;
}
);
unicode = 0056;
},
{
glyphname = W;
lastChange = "2016-07-28 15:52:12 +0000";
layers = (
{
hints = (
{
horizontal = 1;
place = "{0, 21}";
target = up;
type = BottomGhost;
},
{
horizontal = 1;
place = "{1536, -20}";
target = down;
type = TopGhost;
}
);
layerId = UUID0;
paths = (
{
closed = 1;
nodes = (
"614 0 LINE",
"339 0 LINE",
"27 1524 LINE",
"355 1536 LINE",
"517 616 LINE",
"690 1524 LINE",
"935 1536 LINE",
"1097 606 LINE",
"1293 1524 LINE",
"1568 1536 LINE",
"1240 0 LINE",
"943 0 LINE",
"780 938 LINE"
);
}
);
width = 1586;
}
);
leftKerningGroup = W;
rightKerningGroup = W;
unicode = 0057;
},
{
glyphname = X;
lastChange = "2016-07-28 15:52:12 +0000";
layers = (
{
hints = (
{
horizontal = 1;
place = "{0, 21}";
target = up;
type = BottomGhost;
},
{
horizontal = 1;
place = "{1536, -20}";
target = down;
type = TopGhost;
}
);
layerId = UUID0;
paths = (
{
closed = 1;
nodes = (
"502 481 LINE",
"285 0 LINE",
"1 0 LINE",
"382 780 LINE",
"16 1536 LINE",
"375 1536 LINE",
"553 1137 LINE",
"737 1536 LINE",
"1023 1536 LINE",
"677 838 LINE",
"1076 0 LINE",
"719 0 LINE"
);
}
);
width = 1064;
}
);
unicode = 0058;
},
{
glyphname = Y;
lastChange = "2016-07-28 15:52:12 +0000";
layers = (
{
hints = (
{
place = "{367, 303}";
},
{
horizontal = 1;
place = "{-12, 21}";
target = up;
type = BottomGhost;
},
{
horizontal = 1;
place = "{1536, -20}";
target = down;
type = TopGhost;
}
);
layerId = UUID0;
paths = (
{
closed = 1;
nodes = (
"367 608 LINE",
"-3 1536 LINE",
"327 1536 LINE",
"538 896 LINE",
"766 1536 LINE",
"1025 1536 LINE",
"670 643 LINE",
"670 12 LINE",
"367 -12 LINE"
);
}
);
width = 1027;
}
);
leftKerningGroup = Y;
rightKerningGroup = Y;
unicode = 0059;
},
{
glyphname = Z;
lastChange = "2016-07-28 15:52:12 +0000";
layers = (
{
hints = (
{
horizontal = 1;
place = "{0, 240}";
},
{
horizontal = 1;
place = "{1296, 240}";
}
);
layerId = UUID0;
paths = (
{
closed = 1;
nodes = (
"581 1296 LINE",
"98 1296 LINE",
"122 1536 LINE",
"935 1536 LINE",
"935 1337 LINE",
"421 240 LINE",
"949 240 LINE",
"901 0 LINE",
"51 0 LINE",
"51 190 LINE"
);
}
);
width = 1008;
}
);
leftKerningGroup = Z;
rightKerningGroup = Z;
unicode = 005A;
},
{
glyphname = one;
lastChange = "2016-07-28 15:52:12 +0000";
layers = (
{
hints = (
{
place = "{96, 485}";
},
{
place = "{293, 288}";
},
{
horizontal = 1;
place = "{0, 251}";
},
{
horizontal = 1;
place = "{1536, -20}";
target = down;
type = TopGhost;
}
);
layerId = UUID0;
paths = (
{
closed = 1;
nodes = (
"96 251 LINE",
"293 251 LINE",
"293 1132 LINE",
"222 1124 LINE SMOOTH",
"183 1120 OFFCURVE",
"136 1116 OFFCURVE",
"109 1116 CURVE SMOOTH",
"83 1116 LINE",
"83 1331 LINE",
"432 1536 LINE",
"581 1536 LINE",
"581 251 LINE",
"780 251 LINE",
"768 0 LINE",
"96 0 LINE"
);
}
);
width = 820;
}
);
unicode = 0031;
},
{
glyphname = two;
lastChange = "2016-07-28 15:52:12 +0000";
layers = (
{
hints = (
{
place = "{653, 300}";
},
{
horizontal = 1;
place = "{0, 252}";
},
{
horizontal = 1;
place = "{1297, 231}";
}
);
layerId = UUID0;
paths = (
{
closed = 1;
nodes = (
"95 1148 LINE",
"135 1351 OFFCURVE",
"297 1528 OFFCURVE",
"538 1528 CURVE SMOOTH",
"766 1528 OFFCURVE",
"953 1401 OFFCURVE",
"953 1152 CURVE SMOOTH",
"953 826 OFFCURVE",
"646 493 OFFCURVE",
"397 252 CURVE",
"927 252 LINE",
"927 151 OFFCURVE",
"903 99 OFFCURVE",
"903 0 CURVE",
"64 0 LINE",
"64 223 LINE",
"292 519 OFFCURVE",
"653 841 OFFCURVE",
"653 1156 CURVE SMOOTH",
"653 1232 OFFCURVE",
"608 1297 OFFCURVE",
"528 1297 CURVE SMOOTH",
"451 1297 OFFCURVE",
"404 1239 OFFCURVE",
"377 1183 CURVE SMOOTH",
"360 1150 OFFCURVE",
"348 1112 OFFCURVE",
"341 1070 CURVE"
);
}
);
width = 1033;
}
);
unicode = 0032;
},
{
glyphname = three;
lastChange = "2016-07-28 15:52:12 +0000";
layers = (
{
hints = (
{
place = "{633, 311}";
},
{
horizontal = 1;
place = "{-25, 261}";
},
{
horizontal = 1;
place = "{669, 230}";
},
{
horizontal = 1;
place = "{1284, 250}";
}
);
layerId = UUID0;
paths = (
{
closed = 1;
nodes = (
"91 1241 LINE",
"198 1449 OFFCURVE",
"327 1534 OFFCURVE",
"522 1534 CURVE SMOOTH",
"725 1534 OFFCURVE",
"923 1403 OFFCURVE",
"923 1155 CURVE SMOOTH",
"923 1070 OFFCURVE",
"906 902 OFFCURVE",
"687 801 CURVE",
"850 739 OFFCURVE",
"944 630 OFFCURVE",
"944 428 CURVE SMOOTH",
"944 135 OFFCURVE",
"744 -25 OFFCURVE",
"504 -25 CURVE SMOOTH",
"293 -25 OFFCURVE",
"92 84 OFFCURVE",
"36 313 CURVE",
"254 408 LINE",
"291 317 OFFCURVE",
"341 236 OFFCURVE",
"485 236 CURVE SMOOTH",
"588 236 OFFCURVE",
"655 325 OFFCURVE",
"655 424 CURVE SMOOTH",
"655 636 OFFCURVE",
"508 669 OFFCURVE",
"330 669 CURVE",
"330 899 LINE",
"495 899 OFFCURVE",
"633 936 OFFCURVE",
"633 1116 CURVE SMOOTH",
"633 1204 OFFCURVE",
"585 1284 OFFCURVE",
"489 1284 CURVE SMOOTH",
"422 1284 OFFCURVE",
"376 1244 OFFCURVE",
"344 1204 CURVE SMOOTH",
"325 1181 OFFCURVE",
"310 1154 OFFCURVE",
"297 1124 CURVE"
);
}
);
width = 1039;
}
);
unicode = 0033;
},
{
glyphname = four;
lastChange = "2016-07-28 15:52:12 +0000";
layers = (
{
hints = (
{
place = "{568, 288}";
},
{
horizontal = 1;
place = "{384, 230}";
},
{
horizontal = 1;
place = "{-12, 21}";
target = up;
type = BottomGhost;
},
{
horizontal = 1;
place = "{1536, -20}";
target = down;
type = TopGhost;
}
);
layerId = UUID0;
paths = (
{
closed = 1;
nodes = (
"568 384 LINE",
"45 384 LINE",
"45 614 LINE",
"555 1536 LINE",
"856 1536 LINE",
"856 614 LINE",
"1048 614 LINE",
"1024 384 LINE",
"856 384 LINE",
"856 12 LINE",
"568 -12 LINE"
);
},
{
closed = 1;
nodes = (
"568 614 LINE",
"568 1153 LINE",
"283 614 LINE"
);
}
);
width = 1087;
}
);
unicode = 0034;
},
{
glyphname = five;
lastChange = "2016-07-28 15:52:12 +0000";
layers = (
{
hints = (
{
place = "{685, 298}";
},
{
horizontal = 1;
place = "{-25, 264}";
},
{
horizontal = 1;
place = "{749, 230}";
},
{
horizontal = 1;
place = "{1296, 240}";
}
);
layerId = UUID0;
paths = (
{
closed = 1;
nodes = (
"309 434 LINE",
"316 397 OFFCURVE",
"328 365 OFFCURVE",
"345 336 CURVE SMOOTH",
"372 288 OFFCURVE",
"419 239 OFFCURVE",
"495 239 CURVE SMOOTH",
"631 239 OFFCURVE",
"685 336 OFFCURVE",
"685 493 CURVE SMOOTH",
"685 614 OFFCURVE",
"627 749 OFFCURVE",
"503 749 CURVE SMOOTH",
"431 749 OFFCURVE",
"364 702 OFFCURVE",
"315 642 CURVE",
"101 731 LINE",
"167 1536 LINE",
"922 1536 LINE",
"898 1296 LINE",
"417 1296 LINE",
"384 938 LINE",
"402 945 OFFCURVE",
"422 952 OFFCURVE",
"443 958 CURVE SMOOTH",
"479 969 OFFCURVE",
"528 979 OFFCURVE",
"583 979 CURVE SMOOTH",
"585 979 LINE SMOOTH",
"814 979 OFFCURVE",
"983 758 OFFCURVE",
"983 498 CURVE SMOOTH",
"983 194 OFFCURVE",
"789 -25 OFFCURVE",
"522 -25 CURVE SMOOTH",
"318 -25 OFFCURVE",
"129 108 OFFCURVE",
"78 348 CURVE"
);
}
);
width = 1053;
}
);
unicode = 0035;
},
{
glyphname = six;
lastChange = "2016-07-28 15:52:12 +0000";
layers = (
{
hints = (
{
place = "{93, 293}";
},
{
place = "{677, 289}";
},
{
horizontal = 1;
place = "{-27, 257}";
},
{
horizontal = 1;
place = "{692, 242}";
},
{
horizontal = 1;
place = "{1306, 240}";
}
);
layerId = UUID0;
paths = (
{
closed = 1;
nodes = (
"93 774 LINE SMOOTH",
"93 1100 OFFCURVE",
"229 1546 OFFCURVE",
"581 1546 CURVE SMOOTH",
"753 1546 OFFCURVE",
"893 1413 OFFCURVE",
"925 1174 CURVE",
"701 1122 LINE",
"685 1198 OFFCURVE",
"669 1306 OFFCURVE",
"562 1306 CURVE SMOOTH",
"400 1306 OFFCURVE",
"386 1012 OFFCURVE",
"386 856 CURVE",
"449 903 OFFCURVE",
"539 934 OFFCURVE",
"622 934 CURVE SMOOTH",
"834 934 OFFCURVE",
"966 732 OFFCURVE",
"966 512 CURVE SMOOTH",
"966 236 OFFCURVE",
"792 -27 OFFCURVE",
"538 -27 CURVE SMOOTH",
"163 -27 OFFCURVE",
"93 397 OFFCURVE",
"93 774 CURVE SMOOTH"
);
},
{
closed = 1;
nodes = (
"386 608 LINE SMOOTH",
"386 482 OFFCURVE",
"376 230 OFFCURVE",
"525 230 CURVE SMOOTH",
"648 230 OFFCURVE",
"677 377 OFFCURVE",
"677 477 CURVE SMOOTH",
"677 580 OFFCURVE",
"638 692 OFFCURVE",
"521 692 CURVE SMOOTH",
"485 692 OFFCURVE",
"451 681 OFFCURVE",
"427 670 CURVE",
"388 649 LINE",
"387 644 OFFCURVE",
"387 638 OFFCURVE",
"387 633 CURVE SMOOTH",
"386 624 OFFCURVE",
"386 615 OFFCURVE",
"386 608 CURVE SMOOTH"
);
}
);
width = 1039;
}
);
unicode = 0036;
},
{
glyphname = seven;
lastChange = "2016-07-28 15:52:12 +0000";
layers = (
{
hints = (
{
horizontal = 1;
place = "{1288, 248}";
},
{
horizontal = 1;
place = "{0, 21}";
target = up;
type = BottomGhost;
}
);
layerId = UUID0;
paths = (
{
closed = 1;
nodes = (
"161 0 LINE",
"196 404 OFFCURVE",
"377 827 OFFCURVE",
"569 1288 CURVE",
"38 1288 LINE",
"62 1536 LINE",
"890 1536 LINE",
"890 1323 LINE",
"658 864 OFFCURVE",
"515 383 OFFCURVE",
"515 0 CURVE"
);
}
);
width = 923;
}
);
unicode = 0037;
},
{
glyphname = eight;
lastChange = "2016-07-28 15:52:12 +0000";
layers = (
{
hints = (
{
place = "{81, 288}";
},
{
place = "{126, 280}";
},
{
place = "{731, 246}";
},
{
place = "{731, 301}";
},
{
horizontal = 1;
place = "{-27, 225}";
},
{
horizontal = 1;
place = "{1298, 248}";
}
);
layerId = UUID0;
paths = (
{
closed = 1;
nodes = (
"81 371 LINE SMOOTH",
"81 563 OFFCURVE",
"191 696 OFFCURVE",
"337 778 CURVE",
"201 858 OFFCURVE",
"126 967 OFFCURVE",
"126 1122 CURVE SMOOTH",
"126 1379 OFFCURVE",
"322 1546 OFFCURVE",
"567 1546 CURVE SMOOTH",
"778 1546 OFFCURVE",
"977 1413 OFFCURVE",
"977 1178 CURVE SMOOTH",
"977 1032 OFFCURVE",
"877 904 OFFCURVE",
"757 832 CURVE",
"904 741 OFFCURVE",
"1032 628 OFFCURVE",
"1032 440 CURVE SMOOTH",
"1032 137 OFFCURVE",
"799 -27 OFFCURVE",
"541 -27 CURVE SMOOTH",
"321 -27 OFFCURVE",
"81 103 OFFCURVE",
"81 371 CURVE SMOOTH"
);
},
{
closed = 1;
nodes = (
"369 398 LINE SMOOTH",
"369 257 OFFCURVE",
"448 198 OFFCURVE",
"552 198 CURVE SMOOTH",
"648 198 OFFCURVE",
"744 245 OFFCURVE",
"744 373 CURVE SMOOTH",
"744 469 OFFCURVE",
"686 544 OFFCURVE",
"629 593 CURVE SMOOTH",
"595 622 OFFCURVE",
"557 646 OFFCURVE",
"514 667 CURVE",
"487 646 OFFCURVE",
"462 621 OFFCURVE",
"441 594 CURVE SMOOTH",
"405 547 OFFCURVE",
"369 481 OFFCURVE",
"369 398 CURVE SMOOTH"
);
},
{
closed = 1;
nodes = (
"406 1165 LINE SMOOTH",
"406 1050 OFFCURVE",
"497 981 OFFCURVE",
"566 939 CURVE",
"597 958 OFFCURVE",
"624 978 OFFCURVE",
"648 1001 CURVE SMOOTH",
"689 1040 OFFCURVE",
"731 1094 OFFCURVE",
"731 1155 CURVE SMOOTH",
"731 1239 OFFCURVE",
"660 1298 OFFCURVE",
"563 1298 CURVE SMOOTH",
"478 1298 OFFCURVE",
"406 1242 OFFCURVE",
"406 1165 CURVE SMOOTH"
);
}
);
width = 1107;
}
);
unicode = 0038;
},
{
glyphname = nine;
lastChange = "2016-07-28 15:52:12 +0000";
layers = (
{
hints = (
{
place = "{73, 289}";
},
{
place = "{653, 293}";
},
{
horizontal = 1;
place = "{-27, 240}";
},
{
horizontal = 1;
place = "{585, 242}";
},
{
horizontal = 1;
place = "{1289, 257}";
}
);
layerId = UUID0;
paths = (
{
closed = 1;
nodes = (
"946 745 LINE SMOOTH",
"946 419 OFFCURVE",
"810 -27 OFFCURVE",
"458 -27 CURVE SMOOTH",
"286 -27 OFFCURVE",
"146 106 OFFCURVE",
"114 345 CURVE",
"338 397 LINE",
"354 321 OFFCURVE",
"370 213 OFFCURVE",
"477 213 CURVE SMOOTH",
"642 213 OFFCURVE",
"649 507 OFFCURVE",
"653 663 CURVE",
"590 616 OFFCURVE",
"500 585 OFFCURVE",
"417 585 CURVE SMOOTH",
"205 585 OFFCURVE",
"73 787 OFFCURVE",
"73 1007 CURVE SMOOTH",
"73 1283 OFFCURVE",
"247 1546 OFFCURVE",
"501 1546 CURVE SMOOTH",
"876 1546 OFFCURVE",
"946 1122 OFFCURVE",
"946 745 CURVE SMOOTH"
);
},
{
closed = 1;
nodes = (
"653 911 LINE SMOOTH",
"653 1037 OFFCURVE",
"663 1289 OFFCURVE",
"514 1289 CURVE SMOOTH",
"391 1289 OFFCURVE",
"362 1142 OFFCURVE",
"362 1042 CURVE SMOOTH",
"362 939 OFFCURVE",
"401 827 OFFCURVE",
"518 827 CURVE SMOOTH",
"554 827 OFFCURVE",
"587 837 OFFCURVE",
"611 848 CURVE SMOOTH",
"625 855 OFFCURVE",
"638 862 OFFCURVE",
"651 870 CURVE",
"651 875 OFFCURVE",
"651 881 OFFCURVE",
"652 886 CURVE",
"652 895 OFFCURVE",
"653 904 OFFCURVE",
"653 911 CURVE SMOOTH"
);
}
);
width = 1039;
}
);
unicode = 0039;
},
{
glyphname = zero;
lastChange = "2016-07-28 15:52:12 +0000";
layers = (
{
hints = (
{
place = "{97, 289}";
},
{
place = "{754, 288}";
},
{
horizontal = 1;
place = "{-27, 255}";
},
{
horizontal = 1;
place = "{1308, 238}";
}
);
layerId = UUID0;
paths = (
{
closed = 1;
nodes = (
"568 -27 LINE SMOOTH",
"166 -27 OFFCURVE",
"97 422 OFFCURVE",
"97 786 CURVE SMOOTH",
"97 1118 OFFCURVE",
"170 1546 OFFCURVE",
"568 1546 CURVE SMOOTH",
"965 1546 OFFCURVE",
"1042 1118 OFFCURVE",
"1042 786 CURVE",
"1038 422 OFFCURVE",
"970 -27 OFFCURVE",
"568 -27 CURVE SMOOTH"
);
},
{
closed = 1;
nodes = (
"568 228 LINE SMOOTH",
"680 228 OFFCURVE",
"754 306 OFFCURVE",
"754 786 CURVE SMOOTH",
"754 1089 OFFCURVE",
"741 1308 OFFCURVE",
"568 1308 CURVE SMOOTH",
"391 1308 OFFCURVE",
"386 1089 OFFCURVE",
"386 786 CURVE SMOOTH",
"386 306 OFFCURVE",
"456 228 OFFCURVE",
"568 228 CURVE SMOOTH"
);
}
);
width = 1138;
}
);
leftKerningGroup = zero;
rightKerningGroup = zero;
unicode = 0030;
},
{
glyphname = dollar;
lastChange = "2016-07-28 15:52:12 +0000";
layers = (
{
hints = (
{
place = "{85, 292}";
},
{
place = "{458, 144}";
},
{
place = "{682, 306}";
},
{
horizontal = 1;
place = "{-96, 21}";
target = up;
type = BottomGhost;
},
{
horizontal = 1;
place = "{1632, -20}";
target = down;
type = TopGhost;
}
);
layerId = UUID0;
paths = (
{
closed = 1;
nodes = (
"458 29 LINE",
"250 53 OFFCURVE",
"112 210 OFFCURVE",
"48 410 CURVE",
"272 529 LINE",
"317 455 OFFCURVE",
"371 347 OFFCURVE",
"458 302 CURVE",
"458 657 LINE",
"311 744 LINE SMOOTH",
"178 824 OFFCURVE",
"85 924 OFFCURVE",
"85 1076 CURVE SMOOTH",
"85 1305 OFFCURVE",
"242 1469 OFFCURVE",
"458 1501 CURVE",
"458 1632 LINE",
"602 1632 LINE",
"602 1501 LINE",
"765 1478 OFFCURVE",
"884 1373 OFFCURVE",
"943 1194 CURVE",
"709 1079 LINE",
"677 1149 OFFCURVE",
"652 1213 OFFCURVE",
"602 1245 CURVE",
"602 899 LINE",
"719 831 LINE SMOOTH",
"938 703 OFFCURVE",
"983 574 OFFCURVE",
"988 481 CURVE",
"988 237 OFFCURVE",
"825 67 OFFCURVE",
"602 32 CURVE",
"602 -96 LINE",
"458 -96 LINE"
);
},
{
closed = 1;
nodes = (
"377 1107 LINE SMOOTH",
"377 1052 OFFCURVE",
"417 1011 OFFCURVE",
"458 984 CURVE",
"458 1255 LINE",
"402 1231 OFFCURVE",
"377 1172 OFFCURVE",
"377 1107 CURVE SMOOTH"
);
},
{
closed = 1;
nodes = (
"682 434 LINE SMOOTH",
"682 494 OFFCURVE",
"647 538 OFFCURVE",
"602 571 CURVE",
"602 296 LINE",
"649 321 OFFCURVE",
"682 375 OFFCURVE",
"682 434 CURVE SMOOTH"
);
}
);
width = 1040;
}
);
unicode = 0024;
},
{
glyphname = ampersand;
lastChange = "2016-07-28 15:52:12 +0000";
layers = (
{
hints = (
{
place = "{39, 275}";
},
{
place = "{193, 261}";
},
{
place = "{683, 245}";
},
{
horizontal = 1;
place = "{-28, 264}";
},
{
horizontal = 1;
place = "{1346, 200}";
}
);
layerId = UUID0;
paths = (
{
closed = 1;
nodes = (
"39 375 LINE SMOOTH",
"39 581 OFFCURVE",
"195 724 OFFCURVE",
"332 815 CURVE",
"306 852 OFFCURVE",
"283 891 OFFCURVE",
"262 932 CURVE SMOOTH",
"227 1004 OFFCURVE",
"193 1097 OFFCURVE",
"193 1196 CURVE SMOOTH",
"193 1413 OFFCURVE",
"361 1546 OFFCURVE",
"569 1546 CURVE SMOOTH",
"768 1546 OFFCURVE",
"928 1430 OFFCURVE",
"928 1214 CURVE SMOOTH",
"928 1046 OFFCURVE",
"783 902 OFFCURVE",
"663 819 CURVE",
"850 531 LINE",
"863 561 OFFCURVE",
"876 592 OFFCURVE",
"888 625 CURVE SMOOTH",
"909 681 OFFCURVE",
"933 754 OFFCURVE",
"948 825 CURVE",
"1175 754 LINE",
"1151 646 OFFCURVE",
"1108 546 OFFCURVE",
"1071 473 CURVE SMOOTH",
"1049 430 OFFCURVE",
"1026 390 OFFCURVE",
"1003 353 CURVE",
"1063 293 OFFCURVE",
"1127 256 OFFCURVE",
"1227 244 CURVE",
"1227 -14 LINE",
"992 -14 OFFCURVE",
"947 46 OFFCURVE",
"840 153 CURVE",
"734 58 OFFCURVE",
"596 -28 OFFCURVE",
"409 -28 CURVE SMOOTH",
"205 -28 OFFCURVE",
"39 140 OFFCURVE",
"39 375 CURVE SMOOTH"
);
},
{
closed = 1;
nodes = (
"443 646 LINE",
"359 591 OFFCURVE",
"314 494 OFFCURVE",
"314 411 CURVE SMOOTH",
"314 317 OFFCURVE",
"371 236 OFFCURVE",
"495 236 CURVE SMOOTH",
"550 236 OFFCURVE",
"601 253 OFFCURVE",
"638 272 CURVE SMOOTH",
"660 283 OFFCURVE",
"680 295 OFFCURVE",
"699 309 CURVE",
"579 464 OFFCURVE",
"517 549 OFFCURVE",
"482 594 CURVE SMOOTH"
);
},
{
closed = 1;
nodes = (
"555 971 LINE",
"555 976 OFFCURVE",
"683 1122 OFFCURVE",
"683 1227 CURVE SMOOTH",
"683 1305 OFFCURVE",
"621 1346 OFFCURVE",
"565 1346 CURVE SMOOTH",
"512 1346 OFFCURVE",
"454 1294 OFFCURVE",
"454 1235 CURVE SMOOTH",
"454 1161 OFFCURVE",
"483 1113 OFFCURVE",
"555 971 CURVE"
);
}
);
width = 1275;
}
);
unicode = 0026;
},
{
glyphname = a;
lastChange = "2016-07-28 15:52:12 +0000";
layers = (
{
hints = (
{
place = "{56, 282}";
},
{
place = "{563, 288}";
},
{
horizontal = 1;
place = "{-27, 206}";
},
{
horizontal = 1;
place = "{568, 172}";
},
{
horizontal = 1;
place = "{956, 211}";
}
);
layerId = UUID0;
paths = (
{
closed = 1;
nodes = (
"56 327 LINE SMOOTH",
"56 653 OFFCURVE",
"362 728 OFFCURVE",
"563 740 CURVE",
"563 846 OFFCURVE",
"564 956 OFFCURVE",
"480 956 CURVE SMOOTH",
"410 956 OFFCURVE",
"384 888 OFFCURVE",
"376 826 CURVE",
"96 875 LINE",
"125 1104 OFFCURVE",
"313 1167 OFFCURVE",
"480 1167 CURVE SMOOTH",
"740 1167 OFFCURVE",
"851 1010 OFFCURVE",
"851 813 CURVE SMOOTH",
"851 217 LINE SMOOTH",
"851 172 OFFCURVE",
"858 121 OFFCURVE",
"866 81 CURVE SMOOTH",
"871 58 OFFCURVE",
"876 35 OFFCURVE",
"882 12 CURVE",
"602 -12 LINE",
"570 129 LINE",
"525 47 OFFCURVE",
"416 -27 OFFCURVE",
"317 -27 CURVE SMOOTH",
"160 -27 OFFCURVE",
"56 123 OFFCURVE",
"56 327 CURVE SMOOTH"
);
},
{
closed = 1;
nodes = (
"338 331 LINE SMOOTH",
"338 240 OFFCURVE",
"373 179 OFFCURVE",
"452 179 CURVE SMOOTH",
"479 179 OFFCURVE",
"506 196 OFFCURVE",
"527 213 CURVE SMOOTH",
"539 223 OFFCURVE",
"551 234 OFFCURVE",
"563 247 CURVE",
"563 568 LINE",
"435 568 OFFCURVE",
"338 508 OFFCURVE",
"338 331 CURVE SMOOTH"
);
}
);
width = 968;
}
);
leftKerningGroup = a;
rightKerningGroup = a;
unicode = 0061;
},
{
glyphname = b;
lastChange = "2016-07-28 15:52:12 +0000";
layers = (
{
hints = (
{
place = "{123, 288}";
},
{
place = "{701, 288}";
},
{
horizontal = 1;
place = "{-27, 206}";
},
{
horizontal = 1;
place = "{922, 245}";
},
{
horizontal = 1;
place = "{1536, -20}";
target = down;
type = TopGhost;
}
);
layerId = UUID0;
paths = (
{
closed = 1;
nodes = (
"123 12 LINE",
"123 1500 LINE",
"411 1536 LINE",
"411 1005 LINE",
"499 1101 OFFCURVE",
"610 1167 OFFCURVE",
"709 1167 CURVE SMOOTH",
"861 1167 OFFCURVE",
"989 1013 OFFCURVE",
"989 576 CURVE SMOOTH",
"989 160 OFFCURVE",
"869 -27 OFFCURVE",
"658 -27 CURVE SMOOTH",
"552 -27 OFFCURVE",
"490 15 OFFCURVE",
"455 58 CURVE SMOOTH",
"434 83 OFFCURVE",
"420 112 OFFCURVE",
"411 144 CURVE",
"341 -12 LINE"
);
},
{
closed = 1;
nodes = (
"411 480 LINE SMOOTH",
"411 240 OFFCURVE",
"482 179 OFFCURVE",
"551 179 CURVE SMOOTH",
"692 179 OFFCURVE",
"701 363 OFFCURVE",
"701 576 CURVE SMOOTH",
"701 770 OFFCURVE",
"696 922 OFFCURVE",
"601 922 CURVE SMOOTH",
"566 922 OFFCURVE",
"519 902 OFFCURVE",
"480 882 CURVE SMOOTH",
"457 870 OFFCURVE",
"434 857 OFFCURVE",
"411 843 CURVE"
);
}
);
width = 1066;
}
);
rightKerningGroup = b;
unicode = 0062;
},
{
glyphname = c;
lastChange = "2016-07-28 15:52:12 +0000";
layers = (
{
hints = (
{
place = "{68, 289}";
},
{
horizontal = 1;
place = "{-27, 243}";
},
{
horizontal = 1;
place = "{748, 419}";
},
{
horizontal = 1;
place = "{939, 228}";
}
);
layerId = UUID0;
paths = (
{
closed = 1;
nodes = (
"847 405 LINE",
"815 152 OFFCURVE",
"739 -27 OFFCURVE",
"480 -27 CURVE SMOOTH",
"205 -27 OFFCURVE",
"68 261 OFFCURVE",
"68 566 CURVE SMOOTH",
"68 861 OFFCURVE",
"195 1167 OFFCURVE",
"486 1167 CURVE SMOOTH",
"698 1167 OFFCURVE",
"846 997 OFFCURVE",
"854 754 CURVE",
"581 742 LINE",
"573 808 OFFCURVE",
"565 939 OFFCURVE",
"483 939 CURVE SMOOTH",
"356 939 OFFCURVE",
"357 672 OFFCURVE",
"357 576 CURVE SMOOTH",
"357 480 OFFCURVE",
"357 216 OFFCURVE",
"492 216 CURVE SMOOTH",
"548 216 OFFCURVE",
"576 271 OFFCURVE",
"592 324 CURVE SMOOTH",
"601 356 OFFCURVE",
"606 392 OFFCURVE",
"607 432 CURVE"
);
}
);
width = 913;
}
);
leftKerningGroup = c;
rightKerningGroup = c;
unicode = 0063;
},
{
glyphname = d;
lastChange = "2016-07-28 15:52:12 +0000";
layers = (
{
hints = (
{
place = "{78, 288}";
},
{
place = "{656, 288}";
},
{
horizontal = 1;
place = "{-27, 206}";
},
{
horizontal = 1;
place = "{956, 211}";
},
{
horizontal = 1;
place = "{1536, -20}";
target = down;
type = TopGhost;
}
);
layerId = UUID0;
paths = (
{
closed = 1;
nodes = (
"726 -12 LINE",
"656 144 LINE",
"647 112 OFFCURVE",
"633 83 OFFCURVE",
"612 58 CURVE SMOOTH",
"577 15 OFFCURVE",
"515 -27 OFFCURVE",
"409 -27 CURVE SMOOTH",
"198 -27 OFFCURVE",
"78 160 OFFCURVE",
"78 576 CURVE SMOOTH",
"78 1001 OFFCURVE",
"168 1167 OFFCURVE",
"395 1167 CURVE SMOOTH",
"459 1167 OFFCURVE",
"527 1126 OFFCURVE",
"575 1083 CURVE SMOOTH",
"604 1058 OFFCURVE",
"631 1031 OFFCURVE",
"656 1000 CURVE",
"656 1500 LINE",
"944 1536 LINE",
"944 12 LINE"
);
},
{
closed = 1;
nodes = (
"656 864 LINE",
"642 881 OFFCURVE",
"627 897 OFFCURVE",
"612 910 CURVE SMOOTH",
"585 933 OFFCURVE",
"551 956 OFFCURVE",
"516 956 CURVE SMOOTH",
"375 956 OFFCURVE",
"366 788 OFFCURVE",
"366 576 CURVE SMOOTH",
"366 363 OFFCURVE",
"375 179 OFFCURVE",
"516 179 CURVE SMOOTH",
"585 179 OFFCURVE",
"656 240 OFFCURVE",
"656 480 CURVE SMOOTH"
);
}
);
width = 1067;
}
);
leftKerningGroup = d;
unicode = 0064;
},
{
glyphname = e;
lastChange = "2016-07-28 15:52:12 +0000";
layers = (
{
hints = (
{
place = "{70, 287}";
},
{
place = "{632, 283}";
},
{
horizontal = 1;
place = "{-27, 212}";
},
{
horizontal = 1;
place = "{536, 166}";
},
{
horizontal = 1;
place = "{969, 198}";
}
);
layerId = UUID0;
paths = (
{
closed = 1;
nodes = (
"357 536 LINE",
"357 391 OFFCURVE",
"392 185 OFFCURVE",
"497 185 CURVE SMOOTH",
"587 185 OFFCURVE",
"649 357 OFFCURVE",
"657 373 CURVE",
"875 290 LINE",
"822 104 OFFCURVE",
"702 -27 OFFCURVE",
"492 -27 CURVE SMOOTH",
"211 -27 OFFCURVE",
"70 220 OFFCURVE",
"70 570 CURVE SMOOTH",
"70 923 OFFCURVE",
"214 1167 OFFCURVE",
"502 1167 CURVE SMOOTH",
"776 1167 OFFCURVE",
"915 923 OFFCURVE",
"915 570 CURVE",
"911 556 LINE SMOOTH",
"908 548 OFFCURVE",
"907 540 OFFCURVE",
"907 536 CURVE"
);
},
{
closed = 1;
nodes = (
"632 702 LINE",
"632 854 OFFCURVE",
"595 969 OFFCURVE",
"497 969 CURVE SMOOTH",
"427 969 OFFCURVE",
"357 854 OFFCURVE",
"357 702 CURVE"
);
}
);
width = 965;
}
);
leftKerningGroup = c;
rightKerningGroup = e;
unicode = 0065;
},
{
glyphname = f;
lastChange = "2016-07-28 15:52:12 +0000";
layers = (
{
hints = (
{
place = "{176, 288}";
},
{
place = "{176, 485}";
},
{
horizontal = 1;
place = "{936, 216}";
},
{
horizontal = 1;
place = "{1344, 202}";
},
{
horizontal = 1;
place = "{-12, 21}";
target = up;
type = BottomGhost;
}
);
layerId = UUID0;
paths = (
{
closed = 1;
nodes = (
"176 936 LINE",
"34 936 LINE",
"46 1152 LINE",
"176 1152 LINE",
"176 1174 LINE SMOOTH",
"176 1360 OFFCURVE",
"184 1546 OFFCURVE",
"462 1546 CURVE SMOOTH",
"533 1546 OFFCURVE",
"581 1538 OFFCURVE",
"612 1531 CURVE SMOOTH",
"630 1526 OFFCURVE",
"645 1521 OFFCURVE",
"657 1516 CURVE",
"657 1344 LINE",
"594 1344 LINE SMOOTH",
"474 1344 OFFCURVE",
"464 1257 OFFCURVE",
"464 1173 CURVE SMOOTH",
"464 1152 LINE",
"667 1152 LINE",
"655 936 LINE",
"464 936 LINE",
"464 12 LINE",
"176 -12 LINE"
);
}
);
width = 690;
}
);
leftKerningGroup = f;
rightKerningGroup = f;
unicode = 0066;
},
{
glyphname = g;
lastChange = "2016-07-28 15:52:12 +0000";
layers = (
{
hints = (
{
place = "{44, 262}";
},
{
place = "{74, 296}";
},
{
place = "{107, 288}";
},
{
place = "{658, 305}";
},
{
place = "{773, 280}";
},
{
place = "{658, 443}";
},
{
horizontal = 1;
place = "{-358, 213}";
},
{
horizontal = 1;
place = "{80, 211}";
},
{
horizontal = 1;
place = "{453, 175}";
},
{
horizontal = 1;
place = "{993, 174}";
},
{
horizontal = 1;
place = "{993, 222}";
}
);
layerId = UUID0;
paths = (
{
closed = 1;
nodes = (
"44 -123 LINE SMOOTH",
"44 -46 OFFCURVE",
"95 11 OFFCURVE",
"145 48 CURVE SMOOTH",
"174 70 OFFCURVE",
"208 88 OFFCURVE",
"246 103 CURVE",
"214 112 OFFCURVE",
"185 123 OFFCURVE",
"160 137 CURVE SMOOTH",
"117 161 OFFCURVE",
"74 200 OFFCURVE",
"74 256 CURVE SMOOTH",
"74 332 OFFCURVE",
"129 396 OFFCURVE",
"182 441 CURVE SMOOTH",
"214 468 OFFCURVE",
"250 491 OFFCURVE",
"291 511 CURVE",
"256 532 OFFCURVE",
"226 557 OFFCURVE",
"199 586 CURVE SMOOTH",
"154 637 OFFCURVE",
"107 711 OFFCURVE",
"107 815 CURVE SMOOTH",
"107 1045 OFFCURVE",
"326 1167 OFFCURVE",
"530 1167 CURVE SMOOTH",
"678 1167 OFFCURVE",
"766 1118 OFFCURVE",
"822 1081 CURVE",
"862 1118 OFFCURVE",
"964 1215 OFFCURVE",
"1070 1215 CURVE SMOOTH",
"1077 1215 OFFCURVE",
"1083 1214 OFFCURVE",
"1090 1213 CURVE SMOOTH",
"1101 1211 LINE",
"1101 969 LINE",
"1050 988 LINE SMOOTH",
"1023 999 OFFCURVE",
"991 1008 OFFCURVE",
"975 1008 CURVE SMOOTH",
"960 1008 OFFCURVE",
"948 1003 OFFCURVE",
"937 999 CURVE SMOOTH",
"930 996 OFFCURVE",
"924 994 OFFCURVE",
"919 991 CURVE",
"927 971 OFFCURVE",
"934 951 OFFCURVE",
"941 931 CURVE SMOOTH",
"952 896 OFFCURVE",
"963 855 OFFCURVE",
"963 820 CURVE SMOOTH",
"963 736 OFFCURVE",
"929 645 OFFCURVE",
"862 573 CURVE SMOOTH",
"829 538 OFFCURVE",
"787 509 OFFCURVE",
"737 486 CURVE SMOOTH",
"688 464 OFFCURVE",
"630 457 OFFCURVE",
"565 465 CURVE",
"513 465 OFFCURVE",
"473 469 OFFCURVE",
"445 469 CURVE",
"417 461 OFFCURVE",
"397 452 OFFCURVE",
"386 442 CURVE SMOOTH",
"375 433 OFFCURVE",
"370 410 OFFCURVE",
"370 374 CURVE SMOOTH",
"370 335 OFFCURVE",
"402 307 OFFCURVE",
"442 302 CURVE",
"714 281 LINE SMOOTH",
"818 273 OFFCURVE",
"902 251 OFFCURVE",
"961 198 CURVE SMOOTH",
"1021 145 OFFCURVE",
"1053 72 OFFCURVE",
"1053 -20 CURVE SMOOTH",
"1053 -282 OFFCURVE",
"742 -358 OFFCURVE",
"526 -358 CURVE SMOOTH",
"214 -358 OFFCURVE",
"44 -261 OFFCURVE",
"44 -123 CURVE SMOOTH"
);
},
{
closed = 1;
nodes = (
"306 -36 LINE SMOOTH",
"306 -103 OFFCURVE",
"374 -145 OFFCURVE",
"561 -145 CURVE SMOOTH",
"698 -145 OFFCURVE",
"773 -97 OFFCURVE",
"773 -17 CURVE SMOOTH",
"773 71 OFFCURVE",
"625 80 OFFCURVE",
"565 80 CURVE SMOOTH",
"397 80 LINE",
"353 66 OFFCURVE",
"306 32 OFFCURVE",
"306 -36 CURVE SMOOTH"
);
},
{
closed = 1;
nodes = (
"395 826 LINE SMOOTH",
"395 738 OFFCURVE",
"415 628 OFFCURVE",
"530 628 CURVE SMOOTH",
"609 628 OFFCURVE",
"658 696 OFFCURVE",
"658 820 CURVE SMOOTH",
"658 939 OFFCURVE",
"597 993 OFFCURVE",
"528 993 CURVE SMOOTH",
"436 993 OFFCURVE",
"395 902 OFFCURVE",
"395 826 CURVE SMOOTH"
);
}
);
width = 1109;
}
);
leftKerningGroup = g;
rightKerningGroup = g;
unicode = 0067;
},
{
glyphname = h;
lastChange = "2016-07-28 15:52:12 +0000";
layers = (
{
hints = (
{
place = "{124, 288}";
},
{
place = "{700, 288}";
},
{
horizontal = 1;
place = "{922, 245}";
},
{
horizontal = 1;
place = "{-12, 21}";
target = up;
type = BottomGhost;
},
{
horizontal = 1;
place = "{1536, -20}";
target = down;
type = TopGhost;
}
);
layerId = UUID0;
paths = (
{
closed = 1;
nodes = (
"700 773 LINE SMOOTH",
"700 878 OFFCURVE",
"657 922 OFFCURVE",
"600 922 CURVE SMOOTH",
"547 922 OFFCURVE",
"492 891 OFFCURVE",
"412 843 CURVE",
"412 12 LINE",
"124 -12 LINE",
"124 1500 LINE",
"412 1536 LINE",
"412 1005 LINE",
"532 1117 OFFCURVE",
"643 1167 OFFCURVE",
"742 1167 CURVE SMOOTH",
"885 1167 OFFCURVE",
"988 1055 OFFCURVE",
"988 876 CURVE SMOOTH",
"988 12 LINE",
"700 -12 LINE"
);
}
);
width = 1104;
}
);
rightKerningGroup = h;
unicode = 0068;
},
{
glyphname = i;
lastChange = "2016-07-28 15:52:12 +0000";
layers = (
{
hints = (
{
place = "{124, 288}";
},
{
horizontal = 1;
place = "{1306, 293}";
},
{
horizontal = 1;
place = "{1600, -20}";
target = down;
type = TopGhost;
},
{
horizontal = 1;
place = "{-12, 21}";
target = up;
type = BottomGhost;
}
);
layerId = UUID0;
paths = (
{
closed = 1;
nodes = (
"124 1128 LINE",
"412 1152 LINE",
"412 12 LINE",
"124 -12 LINE"
);
},
{
closed = 1;
nodes = (
"412 1600 LINE",
"412 1312 LINE",
"124 1300 LINE",
"124 1598 LINE"
);
}
);
width = 536;
}
);
unicode = 0069;
},
{
glyphname = j;
lastChange = "2016-07-28 15:52:12 +0000";
layers = (
{
hints = (
{
place = "{-35, 447}";
},
{
place = "{124, 288}";
},
{
horizontal = 1;
place = "{-288, 192}";
},
{
horizontal = 1;
place = "{1306, 293}";
},
{
horizontal = 1;
place = "{1600, -20}";
target = down;
type = TopGhost;
}
);
layerId = UUID0;
paths = (
{
closed = 1;
nodes = (
"-35 -96 LINE",
"114 -96 OFFCURVE",
"124 -57 OFFCURVE",
"124 54 CURVE SMOOTH",
"124 1128 LINE",
"412 1152 LINE",
"412 54 LINE SMOOTH",
"412 -163 OFFCURVE",
"412 -288 OFFCURVE",
"157 -288 CURVE SMOOTH",
"104 -288 OFFCURVE",
"41 -282 OFFCURVE",
"-35 -269 CURVE"
);
},
{
closed = 1;
nodes = (
"412 1600 LINE",
"412 1312 LINE",
"124 1300 LINE",
"124 1598 LINE"
);
}
);
width = 536;
}
);
unicode = 006A;
},
{
glyphname = k;
lastChange = "2016-07-28 15:52:12 +0000";
layers = (
{
hints = (
{
place = "{125, 288}";
},
{
horizontal = 1;
place = "{-27, 21}";
target = up;
type = BottomGhost;
},
{
horizontal = 1;
place = "{1536, -20}";
target = down;
type = TopGhost;
}
);
layerId = UUID0;
paths = (
{
closed = 1;
nodes = (
"413 421 LINE",
"413 0 LINE",
"125 0 LINE",
"125 1500 LINE",
"413 1536 LINE",
"413 775 LINE",
"706 1152 LINE",
"1017 1152 LINE",
"693 738 LINE",
"994 60 LINE",
"740 -27 LINE",
"507 546 LINE"
);
}
);
width = 1021;
}
);
rightKerningGroup = k;
unicode = 006B;
},
{
glyphname = l;
lastChange = "2016-07-28 15:52:12 +0000";
layers = (
{
hints = (
{
place = "{124, 288}";
},
{
horizontal = 1;
place = "{-12, 21}";
target = up;
type = BottomGhost;
},
{
horizontal = 1;
place = "{1536, -20}";
target = down;
type = TopGhost;
}
);
layerId = UUID0;
paths = (
{
closed = 1;
nodes = (
"124 1500 LINE",
"412 1536 LINE",
"412 12 LINE",
"124 -12 LINE"
);
}
);
width = 536;
}
);
unicode = 006C;
},
{
glyphname = m;
lastChange = "2016-07-28 15:52:12 +0000";
layers = (
{
hints = (
{
place = "{124, 288}";
},
{
place = "{604, 288}";
},
{
place = "{1084, 288}";
},
{
horizontal = 1;
place = "{921, 246}";
},
{
horizontal = 1;
place = "{-12, 21}";
target = up;
type = BottomGhost;
}
);
layerId = UUID0;
paths = (
{
closed = 1;
nodes = (
"1084 802 LINE SMOOTH",
"1084 879 OFFCURVE",
"1060 921 OFFCURVE",
"1025 921 CURVE SMOOTH",
"986 921 OFFCURVE",
"954 900 OFFCURVE",
"930 880 CURVE SMOOTH",
"916 868 OFFCURVE",
"903 854 OFFCURVE",
"892 839 CURVE",
"892 12 LINE",
"604 -12 LINE",
"604 804 LINE SMOOTH",
"604 888 OFFCURVE",
"582 921 OFFCURVE",
"555 921 CURVE SMOOTH",
"518 921 OFFCURVE",
"483 900 OFFCURVE",
"456 880 CURVE SMOOTH",
"440 868 OFFCURVE",
"425 854 OFFCURVE",
"412 839 CURVE",
"412 12 LINE",
"124 -12 LINE",
"124 1128 LINE",
"412 1152 LINE",
"412 1005 LINE",
"493 1101 OFFCURVE",
"596 1167 OFFCURVE",
"709 1167 CURVE SMOOTH",
"788 1167 OFFCURVE",
"850 1117 OFFCURVE",
"879 988 CURVE",
"963 1099 OFFCURVE",
"1052 1167 OFFCURVE",
"1175 1167 CURVE SMOOTH",
"1326 1167 OFFCURVE",
"1372 1038 OFFCURVE",
"1372 817 CURVE SMOOTH",
"1372 12 LINE",
"1084 -12 LINE"
);
}
);
width = 1487;
}
);
leftKerningGroup = m;
rightKerningGroup = h;
unicode = 006D;
},
{
glyphname = n;
lastChange = "2016-07-28 15:52:12 +0000";
layers = (
{
hints = (
{
place = "{124, 288}";
},
{
place = "{700, 288}";
},
{
horizontal = 1;
place = "{922, 245}";
},
{
horizontal = 1;
place = "{-12, 21}";
target = up;
type = BottomGhost;
}
);
layerId = UUID0;
paths = (
{
closed = 1;
nodes = (
"700 769 LINE SMOOTH",
"700 882 OFFCURVE",
"658 922 OFFCURVE",
"595 922 CURVE SMOOTH",
"544 922 OFFCURVE",
"479 882 OFFCURVE",
"412 842 CURVE",
"412 12 LINE",
"124 -12 LINE",
"124 1128 LINE",
"412 1152 LINE",
"412 1005 LINE",
"527 1105 OFFCURVE",
"643 1167 OFFCURVE",
"742 1167 CURVE SMOOTH",
"885 1167 OFFCURVE",
"988 1055 OFFCURVE",
"988 876 CURVE SMOOTH",
"988 12 LINE",
"700 -12 LINE"
);
}
);
width = 1104;
}
);
leftKerningGroup = m;
rightKerningGroup = h;
unicode = 006E;
},
{
glyphname = o;
lastChange = "2016-07-28 15:52:12 +0000";
layers = (
{
hints = (
{
place = "{70, 288}";
},
{
place = "{645, 289}";
},
{
horizontal = 1;
place = "{-27, 214}";
},
{
horizontal = 1;
place = "{964, 203}";
}
);
layerId = UUID0;
paths = (
{
closed = 1;
nodes = (
"502 -27 LINE SMOOTH",
"214 -27 OFFCURVE",
"70 221 OFFCURVE",
"70 577 CURVE SMOOTH",
"70 922 OFFCURVE",
"214 1167 OFFCURVE",
"502 1167 CURVE SMOOTH",
"783 1167 OFFCURVE",
"934 922 OFFCURVE",
"934 577 CURVE SMOOTH",
"934 221 OFFCURVE",
"783 -27 OFFCURVE",
"502 -27 CURVE SMOOTH"
);
},
{
closed = 1;
nodes = (
"500 187 LINE SMOOTH",
"642 187 OFFCURVE",
"645 434 OFFCURVE",
"645 577 CURVE SMOOTH",
"645 716 OFFCURVE",
"642 964 OFFCURVE",
"501 964 CURVE SMOOTH",
"357 964 OFFCURVE",
"358 716 OFFCURVE",
"358 577 CURVE SMOOTH",
"358 434 OFFCURVE",
"357 187 OFFCURVE",
"500 187 CURVE SMOOTH"
);
}
);
width = 1003;
}
);
leftKerningGroup = c;
rightKerningGroup = o;
unicode = 006F;
},
{
glyphname = p;
lastChange = "2016-07-28 15:52:12 +0000";
layers = (
{
hints = (
{
place = "{124, 288}";
},
{
place = "{672, 288}";
},
{
horizontal = 1;
place = "{-27, 220}";
},
{
horizontal = 1;
place = "{960, 207}";
},
{
horizontal = 1;
place = "{-358, 21}";
target = up;
type = BottomGhost;
}
);
layerId = UUID0;
paths = (
{
closed = 1;
nodes = (
"124 1128 LINE",
"412 1152 LINE",
"412 1041 LINE",
"475 1104 OFFCURVE",
"559 1167 OFFCURVE",
"656 1167 CURVE SMOOTH",
"974 1167 OFFCURVE",
"960 811 OFFCURVE",
"960 576 CURVE SMOOTH",
"960 359 OFFCURVE",
"954 -27 OFFCURVE",
"634 -27 CURVE SMOOTH",
"559 -27 OFFCURVE",
"505 4 OFFCURVE",
"468 36 CURVE SMOOTH",
"446 54 OFFCURVE",
"427 75 OFFCURVE",
"412 99 CURVE",
"412 -302 LINE",
"124 -358 LINE"
);
},
{
closed = 1;
nodes = (
"535 960 LINE SMOOTH",
"498 960 OFFCURVE",
"467 940 OFFCURVE",
"446 920 CURVE SMOOTH",
"433 908 OFFCURVE",
"422 895 OFFCURVE",
"412 880 CURVE",
"412 285 LINE",
"420 268 OFFCURVE",
"430 252 OFFCURVE",
"442 239 CURVE SMOOTH",
"462 216 OFFCURVE",
"493 193 OFFCURVE",
"537 193 CURVE SMOOTH",
"616 193 OFFCURVE",
"672 258 OFFCURVE",
"672 576 CURVE SMOOTH",
"672 864 OFFCURVE",
"624 960 OFFCURVE",
"535 960 CURVE SMOOTH"
);
}
);
width = 1042;
}
);
leftKerningGroup = m;
rightKerningGroup = b;
unicode = 0070;
},
{
glyphname = q;
lastChange = "2016-07-28 15:52:12 +0000";
layers = (
{
hints = (
{
place = "{83, 288}";
},
{
place = "{611, 288}";
},
{
horizontal = 1;
place = "{-27, 220}";
},
{
horizontal = 1;
place = "{960, 207}";
},
{
horizontal = 1;
place = "{-358, 21}";
target = up;
type = BottomGhost;
}
);
layerId = UUID0;
paths = (
{
closed = 1;
nodes = (
"899 -322 LINE",
"611 -358 LINE",
"611 99 LINE",
"596 75 OFFCURVE",
"577 54 OFFCURVE",
"555 36 CURVE SMOOTH",
"518 4 OFFCURVE",
"462 -27 OFFCURVE",
"389 -27 CURVE SMOOTH",
"90 -27 OFFCURVE",
"83 358 OFFCURVE",
"83 576 CURVE SMOOTH",
"83 811 OFFCURVE",
"68 1167 OFFCURVE",
"367 1167 CURVE SMOOTH",
"464 1167 OFFCURVE",
"548 1104 OFFCURVE",
"611 1041 CURVE",
"659 1152 LINE",
"899 1128 LINE"
);
},
{
closed = 1;
nodes = (
"508 960 LINE SMOOTH",
"419 960 OFFCURVE",
"371 864 OFFCURVE",
"371 576 CURVE SMOOTH",
"371 258 OFFCURVE",
"419 193 OFFCURVE",
"486 193 CURVE SMOOTH",
"529 193 OFFCURVE",
"561 216 OFFCURVE",
"581 239 CURVE SMOOTH",
"593 252 OFFCURVE",
"603 268 OFFCURVE",
"611 285 CURVE",
"611 880 LINE",
"603 895 OFFCURVE",
"594 908 OFFCURVE",
"583 920 CURVE SMOOTH",
"564 940 OFFCURVE",
"539 960 OFFCURVE",
"508 960 CURVE SMOOTH"
);
}
);
width = 1023;
}
);
leftKerningGroup = d;
unicode = 0071;
},
{
glyphname = r;
lastChange = "2016-07-28 15:52:12 +0000";
layers = (
{
hints = (
{
place = "{124, 288}";
},
{
horizontal = 1;
place = "{864, 303}";
},
{
horizontal = 1;
place = "{-12, 21}";
target = up;
type = BottomGhost;
}
);
layerId = UUID0;
paths = (
{
closed = 1;
nodes = (
"124 1128 LINE",
"412 1152 LINE",
"412 967 LINE",
"479 1055 OFFCURVE",
"593 1167 OFFCURVE",
"761 1167 CURVE SMOOTH",
"768 1167 OFFCURVE",
"776 1166 OFFCURVE",
"783 1165 CURVE SMOOTH",
"796 1163 LINE",
"796 820 LINE",
"733 839 OFFCURVE",
"669 864 OFFCURVE",
"604 864 CURVE SMOOTH",
"540 864 OFFCURVE",
"479 840 OFFCURVE",
"412 768 CURVE",
"412 12 LINE",
"124 -12 LINE"
);
}
);
width = 831;
}
);
leftKerningGroup = m;
rightKerningGroup = r;
unicode = 0072;
},
{
glyphname = s;
lastChange = "2016-07-28 15:52:12 +0000";
layers = (
{
hints = (
{
place = "{67, 267}";
},
{
place = "{595, 276}";
},
{
horizontal = 1;
place = "{-27, 227}";
},
{
horizontal = 1;
place = "{954, 213}";
}
);
layerId = UUID0;
paths = (
{
closed = 1;
nodes = (
"282 337 LINE",
"288 311 OFFCURVE",
"298 288 OFFCURVE",
"313 268 CURVE SMOOTH",
"337 233 OFFCURVE",
"379 200 OFFCURVE",
"450 200 CURVE SMOOTH",
"504 200 OFFCURVE",
"595 222 OFFCURVE",
"595 293 CURVE SMOOTH",
"595 342 OFFCURVE",
"555 373 OFFCURVE",
"508 392 CURVE SMOOTH",
"267 490 LINE SMOOTH",
"138 542 OFFCURVE",
"67 654 OFFCURVE",
"67 814 CURVE SMOOTH",
"67 1043 OFFCURVE",
"257 1167 OFFCURVE",
"456 1167 CURVE SMOOTH",
"622 1167 OFFCURVE",
"788 1068 OFFCURVE",
"839 889 CURVE",
"603 816 LINE",
"596 841 OFFCURVE",
"586 864 OFFCURVE",
"573 885 CURVE SMOOTH",
"550 920 OFFCURVE",
"514 954 OFFCURVE",
"458 954 CURVE SMOOTH",
"398 954 OFFCURVE",
"334 927 OFFCURVE",
"334 862 CURVE SMOOTH",
"334 812 OFFCURVE",
"398 780 OFFCURVE",
"434 764 CURVE",
"639 679 LINE",
"768 620 OFFCURVE",
"871 530 OFFCURVE",
"871 342 CURVE SMOOTH",
"871 95 OFFCURVE",
"666 -27 OFFCURVE",
"469 -27 CURVE SMOOTH",
"235 -27 OFFCURVE",
"100 86 OFFCURVE",
"60 265 CURVE"
);
}
);
width = 926;
}
);
leftKerningGroup = s;
rightKerningGroup = s;
unicode = 0073;
},
{
glyphname = t;
lastChange = "2016-07-28 15:52:12 +0000";
layers = (
{
hints = (
{
place = "{189, 288}";
},
{
horizontal = 1;
place = "{-27, 219}";
},
{
horizontal = 1;
place = "{936, 216}";
},
{
horizontal = 1;
place = "{1438, -20}";
target = down;
type = TopGhost;
}
);
layerId = UUID0;
paths = (
{
closed = 1;
nodes = (
"197 1152 LINE",
"226 1402 LINE",
"476 1438 LINE",
"476 1152 LINE",
"712 1152 LINE",
"700 936 LINE",
"477 936 LINE",
"477 301 LINE SMOOTH",
"477 209 OFFCURVE",
"560 192 OFFCURVE",
"624 192 CURVE SMOOTH",
"645 192 OFFCURVE",
"662 193 OFFCURVE",
"675 195 CURVE SMOOTH",
"696 199 LINE",
"696 1 LINE",
"681 -4 OFFCURVE",
"663 -9 OFFCURVE",
"642 -13 CURVE SMOOTH",
"606 -20 OFFCURVE",
"552 -27 OFFCURVE",
"476 -27 CURVE SMOOTH",
"352 -27 OFFCURVE",
"189 39 OFFCURVE",
"189 244 CURVE SMOOTH",
"189 936 LINE",
"28 936 LINE",
"40 1152 LINE"
);
}
);
width = 732;
}
);
leftKerningGroup = t;
rightKerningGroup = t;
unicode = 0074;
},
{
glyphname = u;
lastChange = "2016-07-28 15:52:12 +0000";
layers = (
{
hints = (
{
place = "{116, 288}";
},
{
place = "{692, 288}";
},
{
horizontal = 1;
place = "{-27, 255}";
},
{
horizontal = 1;
place = "{1152, -20}";
target = down;
type = TopGhost;
}
);
layerId = UUID0;
paths = (
{
closed = 1;
nodes = (
"404 381 LINE SMOOTH",
"404 268 OFFCURVE",
"442 228 OFFCURVE",
"499 228 CURVE SMOOTH",
"551 228 OFFCURVE",
"623 273 OFFCURVE",
"692 318 CURVE",
"692 1128 LINE",
"980 1152 LINE",
"980 12 LINE",
"692 -12 LINE",
"692 135 LINE",
"580 35 OFFCURVE",
"468 -27 OFFCURVE",
"372 -27 CURVE SMOOTH",
"223 -27 OFFCURVE",
"116 85 OFFCURVE",
"116 264 CURVE SMOOTH",
"116 1128 LINE",
"404 1152 LINE"
);
}
);
width = 1104;
}
);
leftKerningGroup = u;
rightKerningGroup = u;
unicode = 0075;
},
{
glyphname = v;
lastChange = "2016-07-28 15:52:12 +0000";
layers = (
{
hints = (
{
horizontal = 1;
place = "{0, 21}";
target = up;
type = BottomGhost;
},
{
horizontal = 1;
place = "{1152, -20}";
target = down;
type = TopGhost;
}
);
layerId = UUID0;
paths = (
{
closed = 1;
nodes = (
"9 1128 LINE",
"352 1152 LINE",
"497 415 LINE",
"663 1116 LINE",
"924 1140 LINE",
"779 640 LINE",
"594 0 LINE",
"329 0 LINE",
"147 640 LINE"
);
}
);
width = 932;
}
);
unicode = 0076;
},
{
glyphname = w;
lastChange = "2016-07-28 15:52:12 +0000";
layers = (
{
hints = (
{
horizontal = 1;
place = "{0, 21}";
target = up;
type = BottomGhost;
},
{
horizontal = 1;
place = "{1152, -20}";
target = down;
type = TopGhost;
}
);
layerId = UUID0;
paths = (
{
closed = 1;
nodes = (
"670 747 LINE",
"508 0 LINE",
"273 0 LINE",
"36 1130 LINE",
"329 1152 LINE",
"428 500 LINE",
"573 1128 LINE",
"813 1152 LINE",
"937 508 LINE",
"1062 1128 LINE",
"1296 1140 LINE",
"1032 0 LINE",
"801 0 LINE"
);
}
);
width = 1315;
}
);
leftKerningGroup = w;
rightKerningGroup = w;
unicode = 0077;
},
{
glyphname = x;
lastChange = "2016-07-28 15:52:12 +0000";
layers = (
{
hints = (
{
horizontal = 1;
place = "{-12, 21}";
target = up;
type = BottomGhost;
},
{
horizontal = 1;
place = "{1152, -20}";
target = down;
type = TopGhost;
}
);
layerId = UUID0;
paths = (
{
closed = 1;
nodes = (
"460 339 LINE",
"284 0 LINE",
"10 0 LINE",
"321 579 LINE",
"21 1152 LINE",
"335 1152 LINE",
"474 870 LINE",
"620 1152 LINE",
"892 1152 LINE",
"615 634 LINE",
"947 12 LINE",
"630 -12 LINE"
);
}
);
width = 941;
}
);
unicode = 0078;
},
{
glyphname = y;
lastChange = "2016-07-28 15:52:12 +0000";
layers = (
{
hints = (
{
horizontal = 1;
place = "{-365, 248}";
},
{
horizontal = 1;
place = "{1152, -20}";
target = down;
type = TopGhost;
}
);
layerId = UUID0;
paths = (
{
closed = 1;
nodes = (
"30 -113 LINE",
"80 -115 LINE SMOOTH",
"107 -116 OFFCURVE",
"137 -117 OFFCURVE",
"149 -117 CURVE SMOOTH",
"282 -117 OFFCURVE",
"331 -51 OFFCURVE",
"331 52 CURVE SMOOTH",
"331 108 LINE",
"2 1138 LINE",
"314 1152 LINE",
"476 431 LINE",
"629 1146 LINE",
"889 1148 LINE",
"594 21 LINE",
"498 -316 OFFCURVE",
"300 -365 OFFCURVE",
"151 -365 CURVE SMOOTH",
"123 -365 OFFCURVE",
"92 -362 OFFCURVE",
"69 -359 CURVE SMOOTH",
"30 -353 LINE"
);
}
);
width = 901;
}
);
leftKerningGroup = y;
rightKerningGroup = y;
unicode = 0079;
},
{
glyphname = z;
lastChange = "2016-07-28 15:52:12 +0000";
layers = (
{
hints = (
{
horizontal = 1;
place = "{0, 234}";
},
{
horizontal = 1;
place = "{925, 227}";
}
);
layerId = UUID0;
paths = (
{
closed = 1;
nodes = (
"834 234 LINE",
"810 0 LINE",
"53 0 LINE",
"53 181 LINE",
"448 925 LINE",
"83 925 LINE",
"107 1152 LINE",
"792 1152 LINE",
"792 982 LINE",
"404 234 LINE"
);
}
);
width = 881;
}
);
leftKerningGroup = z;
rightKerningGroup = z;
unicode = 007A;
},
{
glyphname = bar;
lastChange = "2016-07-28 15:52:12 +0000";
layers = (
{
hints = (
{
place = "{141, 300}";
},
{
horizontal = 1;
place = "{-96, 21}";
target = up;
type = BottomGhost;
},
{
horizontal = 1;
place = "{1632, -20}";
target = down;
type = TopGhost;
}
);
layerId = UUID0;
paths = (
{
closed = 1;
nodes = (
"141 1632 LINE",
"441 1632 LINE",
"441 -96 LINE",
"141 -96 LINE"
);
}
);
width = 582;
}
);
unicode = 007C;
},
{
glyphname = D;
lastChange = "2016-07-28 15:52:12 +0000";
layers = (
{
hints = (
{
place = "{142, 299}";
},
{
place = "{759, 300}";
},
{
horizontal = 1;
place = "{0, 240}";
},
{
horizontal = 1;
place = "{1296, 240}";
}
);
layerId = UUID0;
paths = (
{
closed = 1;
nodes = (
"142 1536 LINE",
"456 1536 LINE SMOOTH",
"860 1536 OFFCURVE",
"1059 1283 OFFCURVE",
"1059 762 CURVE SMOOTH",
"1059 373 OFFCURVE",
"912 0 OFFCURVE",
"509 0 CURVE SMOOTH",
"142 0 LINE"
);
},
{
closed = 1;
nodes = (
"441 1296 LINE",
"441 240 LINE",
"484 240 LINE SMOOTH",
"713 240 OFFCURVE",
"759 491 OFFCURVE",
"759 705 CURVE SMOOTH",
"759 901 OFFCURVE",
"779 1296 OFFCURVE",
"476 1296 CURVE SMOOTH"
);
}
);
width = 1132;
}
);
leftKerningGroup = E;
rightKerningGroup = D;
unicode = 0044;
},
{
glyphname = parenright;
lastChange = "2016-07-28 15:52:12 +0000";
layers = (
{
hints = (
{
place = "{333, 288}";
},
{
horizontal = 1;
place = "{-76, 21}";
target = up;
type = BottomGhost;
},
{
horizontal = 1;
place = "{1563, -20}";
target = down;
type = TopGhost;
}
);
layerId = UUID0;
paths = (
{
closed = 1;
nodes = (
"56 113 LINE",
"240 129 OFFCURVE",
"333 436 OFFCURVE",
"333 745 CURVE SMOOTH",
"333 1044 OFFCURVE",
"240 1345 OFFCURVE",
"56 1380 CURVE",
"56 1563 LINE",
"429 1551 OFFCURVE",
"621 1149 OFFCURVE",
"621 745 CURVE SMOOTH",
"621 349 OFFCURVE",
"437 -44 OFFCURVE",
"56 -76 CURVE"
);
}
);
width = 683;
}
);
unicode = 0029;
},
{
glyphname = parenleft;
lastChange = "2016-07-28 15:52:12 +0000";
layers = (
{
hints = (
{
place = "{62, 288}";
},
{
horizontal = 1;
place = "{1563, -20}";
target = down;
type = TopGhost;
},
{
horizontal = 1;
place = "{-76, 21}";
target = up;
type = BottomGhost;
}
);
layerId = UUID0;
paths = (
{
closed = 1;
nodes = (
"627 -76 LINE",
"246 -44 OFFCURVE",
"62 349 OFFCURVE",
"62 745 CURVE SMOOTH",
"62 1149 OFFCURVE",
"253 1551 OFFCURVE",
"627 1563 CURVE",
"627 1380 LINE",
"443 1345 OFFCURVE",
"350 1044 OFFCURVE",
"350 745 CURVE SMOOTH",
"350 436 OFFCURVE",
"443 129 OFFCURVE",
"627 113 CURVE"
);
}
);
width = 682;
}
);
unicode = 0028;
},
{
glyphname = A;
lastChange = "2016-07-28 15:52:12 +0000";
layers = (
{
hints = (
{
horizontal = 1;
place = "{329, 246}";
},
{
horizontal = 1;
place = "{0, 21}";
target = up;
type = BottomGhost;
},
{
horizontal = 1;
place = "{1536, -20}";
target = down;
type = TopGhost;
}
);
layerId = UUID0;
paths = (
{
closed = 1;
nodes = (
"359 329 LINE",
"292 0 LINE",
"25 0 LINE",
"349 1518 LINE",
"776 1536 LINE",
"1108 12 LINE",
"781 0 LINE",
"724 329 LINE"
);
},
{
closed = 1;
nodes = (
"670 575 LINE",
"529 1310 LINE",
"413 575 LINE"
);
}
);
width = 1131;
}
);
leftKerningGroup = A;
rightKerningGroup = A;
unicode = 0041;
},
{
glyphname = B;
lastChange = "2016-07-28 15:52:12 +0000";
layers = (
{
hints = (
{
place = "{142, 300}";
},
{
place = "{739, 279}";
},
{
place = "{777, 241}";
},
{
place = "{777, 288}";
},
{
horizontal = 1;
place = "{0, 240}";
},
{
horizontal = 1;
place = "{693, 218}";
},
{
horizontal = 1;
place = "{1296, 240}";
}
);
layerId = UUID0;
paths = (
{
closed = 1;
nodes = (
"142 1536 LINE",
"486 1536 LINE SMOOTH",
"881 1536 OFFCURVE",
"1018 1359 OFFCURVE",
"1018 1140 CURVE SMOOTH",
"1018 992 OFFCURVE",
"955 869 OFFCURVE",
"851 818 CURVE",
"960 762 OFFCURVE",
"1065 674 OFFCURVE",
"1065 431 CURVE SMOOTH",
"1065 71 OFFCURVE",
"711 0 OFFCURVE",
"388 0 CURVE SMOOTH",
"142 0 LINE"
);
},
{
closed = 1;
nodes = (
"497 240 LINE SMOOTH",
"716 240 OFFCURVE",
"777 381 OFFCURVE",
"777 471 CURVE SMOOTH",
"777 668 OFFCURVE",
"650 693 OFFCURVE",
"508 693 CURVE SMOOTH",
"442 693 LINE",
"442 240 LINE"
);
},
{
closed = 1;
nodes = (
"504 911 LINE SMOOTH",
"644 911 OFFCURVE",
"739 935 OFFCURVE",
"739 1111 CURVE SMOOTH",
"739 1264 OFFCURVE",
"624 1296 OFFCURVE",
"491 1296 CURVE SMOOTH",
"432 1296 LINE",
"432 911 LINE"
);
}
);
width = 1127;
}
);
leftKerningGroup = E;
unicode = 0042;
},
{
glyphname = C;
lastChange = "2016-07-28 15:52:12 +0000";
layers = (
{
hints = (
{
place = "{81, 300}";
},
{
horizontal = 1;
place = "{-32, 257}";
},
{
horizontal = 1;
place = "{1328, 240}";
}
);
layerId = UUID0;
paths = (
{
closed = 1;
nodes = (
"997 523 LINE",
"997 237 OFFCURVE",
"857 -32 OFFCURVE",
"561 -32 CURVE SMOOTH",
"175 -32 OFFCURVE",
"81 412 OFFCURVE",
"81 800 CURVE SMOOTH",
"81 1145 OFFCURVE",
"208 1568 OFFCURVE",
"568 1568 CURVE SMOOTH",
"837 1568 OFFCURVE",
"995 1285 OFFCURVE",
"995 1014 CURVE",
"705 999 LINE",
"705 1031 OFFCURVE",
"699 1328 OFFCURVE",
"551 1328 CURVE SMOOTH",
"407 1328 OFFCURVE",
"381 1027 OFFCURVE",
"381 800 CURVE SMOOTH",
"381 510 OFFCURVE",
"407 225 OFFCURVE",
"580 225 CURVE SMOOTH",
"705 225 OFFCURVE",
"731 414 OFFCURVE",
"742 547 CURVE"
);
}
);
width = 1069;
}
);
leftKerningGroup = G;
rightKerningGroup = C;
unicode = 0043;
},
{
glyphname = exclam;
lastChange = "2016-07-28 15:52:12 +0000";
layers = (
{
hints = (
{
place = "{127, 288}";
},
{
place = "{151, 240}";
},
{
horizontal = 1;
place = "{-6, 306}";
},
{
horizontal = 1;
place = "{-12, 21}";
target = up;
type = BottomGhost;
},
{
horizontal = 1;
place = "{1536, -20}";
target = down;
type = TopGhost;
}
);
layerId = UUID0;
paths = (
{
closed = 1;
nodes = (
"127 1536 LINE",
"415 1536 LINE",
"368 448 LINE",
"176 448 LINE"
);
},
{
closed = 1;
nodes = (
"127 -12 LINE",
"127 300 LINE",
"415 300 LINE",
"415 0 LINE"
);
}
);
width = 543;
}
);
unicode = 0021;
},
{
glyphname = fi;
lastChange = "2016-07-28 15:52:12 +0000";
layers = (
{
hints = (
{
place = "{177, 288}";
},
{
place = "{875, 288}";
},
{
place = "{177, 481}";
},
{
horizontal = 1;
place = "{915, 237}";
},
{
horizontal = 1;
place = "{1294, 306}";
},
{
horizontal = 1;
place = "{1344, 202}";
},
{
horizontal = 1;
place = "{-12, 21}";
target = up;
type = BottomGhost;
}
);
layerId = UUID0;
paths = (
{
closed = 1;
nodes = (
"875 915 LINE",
"465 915 LINE",
"465 12 LINE",
"177 -12 LINE",
"177 917 LINE",
"35 917 LINE",
"59 1152 LINE",
"177 1152 LINE",
"177 1174 LINE SMOOTH",
"177 1360 OFFCURVE",
"185 1546 OFFCURVE",
"463 1546 CURVE SMOOTH",
"534 1546 OFFCURVE",
"582 1538 OFFCURVE",
"613 1531 CURVE SMOOTH",
"631 1526 OFFCURVE",
"646 1521 OFFCURVE",
"658 1516 CURVE",
"658 1344 LINE",
"595 1344 LINE SMOOTH",
"475 1344 OFFCURVE",
"465 1257 OFFCURVE",
"465 1173 CURVE SMOOTH",
"465 1152 LINE",
"1163 1152 LINE",
"1163 12 LINE",
"875 -12 LINE"
);
},
{
closed = 1;
nodes = (
"1163 1600 LINE",
"1163 1300 LINE",
"875 1288 LINE",
"875 1600 LINE"
);
}
);
width = 1287;
}
);
leftKerningGroup = f;
unicode = FB01;
},
{
glyphname = fl;
lastChange = "2016-07-28 15:52:12 +0000";
layers = (
{
hints = (
{
place = "{177, 288}";
},
{
place = "{875, 288}";
},
{
horizontal = 1;
place = "{915, 237}";
},
{
horizontal = 1;
place = "{1344, 192}";
},
{
horizontal = 1;
place = "{-12, 21}";
target = up;
type = BottomGhost;
}
);
layerId = UUID0;
paths = (
{
closed = 1;
nodes = (
"875 1344 LINE",
"555 1344 LINE SMOOTH",
"470 1344 OFFCURVE",
"465 1257 OFFCURVE",
"465 1173 CURVE SMOOTH",
"465 1152 LINE",
"656 1152 LINE",
"632 915 LINE",
"465 915 LINE",
"465 12 LINE",
"177 -12 LINE",
"177 917 LINE",
"35 917 LINE",
"59 1152 LINE",
"177 1152 LINE",
"177 1174 LINE SMOOTH",
"177 1360 OFFCURVE",
"185 1536 OFFCURVE",
"563 1536 CURVE SMOOTH",
"1163 1536 LINE",
"1163 12 LINE",
"875 -12 LINE"
);
}
);
width = 1287;
}
);
leftKerningGroup = f;
unicode = FB02;
},
{
glyphname = fraction;
lastChange = "2016-07-28 15:52:12 +0000";
layers = (
{
hints = (
{
horizontal = 1;
place = "{0, 21}";
target = up;
type = BottomGhost;
},
{
horizontal = 1;
place = "{1536, -20}";
target = down;
type = TopGhost;
}
);
layerId = UUID0;
paths = (
{
closed = 1;
nodes = (
"268 1536 LINE",
"568 1536 LINE",
"367 0 LINE",
"67 0 LINE"
);
}
);
width = 634;
}
);
unicode = 2044;
},
{
glyphname = slash;
lastChange = "2016-07-28 15:52:12 +0000";
layers = (
{
hints = (
{
horizontal = 1;
place = "{0, 21}";
target = up;
type = BottomGhost;
},
{
horizontal = 1;
place = "{1536, -20}";
target = down;
type = TopGhost;
}
);
layerId = UUID0;
paths = (
{
closed = 1;
nodes = (
"265 1536 LINE",
"565 1536 LINE",
"364 0 LINE",
"64 0 LINE"
);
}
);
width = 628;
}
);
unicode = 002F;
},
{
glyphname = plus;
lastChange = "2016-07-28 15:52:12 +0000";
layers = (
{
hints = (
{
place = "{308, 238}";
},
{
horizontal = 1;
place = "{260, 238}";
},
{
horizontal = 1;
place = "{738, -20}";
target = down;
type = TopGhost;
},
{
horizontal = 1;
place = "{20, 21}";
target = up;
type = BottomGhost;
}
);
layerId = UUID0;
paths = (
{
closed = 1;
nodes = (
"546 260 LINE",
"546 20 LINE",
"308 20 LINE",
"308 260 LINE",
"68 260 LINE",
"68 498 LINE",
"308 498 LINE",
"308 738 LINE",
"546 738 LINE",
"546 498 LINE",
"786 498 LINE",
"786 260 LINE"
);
}
);
width = 855;
}
);
unicode = 002B;
},
{
glyphname = acute;
lastChange = "2016-07-28 15:52:12 +0000";
layers = (
{
hints = (
{
horizontal = 1;
place = "{1245, 21}";
target = up;
type = BottomGhost;
},
{
horizontal = 1;
place = "{1793, -20}";
target = down;
type = TopGhost;
}
);
layerId = UUID0;
paths = (
{
closed = 1;
nodes = (
"65 1346 LINE",
"362 1793 LINE",
"589 1591 LINE",
"178 1245 LINE"
);
}
);
width = 613;
}
);
unicode = 00B4;
},
{
glyphname = macron;
lastChange = "2016-07-28 15:52:12 +0000";
layers = (
{
hints = (
{
horizontal = 1;
place = "{1248, 192}";
}
);
layerId = UUID0;
paths = (
{
closed = 1;
nodes = (
"162 1440 LINE",
"738 1440 LINE",
"738 1248 LINE",
"162 1248 LINE"
);
}
);
width = 898;
}
);
unicode = 00AF;
},
{
glyphname = grave;
lastChange = "2016-07-28 15:52:12 +0000";
layers = (
{
hints = (
{
horizontal = 1;
place = "{1789, -20}";
target = down;
type = TopGhost;
},
{
horizontal = 1;
place = "{1241, 21}";
target = up;
type = BottomGhost;
}
);
layerId = UUID0;
paths = (
{
closed = 1;
nodes = (
"421 1241 LINE",
"11 1587 LINE",
"238 1789 LINE",
"535 1342 LINE"
);
}
);
width = 613;
}
);
unicode = 0060;
},
{
glyphname = period;
lastChange = "2016-07-28 15:52:12 +0000";
layers = (
{
hints = (
{
place = "{102, 288}";
},
{
horizontal = 1;
place = "{288, -20}";
target = down;
type = TopGhost;
},
{
horizontal = 1;
place = "{-12, 21}";
target = up;
type = BottomGhost;
}
);
layerId = UUID0;
paths = (
{
closed = 1;
nodes = (
"390 288 LINE",
"390 12 LINE",
"102 -12 LINE",
"102 288 LINE"
);
}
);
width = 489;
}
);
leftKerningGroup = period;
unicode = 002E;
},
{
glyphname = dieresis;
lastChange = "2016-07-28 15:52:12 +0000";
layers = (
{
hints = (
{
place = "{162, 288}";
},
{
place = "{642, 288}";
},
{
horizontal = 1;
place = "{1248, 288}";
}
);
layerId = UUID0;
paths = (
{
closed = 1;
nodes = (
"450 1536 LINE",
"450 1248 LINE",
"162 1248 LINE",
"162 1536 LINE"
);
},
{
closed = 1;
nodes = (
"930 1536 LINE",
"930 1248 LINE",
"642 1248 LINE",
"642 1536 LINE"
);
}
);
width = 1091;
}
);
unicode = 00A8;
},
{
glyphname = dotaccent;
lastChange = "2016-07-28 15:52:12 +0000";
layers = (
{
hints = (
{
place = "{162, 288}";
},
{
horizontal = 1;
place = "{1248, 288}";
}
);
layerId = UUID0;
paths = (
{
closed = 1;
nodes = (
"450 1536 LINE",
"450 1248 LINE",
"162 1248 LINE",
"162 1536 LINE"
);
}
);
width = 608;
}
);
unicode = 02D9;
},
{
glyphname = periodcentered;
lastChange = "2016-07-28 15:52:12 +0000";
layers = (
{
hints = (
{
place = "{114, 288}";
},
{
horizontal = 1;
place = "{480, 288}";
}
);
layerId = UUID0;
paths = (
{
closed = 1;
nodes = (
"402 768 LINE",
"402 480 LINE",
"114 480 LINE",
"114 768 LINE"
);
}
);
width = 516;
}
);
unicode = 00B7;
},
{
glyphname = comma;
lastChange = "2016-07-28 15:52:12 +0000";
layers = (
{
hints = (
{
place = "{99, 288}";
},
{
place = "{147, 240}";
},
{
horizontal = 1;
place = "{0, 288}";
},
{
horizontal = 1;
place = "{-288, 21}";
target = up;
type = BottomGhost;
}
);
layerId = UUID0;
paths = (
{
closed = 1;
nodes = (
"387 288 LINE",
"387 0 LINE SMOOTH",
"387 -144 OFFCURVE",
"327 -217 OFFCURVE",
"267 -252 CURVE SMOOTH",
"232 -273 OFFCURVE",
"192 -285 OFFCURVE",
"147 -288 CURVE",
"147 -96 LINE",
"195 -96 OFFCURVE",
"219 -72 OFFCURVE",
"231 -48 CURVE SMOOTH",
"238 -34 OFFCURVE",
"242 -18 OFFCURVE",
"243 0 CURVE",
"99 0 LINE",
"99 288 LINE"
);
}
);
width = 488;
}
);
unicode = 002C;
},
{
glyphname = semicolon;
lastChange = "2016-07-28 15:52:12 +0000";
layers = (
{
hints = (
{
place = "{115, 288}";
},
{
place = "{163, 240}";
},
{
horizontal = 1;
place = "{288, 288}";
},
{
horizontal = 1;
place = "{576, 288}";
},
{
horizontal = 1;
place = "{-288, 21}";
target = up;
type = BottomGhost;
}
);
layerId = UUID0;
paths = (
{
closed = 1;
nodes = (
"403 288 LINE",
"403 0 LINE SMOOTH",
"403 -144 OFFCURVE",
"343 -217 OFFCURVE",
"283 -252 CURVE SMOOTH",
"248 -273 OFFCURVE",
"208 -285 OFFCURVE",
"163 -288 CURVE",
"163 -96 LINE",
"211 -96 OFFCURVE",
"235 -72 OFFCURVE",
"247 -48 CURVE SMOOTH",
"254 -34 OFFCURVE",
"258 -18 OFFCURVE",
"259 0 CURVE",
"115 -12 LINE",
"115 288 LINE"
);
},
{
closed = 1;
nodes = (
"403 864 LINE",
"403 576 LINE",
"115 576 LINE",
"115 864 LINE"
);
}
);
width = 517;
}
);
unicode = 003B;
},
{
glyphname = colon;
lastChange = "2016-07-28 15:52:12 +0000";
layers = (
{
hints = (
{
place = "{114, 288}";
},
{
horizontal = 1;
place = "{-6, 294}";
},
{
horizontal = 1;
place = "{576, 288}";
},
{
horizontal = 1;
place = "{-12, 21}";
target = up;
type = BottomGhost;
}
);
layerId = UUID0;
paths = (
{
closed = 1;
nodes = (
"402 288 LINE",
"402 0 LINE",
"114 -12 LINE",
"114 288 LINE"
);
},
{
closed = 1;
nodes = (
"402 864 LINE",
"402 576 LINE",
"114 576 LINE",
"114 864 LINE"
);
}
);
width = 516;
}
);
unicode = 003A;
},
{
glyphname = hyphen;
lastChange = "2016-07-28 15:52:12 +0000";
layers = (
{
hints = (
{
horizontal = 1;
place = "{480, 238}";
}
);
layerId = UUID0;
paths = (
{
closed = 1;
nodes = (
"114 718 LINE",
"690 718 LINE",
"690 480 LINE",
"114 480 LINE"
);
}
);
width = 804;
}
);
leftKerningGroup = hyphen;
rightKerningGroup = hyphen;
unicode = 002D;
},
{
glyphname = quotedblbase;
lastChange = "2016-07-28 15:52:12 +0000";
layers = (
{
hints = (
{
place = "{100, 288}";
},
{
place = "{148, 240}";
},
{
place = "{484, 288}";
},
{
place = "{532, 240}";
},
{
horizontal = 1;
place = "{-96, 96}";
},
{
horizontal = 1;
place = "{0, 288}";
},
{
horizontal = 1;
place = "{-288, 21}";
target = up;
type = BottomGhost;
}
);
layerId = UUID0;
paths = (
{
closed = 1;
nodes = (
"772 288 LINE",
"772 0 LINE SMOOTH",
"772 -144 OFFCURVE",
"712 -217 OFFCURVE",
"652 -252 CURVE SMOOTH",
"617 -273 OFFCURVE",
"577 -285 OFFCURVE",
"532 -288 CURVE",
"532 -96 LINE",
"580 -96 OFFCURVE",
"604 -72 OFFCURVE",
"616 -48 CURVE SMOOTH",
"623 -34 OFFCURVE",
"627 -18 OFFCURVE",
"628 0 CURVE",
"484 0 LINE",
"484 288 LINE"
);
},
{
closed = 1;
nodes = (
"388 288 LINE",
"388 0 LINE SMOOTH",
"388 -144 OFFCURVE",
"328 -217 OFFCURVE",
"268 -252 CURVE SMOOTH",
"233 -273 OFFCURVE",
"193 -285 OFFCURVE",
"148 -288 CURVE",
"148 -96 LINE",
"196 -96 OFFCURVE",
"220 -72 OFFCURVE",
"232 -48 CURVE SMOOTH",
"239 -34 OFFCURVE",
"243 -18 OFFCURVE",
"244 0 CURVE",
"100 0 LINE",
"100 288 LINE"
);
}
);
width = 873;
}
);
leftKerningGroup = quotedblbase;
rightKerningGroup = quotedblbase;
unicode = 201E;
},
{
glyphname = quotedblright;
lastChange = "2016-07-28 15:52:12 +0000";
layers = (
{
hints = (
{
place = "{87, 288}";
},
{
place = "{135, 240}";
},
{
place = "{471, 288}";
},
{
place = "{519, 240}";
},
{
horizontal = 1;
place = "{1536, -20}";
target = down;
type = TopGhost;
},
{
horizontal = 1;
place = "{960, 21}";
target = up;
type = BottomGhost;
}
);
layerId = UUID0;
paths = (
{
closed = 1;
nodes = (
"759 1536 LINE",
"759 1248 LINE SMOOTH",
"759 1104 OFFCURVE",
"699 1031 OFFCURVE",
"639 996 CURVE SMOOTH",
"604 975 OFFCURVE",
"564 963 OFFCURVE",
"519 960 CURVE",
"519 1152 LINE",
"567 1152 OFFCURVE",
"591 1176 OFFCURVE",
"603 1200 CURVE SMOOTH",
"610 1214 OFFCURVE",
"614 1230 OFFCURVE",
"615 1248 CURVE",
"471 1236 LINE",
"471 1536 LINE"
);
},
{
closed = 1;
nodes = (
"375 1536 LINE",
"375 1248 LINE SMOOTH",
"375 1104 OFFCURVE",
"315 1031 OFFCURVE",
"255 996 CURVE SMOOTH",
"220 975 OFFCURVE",
"180 963 OFFCURVE",
"135 960 CURVE",
"135 1152 LINE",
"183 1152 OFFCURVE",
"207 1176 OFFCURVE",
"219 1200 CURVE SMOOTH",
"226 1214 OFFCURVE",
"230 1230 OFFCURVE",
"231 1248 CURVE",
"87 1236 LINE",
"87 1536 LINE"
);
}
);
width = 842;
}
);
leftKerningGroup = quotedblright;
rightKerningGroup = quotedblright;
unicode = 201D;
},
{
glyphname = quotedblleft;
lastChange = "2016-07-28 15:52:12 +0000";
layers = (
{
hints = (
{
place = "{96, 240}";
},
{
place = "{480, 240}";
},
{
place = "{480, 288}";
},
{
place = "{96, 288}";
},
{
horizontal = 1;
place = "{954, 294}";
},
{
horizontal = 1;
place = "{1248, 96}";
},
{
horizontal = 1;
place = "{1536, -20}";
target = down;
type = TopGhost;
},
{
horizontal = 1;
place = "{948, 21}";
target = up;
type = BottomGhost;
}
);
layerId = UUID0;
paths = (
{
closed = 1;
nodes = (
"96 948 LINE",
"96 1248 LINE SMOOTH",
"96 1392 OFFCURVE",
"156 1463 OFFCURVE",
"216 1500 CURVE SMOOTH",
"251 1521 OFFCURVE",
"291 1533 OFFCURVE",
"336 1536 CURVE",
"336 1344 LINE",
"288 1344 OFFCURVE",
"264 1320 OFFCURVE",
"252 1296 CURVE SMOOTH",
"245 1282 OFFCURVE",
"241 1266 OFFCURVE",
"240 1248 CURVE",
"384 1248 LINE",
"384 960 LINE"
);
},
{
closed = 1;
nodes = (
"480 948 LINE",
"480 1248 LINE SMOOTH",
"480 1392 OFFCURVE",
"540 1463 OFFCURVE",
"600 1500 CURVE SMOOTH",
"635 1521 OFFCURVE",
"675 1533 OFFCURVE",
"720 1536 CURVE",
"720 1344 LINE",
"672 1344 OFFCURVE",
"648 1320 OFFCURVE",
"636 1296 CURVE SMOOTH",
"629 1282 OFFCURVE",
"625 1266 OFFCURVE",
"624 1248 CURVE",
"768 1248 LINE",
"768 960 LINE"
);
}
);
width = 859;
}
);
leftKerningGroup = quotedblleft;
rightKerningGroup = quotedblleft;
unicode = 201C;
},
{
glyphname = quoteleft;
lastChange = "2016-07-28 15:52:12 +0000";
layers = (
{
hints = (
{
place = "{97, 289}";
},
{
place = "{97, 337}";
},
{
horizontal = 1;
place = "{924, 324}";
},
{
horizontal = 1;
place = "{1536, -20}";
target = down;
type = TopGhost;
},
{
horizontal = 1;
place = "{918, 21}";
target = up;
type = BottomGhost;
}
);
layerId = UUID0;
paths = (
{
closed = 1;
nodes = (
"97 918 LINE",
"97 1248 LINE SMOOTH",
"97 1393 OFFCURVE",
"169 1463 OFFCURVE",
"241 1500 CURVE SMOOTH",
"283 1521 OFFCURVE",
"331 1533 OFFCURVE",
"386 1536 CURVE",
"386 1344 LINE",
"313 1344 OFFCURVE",
"278 1320 OFFCURVE",
"259 1296 CURVE SMOOTH",
"248 1282 OFFCURVE",
"242 1266 OFFCURVE",
"241 1248 CURVE",
"434 1248 LINE",
"434 930 LINE"
);
}
);
width = 524;
}
);
leftKerningGroup = quotedblleft;
rightKerningGroup = quotedblleft;
unicode = 2018;
},
{
glyphname = quoteright;
lastChange = "2016-07-28 15:52:12 +0000";
layers = (
{
hints = (
{
place = "{87, 288}";
},
{
place = "{135, 240}";
},
{
horizontal = 1;
place = "{1536, -20}";
target = down;
type = TopGhost;
},
{
horizontal = 1;
place = "{960, 21}";
target = up;
type = BottomGhost;
}
);
layerId = UUID0;
paths = (
{
closed = 1;
nodes = (
"375 1536 LINE",
"375 1248 LINE SMOOTH",
"375 1104 OFFCURVE",
"315 1031 OFFCURVE",
"255 996 CURVE SMOOTH",
"220 975 OFFCURVE",
"180 963 OFFCURVE",
"135 960 CURVE",
"135 1152 LINE",
"183 1152 OFFCURVE",
"207 1176 OFFCURVE",
"219 1200 CURVE SMOOTH",
"226 1214 OFFCURVE",
"230 1230 OFFCURVE",
"231 1248 CURVE",
"87 1236 LINE",
"87 1536 LINE"
);
}
);
width = 458;
}
);
leftKerningGroup = quotedblright;
rightKerningGroup = quotedblright;
unicode = 2019;
},
{
glyphname = minus;
lastChange = "2016-07-28 15:52:12 +0000";
layers = (
{
hints = (
{
horizontal = 1;
place = "{480, 238}";
}
);
layerId = UUID0;
paths = (
{
closed = 1;
nodes = (
"114 718 LINE",
"690 718 LINE",
"690 480 LINE",
"114 480 LINE"
);
}
);
width = 804;
}
);
unicode = 2212;
},
{
glyphname = logicalnot;
lastChange = "2016-07-28 15:52:12 +0000";
layers = (
{
hints = (
{
place = "{527, 144}";
},
{
horizontal = 1;
place = "{288, 430}";
},
{
horizontal = 1;
place = "{480, 238}";
}
);
layerId = UUID0;
paths = (
{
closed = 1;
nodes = (
"95 718 LINE",
"671 718 LINE",
"671 288 LINE",
"527 288 LINE",
"527 480 LINE",
"95 480 LINE"
);
}
);
width = 789;
}
);
unicode = 00AC;
},
{
glyphname = brokenbar;
lastChange = "2016-07-28 15:52:12 +0000";
layers = (
{
hints = (
{
place = "{145, 300}";
},
{
horizontal = 1;
place = "{1632, -20}";
target = down;
type = TopGhost;
},
{
horizontal = 1;
place = "{-96, 21}";
target = up;
type = BottomGhost;
}
);
layerId = UUID0;
paths = (
{
closed = 1;
nodes = (
"145 576 LINE",
"445 576 LINE",
"445 -96 LINE",
"145 -96 LINE"
);
},
{
closed = 1;
nodes = (
"145 1632 LINE",
"445 1632 LINE",
"445 960 LINE",
"145 960 LINE"
);
}
);
width = 590;
}
);
unicode = 00A6;
},
{
glyphname = circumflex;
lastChange = "2016-07-28 15:52:12 +0000";
layers = (
{
hints = (
{
horizontal = 1;
place = "{1248, 480}";
}
);
layerId = UUID0;
paths = (
{
closed = 1;
nodes = (
"32 1248 LINE",
"272 1728 LINE",
"474 1728 LINE",
"704 1248 LINE",
"454 1248 LINE",
"358 1538 LINE",
"242 1248 LINE"
);
}
);
width = 739;
}
);
unicode = 02C6;
},
{
glyphname = caron;
lastChange = "2016-07-28 15:52:12 +0000";
layers = (
{
hints = (
{
horizontal = 1;
place = "{1248, 480}";
}
);
layerId = UUID0;
paths = (
{
closed = 1;
nodes = (
"242 1728 LINE",
"358 1438 LINE",
"454 1728 LINE",
"704 1728 LINE",
"474 1248 LINE",
"272 1248 LINE",
"32 1728 LINE"
);
}
);
width = 768;
}
);
unicode = 02C7;
},
{
glyphname = bracketleft;
lastChange = "2016-07-28 15:52:12 +0000";
layers = (
{
hints = (
{
place = "{141, 300}";
},
{
place = "{141, 492}";
},
{
horizontal = 1;
place = "{-96, 191}";
},
{
horizontal = 1;
place = "{1440, 192}";
}
);
layerId = UUID0;
paths = (
{
closed = 1;
nodes = (
"141 1632 LINE",
"633 1632 LINE",
"633 1440 LINE",
"441 1440 LINE",
"441 95 LINE",
"633 95 LINE",
"633 -96 LINE",
"141 -96 LINE"
);
}
);
width = 692;
}
);
unicode = 005B;
},
{
glyphname = bracketright;
lastChange = "2016-07-28 15:52:12 +0000";
layers = (
{
hints = (
{
place = "{60, 492}";
},
{
place = "{252, 300}";
},
{
horizontal = 1;
place = "{-96, 191}";
},
{
horizontal = 1;
place = "{1440, 192}";
}
);
layerId = UUID0;
paths = (
{
closed = 1;
nodes = (
"552 -96 LINE",
"60 -96 LINE",
"60 95 LINE",
"252 95 LINE",
"252 1440 LINE",
"60 1440 LINE",
"60 1632 LINE",
"552 1632 LINE"
);
}
);
width = 693;
}
);
unicode = 005D;
},
{
glyphname = backslash;
lastChange = "2016-07-28 15:52:12 +0000";
layers = (
{
hints = (
{
horizontal = 1;
place = "{1536, -20}";
target = down;
type = TopGhost;
},
{
horizontal = 1;
place = "{0, 21}";
target = up;
type = BottomGhost;
}
);
layerId = UUID0;
paths = (
{
closed = 1;
nodes = (
"564 0 LINE",
"264 0 LINE",
"63 1536 LINE",
"363 1536 LINE"
);
}
);
width = 628;
}
);
unicode = 005C;
},
{
glyphname = hungarumlaut;
lastChange = "2016-07-28 15:52:12 +0000";
layers = (
{
hints = (
{
horizontal = 1;
place = "{1150, 21}";
target = up;
type = BottomGhost;
},
{
horizontal = 1;
place = "{1728, -20}";
target = down;
type = TopGhost;
}
);
layerId = UUID0;
paths = (
{
closed = 1;
nodes = (
"564 1248 LINE",
"833 1728 LINE",
"1067 1534 LINE",
"683 1150 LINE"
);
},
{
closed = 1;
nodes = (
"61 1248 LINE",
"330 1728 LINE",
"564 1534 LINE",
"180 1150 LINE"
);
}
);
width = 1102;
}
);
unicode = 02DD;
},
{
glyphname = ring;
lastChange = "2016-07-28 15:52:12 +0000";
layers = (
{
hints = (
{
place = "{82, 189}";
},
{
place = "{518, 189}";
},
{
horizontal = 1;
place = "{1248, 159}";
},
{
horizontal = 1;
place = "{1631, 161}";
}
);
layerId = UUID0;
paths = (
{
closed = 1;
nodes = (
"394 1407 LINE",
"454 1407 OFFCURVE",
"518 1445 OFFCURVE",
"518 1520 CURVE SMOOTH",
"518 1591 OFFCURVE",
"455 1631 OFFCURVE",
"395 1631 CURVE SMOOTH",
"333 1631 OFFCURVE",
"271 1591 OFFCURVE",
"271 1520 CURVE SMOOTH",
"271 1445 OFFCURVE",
"333 1407 OFFCURVE",
"395 1407 CURVE"
);
},
{
closed = 1;
nodes = (
"395 1248 LINE SMOOTH",
"239 1248 OFFCURVE",
"82 1337 OFFCURVE",
"82 1521 CURVE SMOOTH",
"82 1702 OFFCURVE",
"239 1792 OFFCURVE",
"395 1792 CURVE SMOOTH",
"550 1792 OFFCURVE",
"707 1702 OFFCURVE",
"707 1521 CURVE SMOOTH",
"707 1337 OFFCURVE",
"550 1248 OFFCURVE",
"395 1248 CURVE SMOOTH"
);
}
);
width = 789;
}
);
unicode = 02DA;
},
{
glyphname = degree;
lastChange = "2016-07-28 15:52:12 +0000";
layers = (
{
hints = (
{
place = "{68, 248}";
},
{
place = "{603, 249}";
},
{
horizontal = 1;
place = "{387, 192}";
},
{
horizontal = 1;
place = "{959, 192}";
}
);
layerId = UUID0;
paths = (
{
closed = 1;
nodes = (
"68 769 LINE SMOOTH",
"68 988 OFFCURVE",
"201 1151 OFFCURVE",
"469 1151 CURVE SMOOTH",
"717 1151 OFFCURVE",
"852 988 OFFCURVE",
"852 769 CURVE SMOOTH",
"852 550 OFFCURVE",
"717 387 OFFCURVE",
"469 387 CURVE SMOOTH",
"201 387 OFFCURVE",
"68 550 OFFCURVE",
"68 769 CURVE SMOOTH"
);
},
{
closed = 1;
nodes = (
"603 769 LINE SMOOTH",
"603 833 OFFCURVE",
"600 959 OFFCURVE",
"468 959 CURVE SMOOTH",
"315 959 OFFCURVE",
"316 833 OFFCURVE",
"316 769 CURVE SMOOTH",
"316 705 OFFCURVE",
"315 579 OFFCURVE",
"468 579 CURVE SMOOTH",
"600 579 OFFCURVE",
"603 705 OFFCURVE",
"603 769 CURVE SMOOTH"
);
}
);
width = 921;
}
);
unicode = 00B0;
},
{
glyphname = currency;
lastChange = "2016-07-28 15:52:12 +0000";
layers = (
{
hints = (
{
place = "{176, 240}";
},
{
place = "{798, 240}";
},
{
horizontal = 1;
place = "{482, 216}";
},
{
horizontal = 1;
place = "{1127, 216}";
},
{
horizontal = 1;
place = "{447, 21}";
target = up;
type = BottomGhost;
},
{
horizontal = 1;
place = "{1387, -20}";
target = down;
type = TopGhost;
}
);
layerId = UUID0;
paths = (
{
closed = 1;
nodes = (
"183 447 LINE",
"88 556 LINE",
"228 679 LINE",
"193 746 OFFCURVE",
"176 824 OFFCURVE",
"176 912 CURVE SMOOTH",
"176 1003 OFFCURVE",
"193 1083 OFFCURVE",
"232 1151 CURVE",
"88 1278 LINE",
"183 1387 LINE",
"326 1261 LINE",
"395 1313 OFFCURVE",
"488 1343 OFFCURVE",
"608 1343 CURVE SMOOTH",
"728 1343 OFFCURVE",
"820 1312 OFFCURVE",
"889 1260 CURVE",
"1033 1387 LINE",
"1128 1278 LINE",
"983 1150 LINE",
"1020 1082 OFFCURVE",
"1038 1001 OFFCURVE",
"1038 912 CURVE SMOOTH",
"1038 824 OFFCURVE",
"1021 747 OFFCURVE",
"986 680 CURVE",
"1128 556 LINE",
"1033 447 LINE",
"894 569 LINE",
"823 513 OFFCURVE",
"730 482 OFFCURVE",
"606 482 CURVE",
"607 482 LINE",
"484 482 OFFCURVE",
"390 513 OFFCURVE",
"321 568 CURVE"
);
},
{
closed = 1;
nodes = (
"607 698 LINE SMOOTH",
"734 698 OFFCURVE",
"798 769 OFFCURVE",
"798 912 CURVE SMOOTH",
"798 1055 OFFCURVE",
"734 1127 OFFCURVE",
"607 1127 CURVE SMOOTH",
"480 1127 OFFCURVE",
"416 1055 OFFCURVE",
"416 912 CURVE SMOOTH",
"416 769 OFFCURVE",
"480 698 OFFCURVE",
"607 698 CURVE SMOOTH"
);
}
);
width = 1213;
}
);
unicode = 00A4;
},
{
glyphname = cent;
lastChange = "2016-07-28 15:52:12 +0000";
layers = (
{
hints = (
{
place = "{52, 289}";
},
{
place = "{439, 139}";
},
{
place = "{439, 489}";
},
{
horizontal = 1;
place = "{-192, 21}";
target = up;
type = BottomGhost;
},
{
horizontal = 1;
place = "{1344, -20}";
target = down;
type = TopGhost;
}
);
layerId = UUID0;
paths = (
{
closed = 1;
nodes = (
"439 -16 LINE",
"179 37 OFFCURVE",
"52 295 OFFCURVE",
"52 566 CURVE SMOOTH",
"52 842 OFFCURVE",
"171 1125 OFFCURVE",
"439 1162 CURVE",
"439 1344 LINE",
"578 1344 LINE",
"578 1161 LINE",
"783 1129 OFFCURVE",
"920 971 OFFCURVE",
"928 754 CURVE",
"655 742 LINE",
"647 792 OFFCURVE",
"634 878 OFFCURVE",
"578 918 CURVE",
"578 218 LINE",
"629 229 OFFCURVE",
"654 284 OFFCURVE",
"667 334 CURVE SMOOTH",
"674 363 OFFCURVE",
"679 396 OFFCURVE",
"681 432 CURVE",
"921 405 LINE",
"889 161 OFFCURVE",
"816 -9 OFFCURVE",
"578 -25 CURVE",
"578 -192 LINE",
"439 -192 LINE"
);
},
{
closed = 1;
nodes = (
"341 576 LINE SMOOTH",
"341 502 OFFCURVE",
"340 327 OFFCURVE",
"439 252 CURVE",
"439 920 LINE",
"340 857 OFFCURVE",
"341 656 OFFCURVE",
"341 576 CURVE SMOOTH"
);
}
);
width = 983;
}
);
unicode = 00A2;
},
{
glyphname = yen;
lastChange = "2016-07-28 15:52:12 +0000";
layers = (
{
hints = (
{
place = "{404, 303}";
},
{
horizontal = 1;
place = "{0, 21}";
target = up;
type = BottomGhost;
},
{
horizontal = 1;
place = "{1536, -20}";
target = down;
type = TopGhost;
}
);
layerId = UUID0;
paths = (
{
closed = 1;
nodes = (
"404 608 LINE",
"34 1536 LINE",
"364 1536 LINE",
"575 896 LINE",
"803 1536 LINE",
"1062 1536 LINE",
"707 643 LINE",
"707 0 LINE",
"404 0 LINE"
);
}
);
width = 1096;
}
);
unicode = 00A5;
},
{
glyphname = OE;
lastChange = "2016-07-28 15:52:12 +0000";
layers = (
{
hints = (
{
place = "{86, 299}";
},
{
place = "{768, 300}";
},
{
horizontal = 1;
place = "{-27, 255}";
},
{
horizontal = 1;
place = "{0, 228}";
},
{
horizontal = 1;
place = "{672, 258}";
},
{
horizontal = 1;
place = "{1307, 239}";
}
);
layerId = UUID0;
paths = (
{
closed = 1;
nodes = (
"768 1536 LINE",
"1542 1536 LINE",
"1542 1296 LINE",
"1068 1296 LINE",
"1068 930 LINE",
"1367 930 LINE",
"1367 672 LINE",
"1068 672 LINE",
"1068 240 LINE",
"1558 240 LINE",
"1558 0 LINE",
"768 0 LINE",
"768 96 LINE",
"719 19 OFFCURVE",
"653 -27 OFFCURVE",
"561 -27 CURVE SMOOTH",
"168 -27 OFFCURVE",
"86 384 OFFCURVE",
"86 810 CURVE SMOOTH",
"86 1247 OFFCURVE",
"229 1546 OFFCURVE",
"561 1546 CURVE SMOOTH",
"649 1546 OFFCURVE",
"716 1503 OFFCURVE",
"768 1424 CURVE"
);
},
{
closed = 1;
nodes = (
"561 228 LINE SMOOTH",
"725 228 OFFCURVE",
"768 397 OFFCURVE",
"768 681 CURVE SMOOTH",
"768 884 LINE SMOOTH",
"768 1067 OFFCURVE",
"730 1307 OFFCURVE",
"561 1307 CURVE SMOOTH",
"397 1307 OFFCURVE",
"385 993 OFFCURVE",
"385 810 CURVE SMOOTH",
"385 449 OFFCURVE",
"401 228 OFFCURVE",
"561 228 CURVE SMOOTH"
);
}
);
width = 1617;
}
);
leftKerningGroup = O;
rightKerningGroup = E;
unicode = 0152;
},
{
glyphname = oe;
lastChange = "2016-07-28 15:52:12 +0000";
layers = (
{
hints = (
{
place = "{70, 288}";
},
{
place = "{645, 287}";
},
{
place = "{1207, 283}";
},
{
horizontal = 1;
place = "{-27, 214}";
},
{
horizontal = 1;
place = "{536, 166}";
},
{
horizontal = 1;
place = "{969, 198}";
}
);
layerId = UUID0;
paths = (
{
closed = 1;
nodes = (
"932 536 LINE",
"932 391 OFFCURVE",
"967 185 OFFCURVE",
"1072 185 CURVE SMOOTH",
"1162 185 OFFCURVE",
"1224 357 OFFCURVE",
"1232 373 CURVE",
"1450 290 LINE",
"1397 104 OFFCURVE",
"1277 -27 OFFCURVE",
"1067 -27 CURVE SMOOTH",
"943 -27 OFFCURVE",
"860 32 OFFCURVE",
"791 132 CURVE",
"723 32 OFFCURVE",
"619 -27 OFFCURVE",
"502 -27 CURVE SMOOTH",
"214 -27 OFFCURVE",
"70 221 OFFCURVE",
"70 577 CURVE SMOOTH",
"70 922 OFFCURVE",
"214 1167 OFFCURVE",
"502 1167 CURVE SMOOTH",
"619 1167 OFFCURVE",
"725 1104 OFFCURVE",
"793 997 CURVE",
"865 1105 OFFCURVE",
"950 1167 OFFCURVE",
"1077 1167 CURVE SMOOTH",
"1351 1167 OFFCURVE",
"1490 923 OFFCURVE",
"1490 570 CURVE",
"1486 556 LINE SMOOTH",
"1483 548 OFFCURVE",
"1482 540 OFFCURVE",
"1482 536 CURVE"
);
},
{
closed = 1;
nodes = (
"500 187 LINE SMOOTH",
"642 187 OFFCURVE",
"645 434 OFFCURVE",
"645 577 CURVE SMOOTH",
"645 716 OFFCURVE",
"642 964 OFFCURVE",
"501 964 CURVE SMOOTH",
"357 964 OFFCURVE",
"358 716 OFFCURVE",
"358 577 CURVE SMOOTH",
"358 434 OFFCURVE",
"357 187 OFFCURVE",
"500 187 CURVE SMOOTH"
);
},
{
closed = 1;
nodes = (
"1207 702 LINE",
"1207 854 OFFCURVE",
"1170 969 OFFCURVE",
"1072 969 CURVE SMOOTH",
"1002 969 OFFCURVE",
"932 854 OFFCURVE",
"932 702 CURVE"
);
}
);
width = 1539;
}
);
leftKerningGroup = c;
rightKerningGroup = e;
unicode = 0153;
},
{
glyphname = plusminus;
lastChange = "2016-07-28 15:52:12 +0000";
layers = (
{
hints = (
{
place = "{315, 238}";
},
{
horizontal = 1;
place = "{1, 238}";
},
{
horizontal = 1;
place = "{576, 238}";
},
{
horizontal = 1;
place = "{1054, -20}";
target = down;
type = TopGhost;
}
);
layerId = UUID0;
paths = (
{
closed = 1;
nodes = (
"553 576 LINE",
"553 336 LINE",
"315 336 LINE",
"315 576 LINE",
"75 576 LINE",
"75 814 LINE",
"315 814 LINE",
"315 1054 LINE",
"553 1054 LINE",
"553 814 LINE",
"793 814 LINE",
"793 576 LINE"
);
},
{
closed = 1;
nodes = (
"142 239 LINE",
"718 239 LINE",
"718 1 LINE",
"142 1 LINE"
);
}
);
width = 866;
}
);
unicode = 00B1;
},
{
glyphname = bullet;
lastChange = "2016-07-28 15:52:12 +0000";
layers = (
{
hints = (
{
horizontal = 1;
place = "{385, 21}";
target = up;
type = BottomGhost;
},
{
horizontal = 1;
place = "{1056, -20}";
target = down;
type = TopGhost;
}
);
layerId = UUID0;
paths = (
{
closed = 1;
nodes = (
"72 720 LINE SMOOTH",
"72 912 OFFCURVE",
"187 1056 OFFCURVE",
"416 1056 CURVE SMOOTH",
"629 1056 OFFCURVE",
"745 912 OFFCURVE",
"745 720 CURVE SMOOTH",
"745 528 OFFCURVE",
"629 385 OFFCURVE",
"416 385 CURVE SMOOTH",
"187 385 OFFCURVE",
"72 528 OFFCURVE",
"72 720 CURVE SMOOTH"
);
}
);
width = 818;
}
);
unicode = 2022;
},
{
glyphname = copyright;
lastChange = "2016-07-28 15:52:12 +0000";
layers = (
{
hints = (
{
place = "{54, 133}";
},
{
place = "{391, 198}";
},
{
place = "{1210, 133}";
},
{
horizontal = 1;
place = "{0, 133}";
},
{
horizontal = 1;
place = "{242, 149}";
},
{
horizontal = 1;
place = "{759, 347}";
},
{
horizontal = 1;
place = "{944, 162}";
},
{
horizontal = 1;
place = "{1213, 133}";
}
);
layerId = UUID0;
paths = (
{
closed = 1;
nodes = (
"995 582 LINE",
"995 403 OFFCURVE",
"903 242 OFFCURVE",
"707 242 CURVE SMOOTH",
"476 242 OFFCURVE",
"391 485 OFFCURVE",
"391 689 CURVE SMOOTH",
"391 877 OFFCURVE",
"475 1106 OFFCURVE",
"712 1106 CURVE SMOOTH",
"889 1106 OFFCURVE",
"994 930 OFFCURVE",
"994 763 CURVE",
"803 755 LINE",
"803 772 OFFCURVE",
"799 944 OFFCURVE",
"700 944 CURVE SMOOTH",
"605 944 OFFCURVE",
"589 805 OFFCURVE",
"589 689 CURVE SMOOTH",
"589 540 OFFCURVE",
"605 391 OFFCURVE",
"720 391 CURVE SMOOTH",
"803 391 OFFCURVE",
"822 512 OFFCURVE",
"827 598 CURVE"
);
},
{
closed = 1;
nodes = (
"187 673 LINE SMOOTH",
"187 374 OFFCURVE",
"417 133 OFFCURVE",
"699 133 CURVE SMOOTH",
"979 133 OFFCURVE",
"1210 374 OFFCURVE",
"1210 673 CURVE SMOOTH",
"1210 972 OFFCURVE",
"979 1213 OFFCURVE",
"699 1213 CURVE SMOOTH",
"417 1213 OFFCURVE",
"187 972 OFFCURVE",
"187 673 CURVE SMOOTH"
);
},
{
closed = 1;
nodes = (
"54 673 LINE SMOOTH",
"54 1045 OFFCURVE",
"344 1346 OFFCURVE",
"699 1346 CURVE SMOOTH",
"1053 1346 OFFCURVE",
"1343 1045 OFFCURVE",
"1343 673 CURVE SMOOTH",
"1343 301 OFFCURVE",
"1053 0 OFFCURVE",
"699 0 CURVE SMOOTH",
"344 0 OFFCURVE",
"54 301 OFFCURVE",
"54 673 CURVE SMOOTH"
);
}
);
width = 1397;
}
);
unicode = 00A9;
},
{
glyphname = registered;
lastChange = "2016-07-28 15:52:12 +0000";
layers = (
{
hints = (
{
place = "{54, 133}";
},
{
place = "{468, 197}";
},
{
place = "{869, 197}";
},
{
place = "{1210, 133}";
},
{
horizontal = 1;
place = "{0, 133}";
},
{
horizontal = 1;
place = "{591, 140}";
},
{
horizontal = 1;
place = "{936, 158}";
},
{
horizontal = 1;
place = "{1213, 133}";
}
);
layerId = UUID0;
paths = (
{
closed = 1;
nodes = (
"187 673 LINE SMOOTH",
"187 374 OFFCURVE",
"417 133 OFFCURVE",
"699 133 CURVE SMOOTH",
"979 133 OFFCURVE",
"1210 374 OFFCURVE",
"1210 673 CURVE SMOOTH",
"1210 972 OFFCURVE",
"979 1213 OFFCURVE",
"699 1213 CURVE SMOOTH",
"417 1213 OFFCURVE",
"187 972 OFFCURVE",
"187 673 CURVE SMOOTH"
);
},
{
closed = 1;
nodes = (
"54 673 LINE SMOOTH",
"54 1045 OFFCURVE",
"344 1346 OFFCURVE",
"699 1346 CURVE SMOOTH",
"1053 1346 OFFCURVE",
"1343 1045 OFFCURVE",
"1343 673 CURVE SMOOTH",
"1343 301 OFFCURVE",
"1053 0 OFFCURVE",
"699 0 CURVE SMOOTH",
"344 0 OFFCURVE",
"54 301 OFFCURVE",
"54 673 CURVE SMOOTH"
);
},
{
closed = 1;
nodes = (
"468 1094 LINE",
"594 1094 LINE SMOOTH",
"798 1094 OFFCURVE",
"1066 1105 OFFCURVE",
"1066 831 CURVE SMOOTH",
"1066 611 OFFCURVE",
"845 591 OFFCURVE",
"665 591 CURVE",
"665 233 LINE",
"468 233 LINE"
);
},
{
closed = 1;
nodes = (
"700 731 LINE SMOOTH",
"791 731 OFFCURVE",
"869 749 OFFCURVE",
"869 832 CURVE SMOOTH",
"869 920 OFFCURVE",
"806 936 OFFCURVE",
"695 936 CURVE SMOOTH",
"667 936 LINE",
"667 731 LINE"
);
}
);
width = 1397;
}
);
unicode = 00AE;
},
{
glyphname = florin;
lastChange = "2016-07-28 15:52:12 +0000";
layers = (
{
hints = (
{
place = "{-7, 481}";
},
{
place = "{186, 288}";
},
{
place = "{186, 479}";
},
{
horizontal = 1;
place = "{-394, 202}";
},
{
horizontal = 1;
place = "{627, 237}";
},
{
horizontal = 1;
place = "{1344, 202}";
}
);
layerId = UUID0;
paths = (
{
closed = 1;
nodes = (
"474 -22 LINE SMOOTH",
"474 -208 OFFCURVE",
"466 -394 OFFCURVE",
"188 -394 CURVE SMOOTH",
"116 -394 OFFCURVE",
"69 -387 OFFCURVE",
"38 -379 CURVE SMOOTH",
"20 -375 OFFCURVE",
"5 -370 OFFCURVE",
"-7 -364 CURVE",
"-7 -192 LINE",
"56 -192 LINE SMOOTH",
"176 -192 OFFCURVE",
"186 -105 OFFCURVE",
"186 -21 CURVE SMOOTH",
"186 629 LINE",
"44 629 LINE",
"44 864 LINE",
"186 864 LINE",
"186 1174 LINE SMOOTH",
"186 1360 OFFCURVE",
"194 1546 OFFCURVE",
"472 1546 CURVE SMOOTH",
"543 1546 OFFCURVE",
"591 1538 OFFCURVE",
"622 1531 CURVE SMOOTH",
"640 1526 OFFCURVE",
"655 1521 OFFCURVE",
"667 1516 CURVE",
"667 1344 LINE",
"604 1344 LINE SMOOTH",
"484 1344 OFFCURVE",
"474 1257 OFFCURVE",
"474 1173 CURVE SMOOTH",
"474 864 LINE",
"665 864 LINE",
"665 627 LINE",
"474 627 LINE"
);
}
);
width = 704;
}
);
unicode = 0192;
},
{
glyphname = ae;
lastChange = "2016-07-28 15:52:12 +0000";
layers = (
{
hints = (
{
place = "{54, 282}";
},
{
place = "{561, 288}";
},
{
place = "{1124, 283}";
},
{
horizontal = 1;
place = "{-27, 206}";
},
{
horizontal = 1;
place = "{536, 166}";
},
{
horizontal = 1;
place = "{568, 172}";
},
{
horizontal = 1;
place = "{969, 198}";
}
);
layerId = UUID0;
paths = (
{
closed = 1;
nodes = (
"849 536 LINE",
"849 391 OFFCURVE",
"884 185 OFFCURVE",
"989 185 CURVE SMOOTH",
"1079 185 OFFCURVE",
"1141 357 OFFCURVE",
"1149 373 CURVE",
"1367 290 LINE",
"1314 104 OFFCURVE",
"1194 -27 OFFCURVE",
"984 -27 CURVE SMOOTH",
"868 -27 OFFCURVE",
"780 36 OFFCURVE",
"713 144 CURVE",
"644 11 OFFCURVE",
"495 -27 OFFCURVE",
"365 -27 CURVE SMOOTH",
"178 -27 OFFCURVE",
"54 123 OFFCURVE",
"54 327 CURVE SMOOTH",
"54 653 OFFCURVE",
"360 728 OFFCURVE",
"561 740 CURVE",
"561 846 OFFCURVE",
"562 956 OFFCURVE",
"478 956 CURVE SMOOTH",
"408 956 OFFCURVE",
"382 888 OFFCURVE",
"374 826 CURVE",
"94 875 LINE",
"123 1104 OFFCURVE",
"311 1167 OFFCURVE",
"478 1167 CURVE SMOOTH",
"589 1167 OFFCURVE",
"667 1116 OFFCURVE",
"723 1032 CURVE",
"795 1116 OFFCURVE",
"883 1167 OFFCURVE",
"994 1167 CURVE SMOOTH",
"1268 1167 OFFCURVE",
"1407 923 OFFCURVE",
"1407 570 CURVE",
"1403 556 LINE SMOOTH",
"1400 548 OFFCURVE",
"1399 540 OFFCURVE",
"1399 536 CURVE"
);
},
{
closed = 1;
nodes = (
"336 331 LINE SMOOTH",
"336 240 OFFCURVE",
"371 179 OFFCURVE",
"450 179 CURVE SMOOTH",
"515 179 OFFCURVE",
"561 288 OFFCURVE",
"561 382 CURVE SMOOTH",
"561 568 LINE",
"433 568 OFFCURVE",
"336 508 OFFCURVE",
"336 331 CURVE SMOOTH"
);
},
{
closed = 1;
nodes = (
"1124 702 LINE",
"1124 854 OFFCURVE",
"1087 969 OFFCURVE",
"989 969 CURVE SMOOTH",
"921 969 OFFCURVE",
"852 860 OFFCURVE",
"849 713 CURVE SMOOTH",
"849 702 LINE"
);
}
);
width = 1457;
}
);
leftKerningGroup = a;
rightKerningGroup = e;
unicode = 00E6;
},
{
glyphname = paragraph;
lastChange = "2016-07-28 15:52:12 +0000";
layers = (
{
hints = (
{
place = "{335, 232}";
},
{
place = "{719, 232}";
},
{
horizontal = 1;
place = "{1288, 248}";
},
{
horizontal = 1;
place = "{0, 21}";
target = up;
type = BottomGhost;
}
);
layerId = UUID0;
paths = (
{
closed = 1;
nodes = (
"1095 1288 LINE",
"951 1288 LINE",
"951 0 LINE",
"719 0 LINE",
"719 764 LINE",
"668 764 OFFCURVE",
"619 765 OFFCURVE",
"567 770 CURVE",
"567 0 LINE",
"335 0 LINE",
"335 801 LINE",
"169 847 OFFCURVE",
"47 941 OFFCURVE",
"47 1145 CURVE SMOOTH",
"47 1553 OFFCURVE",
"509 1536 OFFCURVE",
"859 1536 CURVE SMOOTH",
"1095 1536 LINE"
);
}
);
width = 1152;
}
);
unicode = 00B6;
},
{
glyphname = question;
lastChange = "2016-07-28 15:52:12 +0000";
layers = (
{
hints = (
{
place = "{170, 265}";
},
{
place = "{547, 289}";
},
{
horizontal = 1;
place = "{-6, 294}";
},
{
horizontal = 1;
place = "{1127, 419}";
},
{
horizontal = 1;
place = "{1318, 228}";
},
{
horizontal = 1;
place = "{-12, 21}";
target = up;
type = BottomGhost;
}
);
layerId = UUID0;
paths = (
{
closed = 1;
nodes = (
"435 384 LINE",
"195 384 LINE",
"142 963 OFFCURVE",
"547 738 OFFCURVE",
"547 1105 CURVE SMOOTH",
"547 1157 OFFCURVE",
"547 1318 OFFCURVE",
"431 1318 CURVE SMOOTH",
"342 1318 OFFCURVE",
"331 1187 OFFCURVE",
"323 1121 CURVE",
"50 1133 LINE",
"58 1377 OFFCURVE",
"214 1546 OFFCURVE",
"438 1546 CURVE SMOOTH",
"714 1546 OFFCURVE",
"836 1315 OFFCURVE",
"836 1095 CURVE SMOOTH",
"836 610 OFFCURVE",
"435 781 OFFCURVE",
"435 396 CURVE SMOOTH"
);
},
{
closed = 1;
nodes = (
"458 288 LINE",
"458 0 LINE",
"170 -12 LINE",
"170 288 LINE"
);
}
);
width = 885;
}
);
unicode = 003F;
},
{
glyphname = breve;
lastChange = "2016-07-28 15:52:12 +0000";
layers = (
{
hints = (
{
place = "{77, 240}";
},
{
place = "{701, 240}";
},
{
horizontal = 1;
place = "{1248, 240}";
},
{
horizontal = 1;
place = "{1248, 480}";
}
);
layerId = UUID0;
paths = (
{
closed = 1;
nodes = (
"317 1728 LINE",
"317 1632 OFFCURVE",
"317 1488 OFFCURVE",
"509 1488 CURVE SMOOTH",
"701 1488 OFFCURVE",
"701 1632 OFFCURVE",
"701 1728 CURVE",
"941 1728 LINE",
"941 1546 OFFCURVE",
"845 1248 OFFCURVE",
"509 1248 CURVE SMOOTH",
"173 1248 OFFCURVE",
"77 1546 OFFCURVE",
"77 1728 CURVE"
);
}
);
width = 1018;
}
);
unicode = 02D8;
},
{
glyphname = ogonek;
lastChange = "2016-07-28 15:52:12 +0000";
layers = (
{
hints = (
{
place = "{83, 206}";
},
{
place = "{83, 434}";
},
{
horizontal = 1;
place = "{-385, 194}";
},
{
horizontal = 1;
place = "{-385, 405}";
}
);
layerId = UUID0;
paths = (
{
closed = 1;
nodes = (
"294 -101 LINE SMOOTH",
"291 -113 OFFCURVE",
"289 -123 OFFCURVE",
"289 -130 CURVE SMOOTH",
"289 -177 OFFCURVE",
"324 -191 OFFCURVE",
"368 -191 CURVE SMOOTH",
"422 -191 OFFCURVE",
"488 -169 OFFCURVE",
"517 -156 CURVE",
"517 -321 LINE",
"478 -362 OFFCURVE",
"399 -385 OFFCURVE",
"319 -385 CURVE SMOOTH",
"202 -385 OFFCURVE",
"83 -335 OFFCURVE",
"83 -218 CURVE SMOOTH",
"83 -197 OFFCURVE",
"89 -175 OFFCURVE",
"100 -148 CURVE",
"162 20 LINE",
"324 20 LINE"
);
}
);
width = 544;
}
);
unicode = 02DB;
},
{
glyphname = cedilla;
lastChange = "2016-07-28 15:52:12 +0000";
layers = (
{
hints = (
{
place = "{76, 446}";
},
{
place = "{316, 206}";
},
{
horizontal = 1;
place = "{-556, 193}";
},
{
horizontal = 1;
place = "{-171, 219}";
}
);
layerId = UUID0;
paths = (
{
closed = 1;
nodes = (
"164 48 LINE",
"316 48 LINE",
"286 -76 LINE",
"529 -144 OFFCURVE",
"522 -330 OFFCURVE",
"522 -339 CURVE SMOOTH",
"522 -498 OFFCURVE",
"418 -556 OFFCURVE",
"306 -556 CURVE SMOOTH",
"219 -556 OFFCURVE",
"132 -531 OFFCURVE",
"76 -492 CURVE",
"76 -327 LINE",
"135 -354 OFFCURVE",
"181 -363 OFFCURVE",
"220 -363 CURVE SMOOTH",
"289 -363 OFFCURVE",
"316 -329 OFFCURVE",
"316 -289 CURVE SMOOTH",
"316 -236 OFFCURVE",
"259 -171 OFFCURVE",
"124 -171 CURVE"
);
}
);
width = 551;
}
);
unicode = 00B8;
},
{
glyphname = dagger;
lastChange = "2016-07-28 15:52:12 +0000";
layers = (
{
hints = (
{
place = "{264, 240}";
},
{
horizontal = 1;
place = "{960, 192}";
},
{
horizontal = 1;
place = "{180, 21}";
target = up;
type = BottomGhost;
},
{
horizontal = 1;
place = "{1440, -20}";
target = down;
type = TopGhost;
}
);
layerId = UUID0;
paths = (
{
closed = 1;
nodes = (
"264 1152 LINE",
"264 1428 LINE",
"504 1440 LINE",
"504 1152 LINE",
"720 1152 LINE",
"708 960 LINE",
"504 960 LINE",
"504 192 LINE",
"264 180 LINE",
"264 960 LINE",
"48 960 LINE",
"60 1152 LINE"
);
}
);
width = 768;
}
);
unicode = 2020;
},
{
glyphname = daggerdbl;
lastChange = "2016-07-28 15:52:12 +0000";
layers = (
{
hints = (
{
place = "{292, 240}";
},
{
horizontal = 1;
place = "{480, 192}";
},
{
horizontal = 1;
place = "{960, 192}";
},
{
horizontal = 1;
place = "{180, 21}";
target = up;
type = BottomGhost;
},
{
horizontal = 1;
place = "{1440, -20}";
target = down;
type = TopGhost;
}
);
layerId = UUID0;
paths = (
{
closed = 1;
nodes = (
"292 1152 LINE",
"292 1428 LINE",
"532 1440 LINE",
"532 1152 LINE",
"748 1152 LINE",
"736 960 LINE",
"532 960 LINE",
"532 672 LINE",
"748 672 LINE",
"736 480 LINE",
"532 480 LINE",
"532 192 LINE",
"292 180 LINE",
"292 480 LINE",
"76 480 LINE",
"88 672 LINE",
"292 672 LINE",
"292 960 LINE",
"76 960 LINE",
"88 1152 LINE"
);
}
);
width = 822;
}
);
unicode = 2021;
},
{
glyphname = sterling;
lastChange = "2016-07-28 15:52:12 +0000";
layers = (
{
hints = (
{
place = "{110, 294}";
},
{
place = "{246, 158}";
},
{
place = "{246, 455}";
},
{
place = "{246, 308}";
},
{
horizontal = 1;
place = "{97, 225}";
},
{
horizontal = 1;
place = "{636, 191}";
},
{
horizontal = 1;
place = "{1331, 233}";
},
{
horizontal = 1;
place = "{-12, 21}";
target = up;
type = BottomGhost;
}
);
layerId = UUID0;
paths = (
{
closed = 1;
nodes = (
"801 -2 LINE",
"713 84 OFFCURVE",
"634 97 OFFCURVE",
"563 97 CURVE SMOOTH",
"406 97 OFFCURVE",
"301 -12 OFFCURVE",
"211 -12 CURVE SMOOTH",
"172 -12 OFFCURVE",
"145 0 OFFCURVE",
"126 12 CURVE SMOOTH",
"115 19 OFFCURVE",
"105 27 OFFCURVE",
"97 36 CURVE",
"97 226 LINE",
"211 263 OFFCURVE",
"246 409 OFFCURVE",
"246 591 CURVE SMOOTH",
"246 798 OFFCURVE",
"110 1063 OFFCURVE",
"110 1199 CURVE SMOOTH",
"110 1426 OFFCURVE",
"302 1564 OFFCURVE",
"482 1564 CURVE SMOOTH",
"653 1564 OFFCURVE",
"819 1465 OFFCURVE",
"851 1233 CURVE",
"619 1145 LINE",
"619 1272 OFFCURVE",
"567 1331 OFFCURVE",
"496 1331 CURVE SMOOTH",
"445 1331 OFFCURVE",
"404 1287 OFFCURVE",
"404 1179 CURVE SMOOTH",
"404 989 OFFCURVE",
"554 840 OFFCURVE",
"554 632 CURVE SMOOTH",
"554 535 OFFCURVE",
"524 424 OFFCURVE",
"435 288 CURVE",
"481 311 OFFCURVE",
"528 322 OFFCURVE",
"576 322 CURVE SMOOTH",
"668 322 OFFCURVE",
"755 287 OFFCURVE",
"843 231 CURVE",
"843 10 LINE"
);
},
{
closed = 1;
nodes = (
"105 827 LINE",
"701 827 LINE",
"701 636 LINE",
"105 636 LINE"
);
}
);
width = 914;
}
);
unicode = 00A3;
},
{
glyphname = tilde;
lastChange = "2016-07-28 15:52:12 +0000";
layers = (
{
hints = (
{
horizontal = 1;
place = "{1230, 227}";
},
{
horizontal = 1;
place = "{1331, 126}";
},
{
horizontal = 1;
place = "{1331, 206}";
}
);
layerId = UUID0;
paths = (
{
closed = 1;
nodes = (
"118 1415 LINE",
"138 1438 OFFCURVE",
"159 1458 OFFCURVE",
"181 1476 CURVE SMOOTH",
"218 1507 OFFCURVE",
"266 1537 OFFCURVE",
"311 1537 CURVE SMOOTH",
"417 1537 OFFCURVE",
"477 1457 OFFCURVE",
"562 1457 CURVE SMOOTH",
"613 1457 OFFCURVE",
"651 1477 OFFCURVE",
"675 1497 CURVE SMOOTH",
"689 1509 OFFCURVE",
"701 1522 OFFCURVE",
"711 1537 CURVE",
"755 1375 LINE",
"755 1371 OFFCURVE",
"684 1230 OFFCURVE",
"564 1230 CURVE SMOOTH",
"468 1230 OFFCURVE",
"414 1331 OFFCURVE",
"300 1331 CURVE SMOOTH",
"259 1331 OFFCURVE",
"217 1306 OFFCURVE",
"186 1281 CURVE SMOOTH",
"167 1266 OFFCURVE",
"150 1250 OFFCURVE",
"133 1231 CURVE"
);
}
);
width = 860;
}
);
unicode = 02DC;
},
{
glyphname = ellipsis;
lastChange = "2016-07-28 15:52:12 +0000";
layers = (
{
hints = (
{
place = "{102, 288}";
},
{
place = "{674, 288}";
},
{
place = "{1246, 288}";
},
{
horizontal = 1;
place = "{288, -20}";
target = down;
type = TopGhost;
},
{
horizontal = 1;
place = "{-12, 21}";
target = up;
type = BottomGhost;
}
);
layerId = UUID0;
paths = (
{
closed = 1;
nodes = (
"390 288 LINE",
"390 12 LINE",
"102 -12 LINE",
"102 288 LINE"
);
},
{
closed = 1;
nodes = (
"962 288 LINE",
"962 12 LINE",
"674 -12 LINE",
"674 288 LINE"
);
},
{
closed = 1;
nodes = (
"1534 288 LINE",
"1534 12 LINE",
"1246 -12 LINE",
"1246 288 LINE"
);
}
);
width = 1633;
}
);
leftKerningGroup = period;
unicode = 2026;
},
{
glyphname = quotesinglbase;
lastChange = "2016-07-28 15:52:12 +0000";
layers = (
{
hints = (
{
place = "{100, 288}";
},
{
place = "{148, 240}";
},
{
horizontal = 1;
place = "{0, 288}";
},
{
horizontal = 1;
place = "{-288, 21}";
target = up;
type = BottomGhost;
}
);
layerId = UUID0;
paths = (
{
closed = 1;
nodes = (
"388 288 LINE",
"388 0 LINE SMOOTH",
"388 -144 OFFCURVE",
"328 -217 OFFCURVE",
"268 -252 CURVE SMOOTH",
"233 -273 OFFCURVE",
"193 -285 OFFCURVE",
"148 -288 CURVE",
"148 -96 LINE",
"196 -96 OFFCURVE",
"220 -72 OFFCURVE",
"232 -48 CURVE SMOOTH",
"239 -34 OFFCURVE",
"243 -18 OFFCURVE",
"244 0 CURVE",
"100 0 LINE",
"100 288 LINE"
);
}
);
width = 489;
}
);
leftKerningGroup = quotedblbase;
rightKerningGroup = quotedblbase;
unicode = 201A;
},
{
glyphname = at;
lastChange = "2016-07-28 15:52:12 +0000";
layers = (
{
hints = (
{
place = "{55, 224}";
},
{
place = "{454, 234}";
},
{
place = "{924, 223}";
},
{
place = "{1336, 190}";
},
{
horizontal = 1;
place = "{-32, 183}";
},
{
horizontal = 1;
place = "{324, 187}";
},
{
horizontal = 1;
place = "{348, 121}";
},
{
horizontal = 1;
place = "{911, 157}";
},
{
horizontal = 1;
place = "{1258, 194}";
}
);
layerId = UUID0;
paths = (
{
closed = 1;
nodes = (
"1526 775 LINE SMOOTH",
"1526 509 OFFCURVE",
"1406 348 OFFCURVE",
"1199 348 CURVE SMOOTH",
"1162 348 OFFCURVE",
"1039 359 OFFCURVE",
"994 510 CURVE",
"926 385 OFFCURVE",
"835 324 OFFCURVE",
"739 324 CURVE SMOOTH",
"594 324 OFFCURVE",
"454 446 OFFCURVE",
"454 699 CURVE SMOOTH",
"454 963 OFFCURVE",
"598 1068 OFFCURVE",
"731 1068 CURVE SMOOTH",
"824 1068 OFFCURVE",
"914 1021 OFFCURVE",
"954 941 CURVE",
"990 1050 LINE",
"1147 1050 LINE",
"1147 581 LINE SMOOTH",
"1147 501 OFFCURVE",
"1174 469 OFFCURVE",
"1210 469 CURVE SMOOTH",
"1337 469 OFFCURVE",
"1336 696 OFFCURVE",
"1336 775 CURVE SMOOTH",
"1336 1095 OFFCURVE",
"1123 1258 OFFCURVE",
"818 1258 CURVE SMOOTH",
"461 1258 OFFCURVE",
"279 957 OFFCURVE",
"279 671 CURVE SMOOTH",
"279 405 OFFCURVE",
"430 151 OFFCURVE",
"769 151 CURVE SMOOTH",
"894 151 OFFCURVE",
"1032 189 OFFCURVE",
"1205 274 CURVE",
"1277 124 LINE",
"1081 16 OFFCURVE",
"910 -32 OFFCURVE",
"753 -32 CURVE SMOOTH",
"276 -32 OFFCURVE",
"55 310 OFFCURVE",
"55 666 CURVE SMOOTH",
"55 1051 OFFCURVE",
"326 1452 OFFCURVE",
"819 1452 CURVE SMOOTH",
"1172 1452 OFFCURVE",
"1526 1224 OFFCURVE",
"1526 775 CURVE SMOOTH"
);
},
{
closed = 1;
nodes = (
"924 844 LINE",
"880 889 OFFCURVE",
"841 911 OFFCURVE",
"806 911 CURVE SMOOTH",
"733 911 OFFCURVE",
"688 826 OFFCURVE",
"688 699 CURVE SMOOTH",
"688 573 OFFCURVE",
"743 511 OFFCURVE",
"803 511 CURVE SMOOTH",
"847 511 OFFCURVE",
"895 549 OFFCURVE",
"924 625 CURVE"
);
}
);
width = 1578;
}
);
unicode = 0040;
},
{
glyphname = quotesingle;
lastChange = "2016-07-28 15:52:12 +0000";
layers = (
{
hints = (
{
horizontal = 1;
place = "{1536, -20}";
target = down;
type = TopGhost;
},
{
horizontal = 1;
place = "{948, 21}";
target = up;
type = BottomGhost;
}
);
layerId = UUID0;
paths = (
{
closed = 1;
nodes = (
"370 1536 LINE",
"322 960 LINE",
"130 948 LINE",
"82 1536 LINE"
);
}
);
width = 451;
}
);
leftKerningGroup = quotesingle;
rightKerningGroup = quotesingle;
unicode = 0027;
},
{
glyphname = quotedbl;
lastChange = "2016-07-28 15:52:12 +0000";
layers = (
{
hints = (
{
horizontal = 1;
place = "{1536, -20}";
target = down;
type = TopGhost;
},
{
horizontal = 1;
place = "{948, 21}";
target = up;
type = BottomGhost;
}
);
layerId = UUID0;
paths = (
{
closed = 1;
nodes = (
"370 1536 LINE",
"322 960 LINE",
"130 948 LINE",
"82 1536 LINE"
);
},
{
closed = 1;
nodes = (
"754 1536 LINE",
"706 960 LINE",
"514 948 LINE",
"466 1536 LINE"
);
}
);
width = 836;
}
);
leftKerningGroup = quotesingle;
rightKerningGroup = quotesingle;
unicode = 0022;
},
{
glyphname = numbersign;
lastChange = "2016-07-28 15:52:12 +0000";
layers = (
{
hints = (
{
horizontal = 1;
place = "{384, 238}";
},
{
horizontal = 1;
place = "{960, 238}";
},
{
horizontal = 1;
place = "{0, 21}";
target = up;
type = BottomGhost;
},
{
horizontal = 1;
place = "{1536, -20}";
target = down;
type = TopGhost;
}
);
layerId = UUID0;
paths = (
{
closed = 1;
nodes = (
"112 1198 LINE",
"319 1198 LINE",
"364 1536 LINE",
"664 1536 LINE",
"619 1198 LINE",
"805 1198 LINE",
"850 1536 LINE",
"1150 1536 LINE",
"1105 1198 LINE",
"1219 1198 LINE",
"1219 960 LINE",
"1074 960 LINE",
"1030 622 LINE",
"1171 622 LINE",
"1171 384 LINE",
"999 384 LINE",
"949 0 LINE",
"649 0 LINE",
"699 384 LINE",
"513 384 LINE",
"463 0 LINE",
"163 0 LINE",
"213 384 LINE",
"64 384 LINE",
"64 622 LINE",
"244 622 LINE",
"288 960 LINE",
"112 960 LINE"
);
},
{
closed = 1;
nodes = (
"544 622 LINE",
"730 622 LINE",
"774 960 LINE",
"588 960 LINE"
);
}
);
width = 1283;
}
);
unicode = 0023;
},
{
glyphname = asterisk;
lastChange = "2016-07-28 15:52:12 +0000";
layers = (
{
hints = (
{
horizontal = 1;
place = "{1392, -20}";
target = down;
type = TopGhost;
},
{
horizontal = 1;
place = "{428, 21}";
target = up;
type = BottomGhost;
}
);
layerId = UUID0;
paths = (
{
closed = 1;
nodes = (
"657 1392 LINE",
"606 1030 LINE",
"922 1182 LINE",
"1002 909 LINE",
"652 855 LINE",
"914 595 LINE",
"687 428 LINE",
"526 748 LINE",
"365 428 LINE",
"138 595 LINE",
"400 855 LINE",
"50 909 LINE",
"130 1182 LINE",
"446 1030 LINE",
"395 1392 LINE"
);
}
);
width = 1051;
}
);
unicode = 002A;
},
{
glyphname = equal;
lastChange = "2016-07-28 15:52:12 +0000";
layers = (
{
hints = (
{
horizontal = 1;
place = "{288, 238}";
},
{
horizontal = 1;
place = "{672, 238}";
}
);
layerId = UUID0;
paths = (
{
closed = 1;
nodes = (
"114 526 LINE",
"690 526 LINE",
"690 288 LINE",
"114 288 LINE"
);
},
{
closed = 1;
nodes = (
"114 910 LINE",
"690 910 LINE",
"690 672 LINE",
"114 672 LINE"
);
}
);
width = 804;
}
);
unicode = 003D;
},
{
glyphname = braceleft;
lastChange = "2016-07-28 15:52:12 +0000";
layers = (
{
hints = (
{
place = "{45, 384}";
},
{
place = "{141, 288}";
},
{
place = "{141, 480}";
},
{
horizontal = 1;
place = "{-87, 162}";
},
{
horizontal = 1;
place = "{693, 189}";
},
{
horizontal = 1;
place = "{1470, 162}";
}
);
layerId = UUID0;
paths = (
{
closed = 1;
nodes = (
"141 551 LINE SMOOTH",
"141 615 OFFCURVE",
"141 693 OFFCURVE",
"45 693 CURVE",
"45 882 LINE",
"141 882 OFFCURVE",
"141 960 OFFCURVE",
"141 1024 CURVE SMOOTH",
"141 1416 OFFCURVE",
"237 1632 OFFCURVE",
"621 1632 CURVE",
"621 1470 LINE",
"429 1470 OFFCURVE",
"429 1326 OFFCURVE",
"429 1024 CURVE SMOOTH",
"429 943 OFFCURVE",
"429 854 OFFCURVE",
"237 787 CURVE",
"429 723 OFFCURVE",
"429 631 OFFCURVE",
"429 551 CURVE SMOOTH",
"429 228 OFFCURVE",
"429 75 OFFCURVE",
"621 75 CURVE",
"621 -87 LINE",
"237 -87 OFFCURVE",
"141 140 OFFCURVE",
"141 551 CURVE SMOOTH"
);
}
);
width = 674;
}
);
unicode = 007B;
},
{
glyphname = braceright;
lastChange = "2016-07-28 15:52:12 +0000";
layers = (
{
hints = (
{
place = "{52, 480}";
},
{
place = "{244, 288}";
},
{
place = "{244, 384}";
},
{
horizontal = 1;
place = "{-87, 162}";
},
{
horizontal = 1;
place = "{693, 189}";
},
{
horizontal = 1;
place = "{1470, 162}";
}
);
layerId = UUID0;
paths = (
{
closed = 1;
nodes = (
"532 551 LINE SMOOTH",
"532 140 OFFCURVE",
"436 -87 OFFCURVE",
"52 -87 CURVE",
"52 75 LINE",
"244 75 OFFCURVE",
"244 228 OFFCURVE",
"244 551 CURVE SMOOTH",
"244 631 OFFCURVE",
"244 723 OFFCURVE",
"436 787 CURVE",
"244 854 OFFCURVE",
"244 943 OFFCURVE",
"244 1024 CURVE SMOOTH",
"244 1326 OFFCURVE",
"244 1470 OFFCURVE",
"52 1470 CURVE",
"52 1632 LINE",
"436 1632 OFFCURVE",
"532 1416 OFFCURVE",
"532 1024 CURVE SMOOTH",
"532 960 OFFCURVE",
"532 882 OFFCURVE",
"628 882 CURVE",
"628 693 LINE",
"532 693 OFFCURVE",
"532 615 OFFCURVE",
"532 551 CURVE SMOOTH"
);
}
);
width = 673;
}
);
unicode = 007D;
},
{
glyphname = ordmasculine;
lastChange = "2016-07-28 15:52:12 +0000";
layers = (
{
hints = (
{
place = "{84, 247}";
},
{
place = "{619, 249}";
},
{
horizontal = 1;
place = "{363, 194}";
},
{
horizontal = 1;
place = "{984, 183}";
}
);
layerId = UUID0;
paths = (
{
closed = 1;
nodes = (
"474 557 LINE",
"571 557 OFFCURVE",
"619 662 OFFCURVE",
"619 769 CURVE SMOOTH",
"619 876 OFFCURVE",
"571 984 OFFCURVE",
"475 984 CURVE SMOOTH",
"379 984 OFFCURVE",
"331 879 OFFCURVE",
"331 771 CURVE SMOOTH",
"331 667 OFFCURVE",
"379 560 OFFCURVE",
"474 557 CURVE"
);
},
{
closed = 1;
nodes = (
"476 363 LINE SMOOTH",
"215 363 OFFCURVE",
"84 531 OFFCURVE",
"84 767 CURVE SMOOTH",
"84 998 OFFCURVE",
"215 1167 OFFCURVE",
"476 1167 CURVE SMOOTH",
"731 1167 OFFCURVE",
"868 998 OFFCURVE",
"868 767 CURVE SMOOTH",
"868 531 OFFCURVE",
"731 363 OFFCURVE",
"476 363 CURVE SMOOTH"
);
}
);
width = 951;
}
);
unicode = 00BA;
},
{
glyphname = percent;
lastChange = "2016-07-28 15:52:12 +0000";
layers = (
{
hints = (
{
place = "{47, 247}";
},
{
place = "{582, 249}";
},
{
place = "{1265, 247}";
},
{
place = "{1800, 249}";
},
{
horizontal = 1;
place = "{-1, 194}";
},
{
horizontal = 1;
place = "{620, 183}";
},
{
horizontal = 1;
place = "{732, 194}";
},
{
horizontal = 1;
place = "{1353, 183}";
},
{
horizontal = 1;
place = "{0, 21}";
target = up;
type = BottomGhost;
}
);
layerId = UUID0;
paths = (
{
closed = 1;
nodes = (
"437 926 LINE",
"534 926 OFFCURVE",
"582 1031 OFFCURVE",
"582 1138 CURVE SMOOTH",
"582 1245 OFFCURVE",
"534 1353 OFFCURVE",
"438 1353 CURVE SMOOTH",
"342 1353 OFFCURVE",
"294 1248 OFFCURVE",
"294 1140 CURVE SMOOTH",
"294 1036 OFFCURVE",
"342 929 OFFCURVE",
"437 926 CURVE"
);
},
{
closed = 1;
nodes = (
"439 732 LINE SMOOTH",
"178 732 OFFCURVE",
"47 900 OFFCURVE",
"47 1136 CURVE SMOOTH",
"47 1367 OFFCURVE",
"178 1536 OFFCURVE",
"439 1536 CURVE SMOOTH",
"694 1536 OFFCURVE",
"831 1367 OFFCURVE",
"831 1136 CURVE SMOOTH",
"831 900 OFFCURVE",
"694 732 OFFCURVE",
"439 732 CURVE SMOOTH"
);
},
{
closed = 1;
nodes = (
"1655 193 LINE",
"1752 193 OFFCURVE",
"1800 298 OFFCURVE",
"1800 405 CURVE SMOOTH",
"1800 512 OFFCURVE",
"1752 620 OFFCURVE",
"1656 620 CURVE SMOOTH",
"1560 620 OFFCURVE",
"1512 515 OFFCURVE",
"1512 407 CURVE SMOOTH",
"1512 303 OFFCURVE",
"1560 196 OFFCURVE",
"1655 193 CURVE"
);
},
{
closed = 1;
nodes = (
"1657 -1 LINE SMOOTH",
"1396 -1 OFFCURVE",
"1265 167 OFFCURVE",
"1265 403 CURVE SMOOTH",
"1265 634 OFFCURVE",
"1396 803 OFFCURVE",
"1657 803 CURVE SMOOTH",
"1912 803 OFFCURVE",
"2049 634 OFFCURVE",
"2049 403 CURVE SMOOTH",
"2049 167 OFFCURVE",
"1912 -1 OFFCURVE",
"1657 -1 CURVE SMOOTH"
);
},
{
closed = 1;
nodes = (
"1096 1536 LINE",
"1372 1536 LINE",
"979 0 LINE",
"703 0 LINE"
);
}
);
width = 2096;
}
);
unicode = 0025;
},
{
glyphname = perthousand;
lastChange = "2016-07-28 15:52:12 +0000";
layers = (
{
hints = (
{
place = "{47, 247}";
},
{
place = "{582, 249}";
},
{
place = "{1265, 247}";
},
{
place = "{1800, 249}";
},
{
place = "{2166, 247}";
},
{
place = "{2701, 249}";
},
{
horizontal = 1;
place = "{-1, 194}";
},
{
horizontal = 1;
place = "{620, 183}";
},
{
horizontal = 1;
place = "{732, 194}";
},
{
horizontal = 1;
place = "{1353, 183}";
},
{
horizontal = 1;
place = "{0, 21}";
target = up;
type = BottomGhost;
}
);
layerId = UUID0;
paths = (
{
closed = 1;
nodes = (
"437 926 LINE",
"534 926 OFFCURVE",
"582 1031 OFFCURVE",
"582 1138 CURVE SMOOTH",
"582 1245 OFFCURVE",
"534 1353 OFFCURVE",
"438 1353 CURVE SMOOTH",
"342 1353 OFFCURVE",
"294 1248 OFFCURVE",
"294 1140 CURVE SMOOTH",
"294 1036 OFFCURVE",
"342 929 OFFCURVE",
"437 926 CURVE"
);
},
{
closed = 1;
nodes = (
"439 732 LINE SMOOTH",
"178 732 OFFCURVE",
"47 900 OFFCURVE",
"47 1136 CURVE SMOOTH",
"47 1367 OFFCURVE",
"178 1536 OFFCURVE",
"439 1536 CURVE SMOOTH",
"694 1536 OFFCURVE",
"831 1367 OFFCURVE",
"831 1136 CURVE SMOOTH",
"831 900 OFFCURVE",
"694 732 OFFCURVE",
"439 732 CURVE SMOOTH"
);
},
{
closed = 1;
nodes = (
"2556 193 LINE",
"2653 193 OFFCURVE",
"2701 298 OFFCURVE",
"2701 405 CURVE SMOOTH",
"2701 512 OFFCURVE",
"2653 620 OFFCURVE",
"2557 620 CURVE SMOOTH",
"2461 620 OFFCURVE",
"2413 515 OFFCURVE",
"2413 407 CURVE SMOOTH",
"2413 303 OFFCURVE",
"2461 196 OFFCURVE",
"2556 193 CURVE"
);
},
{
closed = 1;
nodes = (
"2558 -1 LINE SMOOTH",
"2297 -1 OFFCURVE",
"2166 167 OFFCURVE",
"2166 403 CURVE SMOOTH",
"2166 634 OFFCURVE",
"2297 803 OFFCURVE",
"2558 803 CURVE SMOOTH",
"2813 803 OFFCURVE",
"2950 634 OFFCURVE",
"2950 403 CURVE SMOOTH",
"2950 167 OFFCURVE",
"2813 -1 OFFCURVE",
"2558 -1 CURVE SMOOTH"
);
},
{
closed = 1;
nodes = (
"1096 1536 LINE",
"1372 1536 LINE",
"979 0 LINE",
"703 0 LINE"
);
},
{
closed = 1;
nodes = (
"1655 193 LINE",
"1752 193 OFFCURVE",
"1800 298 OFFCURVE",
"1800 405 CURVE SMOOTH",
"1800 512 OFFCURVE",
"1752 620 OFFCURVE",
"1656 620 CURVE SMOOTH",
"1560 620 OFFCURVE",
"1512 515 OFFCURVE",
"1512 407 CURVE SMOOTH",
"1512 303 OFFCURVE",
"1560 196 OFFCURVE",
"1655 193 CURVE"
);
},
{
closed = 1;
nodes = (
"1657 -1 LINE SMOOTH",
"1396 -1 OFFCURVE",
"1265 167 OFFCURVE",
"1265 403 CURVE SMOOTH",
"1265 634 OFFCURVE",
"1396 803 OFFCURVE",
"1657 803 CURVE SMOOTH",
"1912 803 OFFCURVE",
"2049 634 OFFCURVE",
"2049 403 CURVE SMOOTH",
"2049 167 OFFCURVE",
"1912 -1 OFFCURVE",
"1657 -1 CURVE SMOOTH"
);
}
);
width = 2997;
}
);
unicode = 2030;
},
{
glyphname = section;
lastChange = "2016-07-28 15:52:12 +0000";
layers = (
{
hints = (
{
place = "{100, 257}";
},
{
place = "{628, 266}";
},
{
horizontal = 1;
place = "{-32, 207}";
},
{
horizontal = 1;
place = "{1365, 203}";
}
);
layerId = UUID0;
paths = (
{
closed = 1;
nodes = (
"305 312 LINE",
"311 286 OFFCURVE",
"321 263 OFFCURVE",
"336 243 CURVE SMOOTH",
"360 208 OFFCURVE",
"402 175 OFFCURVE",
"473 175 CURVE SMOOTH",
"527 175 OFFCURVE",
"618 197 OFFCURVE",
"618 268 CURVE SMOOTH",
"618 317 OFFCURVE",
"578 348 OFFCURVE",
"531 367 CURVE SMOOTH",
"290 465 LINE",
"161 516 OFFCURVE",
"90 624 OFFCURVE",
"90 779 CURVE SMOOTH",
"90 874 OFFCURVE",
"122 948 OFFCURVE",
"173 1007 CURVE",
"124 1063 OFFCURVE",
"100 1136 OFFCURVE",
"100 1225 CURVE SMOOTH",
"100 1449 OFFCURVE",
"290 1568 OFFCURVE",
"489 1568 CURVE SMOOTH",
"655 1568 OFFCURVE",
"821 1473 OFFCURVE",
"872 1300 CURVE",
"636 1227 LINE",
"629 1252 OFFCURVE",
"619 1275 OFFCURVE",
"606 1296 CURVE SMOOTH",
"583 1331 OFFCURVE",
"547 1365 OFFCURVE",
"491 1365 CURVE SMOOTH",
"431 1365 OFFCURVE",
"367 1338 OFFCURVE",
"367 1273 CURVE SMOOTH",
"367 1224 OFFCURVE",
"431 1188 OFFCURVE",
"467 1175 CURVE",
"672 1090 LINE SMOOTH",
"801 1036 OFFCURVE",
"904 948 OFFCURVE",
"904 773 CURVE SMOOTH",
"904 669 OFFCURVE",
"868 589 OFFCURVE",
"812 529 CURVE",
"863 478 OFFCURVE",
"894 410 OFFCURVE",
"894 317 CURVE SMOOTH",
"894 85 OFFCURVE",
"689 -32 OFFCURVE",
"492 -32 CURVE SMOOTH",
"258 -32 OFFCURVE",
"123 74 OFFCURVE",
"83 240 CURVE"
);
},
{
closed = 1;
nodes = (
"357 827 LINE SMOOTH",
"357 767 OFFCURVE",
"420 727 OFFCURVE",
"457 709 CURVE",
"590 654 LINE",
"610 669 OFFCURVE",
"628 689 OFFCURVE",
"628 724 CURVE SMOOTH",
"628 773 OFFCURVE",
"588 804 OFFCURVE",
"541 823 CURVE SMOOTH",
"380 888 LINE",
"367 873 OFFCURVE",
"357 854 OFFCURVE",
"357 827 CURVE SMOOTH"
);
}
);
width = 984;
}
);
unicode = 00A7;
},
{
glyphname = greater;
lastChange = "2016-07-28 15:52:12 +0000";
layers = (
{
hints = (
{
horizontal = 1;
place = "{1064, -20}";
target = down;
type = TopGhost;
},
{
horizontal = 1;
place = "{89, 21}";
target = up;
type = BottomGhost;
}
);
layerId = UUID0;
paths = (
{
closed = 1;
nodes = (
"112 89 LINE",
"98 432 LINE",
"575 607 LINE",
"124 803 LINE",
"110 1064 LINE",
"920 704 LINE",
"920 439 LINE"
);
}
);
width = 976;
}
);
unicode = 003E;
},
{
glyphname = less;
lastChange = "2016-07-28 15:52:12 +0000";
layers = (
{
hints = (
{
horizontal = 1;
place = "{89, 21}";
target = up;
type = BottomGhost;
},
{
horizontal = 1;
place = "{1064, -20}";
target = down;
type = TopGhost;
}
);
layerId = UUID0;
paths = (
{
closed = 1;
nodes = (
"56 439 LINE",
"56 704 LINE",
"866 1064 LINE",
"852 803 LINE",
"401 607 LINE",
"878 432 LINE",
"864 89 LINE"
);
}
);
width = 976;
}
);
unicode = 003C;
},
{
glyphname = guilsinglleft;
lastChange = "2016-07-28 15:52:12 +0000";
layers = (
{
hints = (
{
horizontal = 1;
place = "{59, 21}";
target = up;
type = BottomGhost;
},
{
horizontal = 1;
place = "{1094, -20}";
target = down;
type = TopGhost;
}
);
layerId = UUID0;
paths = (
{
closed = 1;
nodes = (
"54 439 LINE",
"54 704 LINE",
"694 1094 LINE",
"680 833 LINE",
"299 607 LINE",
"706 402 LINE",
"692 59 LINE"
);
}
);
width = 800;
}
);
unicode = 2039;
},
{
glyphname = guilsinglright;
lastChange = "2016-07-28 15:52:12 +0000";
layers = (
{
hints = (
{
horizontal = 1;
place = "{1094, -20}";
target = down;
type = TopGhost;
},
{
horizontal = 1;
place = "{59, 21}";
target = up;
type = BottomGhost;
}
);
layerId = UUID0;
paths = (
{
closed = 1;
nodes = (
"108 59 LINE",
"94 402 LINE",
"501 607 LINE",
"120 833 LINE",
"106 1094 LINE",
"746 704 LINE",
"746 439 LINE"
);
}
);
width = 800;
}
);
unicode = 203A;
},
{
glyphname = trademark;
lastChange = "2016-07-28 15:52:12 +0000";
layers = (
{
hints = (
{
place = "{310, 209}";
},
{
place = "{860, 172}";
},
{
place = "{1508, 216}";
},
{
horizontal = 1;
place = "{1215, 176}";
},
{
horizontal = 1;
place = "{531, 21}";
target = up;
type = BottomGhost;
}
);
layerId = UUID0;
paths = (
{
closed = 1;
nodes = (
"92 1215 LINE",
"109 1391 LINE",
"735 1391 LINE",
"717 1215 LINE",
"519 1215 LINE",
"519 548 LINE",
"310 531 LINE",
"310 1215 LINE"
);
},
{
closed = 1;
nodes = (
"1032 1104 LINE",
"1032 548 LINE",
"860 539 LINE",
"860 1381 LINE",
"1165 1389 LINE",
"1306 888 LINE",
"1446 1364 LINE",
"1724 1382 LINE",
"1724 548 LINE",
"1508 531 LINE",
"1508 1100 LINE",
"1340 539 LINE",
"1211 539 LINE"
);
}
);
width = 1877;
}
);
unicode = 2122;
},
{
glyphname = emdash;
lastChange = "2016-07-28 15:52:12 +0000";
layers = (
{
hints = (
{
horizontal = 1;
place = "{480, 238}";
}
);
layerId = UUID0;
paths = (
{
closed = 1;
nodes = (
"114 718 LINE",
"1266 718 LINE",
"1266 480 LINE",
"114 480 LINE"
);
}
);
width = 1379;
}
);
leftKerningGroup = hyphen;
rightKerningGroup = hyphen;
unicode = 2014;
},
{
glyphname = endash;
lastChange = "2016-07-28 15:52:12 +0000";
layers = (
{
hints = (
{
horizontal = 1;
place = "{480, 238}";
}
);
layerId = UUID0;
paths = (
{
closed = 1;
nodes = (
"114 718 LINE",
"690 718 LINE",
"690 480 LINE",
"114 480 LINE"
);
}
);
width = 804;
}
);
leftKerningGroup = hyphen;
rightKerningGroup = hyphen;
unicode = 2013;
},
{
glyphname = onesuperior;
lastChange = "2016-07-28 15:52:12 +0000";
layers = (
{
hints = (
{
place = "{104, 419}";
},
{
place = "{283, 240}";
},
{
horizontal = 1;
place = "{576, 192}";
},
{
horizontal = 1;
place = "{1536, -20}";
target = down;
type = TopGhost;
}
);
layerId = UUID0;
paths = (
{
closed = 1;
nodes = (
"104 768 LINE",
"283 768 LINE",
"283 1206 LINE",
"221 1198 LINE SMOOTH",
"186 1194 OFFCURVE",
"144 1190 OFFCURVE",
"117 1190 CURVE SMOOTH",
"91 1190 LINE",
"91 1331 LINE",
"422 1536 LINE",
"523 1536 LINE",
"523 768 LINE",
"710 768 LINE",
"698 576 LINE",
"104 576 LINE"
);
}
);
width = 763;
}
);
unicode = 00B9;
},
{
glyphname = underscore;
lastChange = "2016-07-28 15:52:12 +0000";
layers = (
{
hints = (
{
horizontal = 1;
place = "{-238, 238}";
}
);
layerId = UUID0;
paths = (
{
closed = 1;
nodes = (
"-10 0 LINE",
"566 0 LINE",
"566 -238 LINE",
"-10 -238 LINE"
);
}
);
width = 556;
}
);
unicode = 005F;
},
{
glyphname = asciicircum;
lastChange = "2016-07-28 15:52:12 +0000";
layers = (
{
hints = (
{
horizontal = 1;
place = "{1440, -20}";
target = down;
type = TopGhost;
},
{
horizontal = 1;
place = "{636, 21}";
target = up;
type = BottomGhost;
}
);
layerId = UUID0;
paths = (
{
closed = 1;
nodes = (
"1002 644 LINE",
"659 636 LINE",
"484 1119 LINE",
"288 644 LINE",
"27 642 LINE",
"387 1440 LINE",
"652 1440 LINE"
);
}
);
width = 1032;
}
);
unicode = 005E;
},
{
glyphname = twosuperior;
lastChange = "2016-07-28 15:52:12 +0000";
layers = (
{
hints = (
{
place = "{469, 285}";
},
{
horizontal = 1;
place = "{576, 192}";
},
{
horizontal = 1;
place = "{1378, 190}";
}
);
layerId = UUID0;
paths = (
{
closed = 1;
nodes = (
"87 1321 LINE",
"119 1453 OFFCURVE",
"247 1568 OFFCURVE",
"434 1568 CURVE SMOOTH",
"607 1568 OFFCURVE",
"754 1487 OFFCURVE",
"754 1284 CURVE SMOOTH",
"754 1099 OFFCURVE",
"560 903 OFFCURVE",
"403 768 CURVE",
"707 768 LINE",
"707 692 OFFCURVE",
"691 652 OFFCURVE",
"691 576 CURVE",
"87 576 LINE",
"87 749 LINE",
"236 918 OFFCURVE",
"469 1105 OFFCURVE",
"469 1286 CURVE SMOOTH",
"469 1337 OFFCURVE",
"448 1378 OFFCURVE",
"408 1378 CURVE SMOOTH",
"373 1378 OFFCURVE",
"353 1344 OFFCURVE",
"341 1309 CURVE SMOOTH",
"334 1289 OFFCURVE",
"329 1266 OFFCURVE",
"326 1241 CURVE"
);
}
);
width = 840;
}
);
unicode = 00B2;
},
{
glyphname = threesuperior;
lastChange = "2016-07-28 15:52:12 +0000";
layers = (
{
hints = (
{
place = "{274, 479}";
},
{
place = "{466, 287}";
},
{
horizontal = 1;
place = "{528, 194}";
},
{
horizontal = 1;
place = "{971, 193}";
},
{
horizontal = 1;
place = "{1381, 186}";
}
);
layerId = UUID0;
paths = (
{
closed = 1;
nodes = (
"85 1372 LINE",
"165 1511 OFFCURVE",
"256 1567 OFFCURVE",
"402 1567 CURVE SMOOTH",
"572 1567 OFFCURVE",
"739 1480 OFFCURVE",
"739 1315 CURVE SMOOTH",
"739 1257 OFFCURVE",
"724 1146 OFFCURVE",
"552 1079 CURVE",
"680 1039 OFFCURVE",
"753 965 OFFCURVE",
"753 830 CURVE SMOOTH",
"753 635 OFFCURVE",
"585 528 OFFCURVE",
"390 528 CURVE SMOOTH",
"234 528 OFFCURVE",
"88 602 OFFCURVE",
"48 754 CURVE",
"263 817 LINE",
"279 767 OFFCURVE",
"307 722 OFFCURVE",
"377 722 CURVE SMOOTH",
"441 722 OFFCURVE",
"480 772 OFFCURVE",
"480 828 CURVE SMOOTH",
"480 951 OFFCURVE",
"386 971 OFFCURVE",
"274 971 CURVE",
"274 1164 LINE",
"379 1164 OFFCURVE",
"466 1185 OFFCURVE",
"466 1289 CURVE SMOOTH",
"466 1337 OFFCURVE",
"437 1381 OFFCURVE",
"380 1381 CURVE SMOOTH",
"349 1381 OFFCURVE",
"329 1360 OFFCURVE",
"314 1337 CURVE SMOOTH",
"305 1324 OFFCURVE",
"298 1310 OFFCURVE",
"292 1294 CURVE"
);
}
);
width = 857;
}
);
unicode = 00B3;
},
{
glyphname = onehalf;
lastChange = "2016-07-28 15:52:12 +0000";
layers = (
{
hints = (
{
place = "{78, 419}";
},
{
place = "{257, 240}";
},
{
place = "{1649, 285}";
},
{
horizontal = 1;
place = "{0, 192}";
},
{
horizontal = 1;
place = "{576, 192}";
},
{
horizontal = 1;
place = "{802, 190}";
},
{
horizontal = 1;
place = "{1536, -20}";
target = down;
type = TopGhost;
}
);
layerId = UUID0;
paths = (
{
closed = 1;
nodes = (
"1058 1536 LINE",
"1346 1536 LINE",
"962 0 LINE",
"674 0 LINE"
);
},
{
closed = 1;
nodes = (
"78 768 LINE",
"257 768 LINE",
"257 1206 LINE",
"195 1198 LINE SMOOTH",
"160 1194 OFFCURVE",
"118 1190 OFFCURVE",
"91 1190 CURVE SMOOTH",
"65 1190 LINE",
"65 1331 LINE",
"396 1536 LINE",
"497 1536 LINE",
"497 768 LINE",
"684 768 LINE",
"672 576 LINE",
"78 576 LINE"
);
},
{
closed = 1;
nodes = (
"1267 745 LINE",
"1299 877 OFFCURVE",
"1427 992 OFFCURVE",
"1614 992 CURVE SMOOTH",
"1787 992 OFFCURVE",
"1934 911 OFFCURVE",
"1934 708 CURVE SMOOTH",
"1934 523 OFFCURVE",
"1740 327 OFFCURVE",
"1583 192 CURVE",
"1887 192 LINE",
"1887 116 OFFCURVE",
"1871 76 OFFCURVE",
"1871 0 CURVE",
"1267 0 LINE",
"1267 173 LINE",
"1416 342 OFFCURVE",
"1649 529 OFFCURVE",
"1649 710 CURVE SMOOTH",
"1649 761 OFFCURVE",
"1628 802 OFFCURVE",
"1588 802 CURVE SMOOTH",
"1553 802 OFFCURVE",
"1533 768 OFFCURVE",
"1521 733 CURVE SMOOTH",
"1514 713 OFFCURVE",
"1509 690 OFFCURVE",
"1506 665 CURVE"
);
}
);
width = 1984;
}
);
unicode = 00BD;
},
{
glyphname = onequarter;
lastChange = "2016-07-28 15:52:12 +0000";
layers = (
{
hints = (
{
place = "{84, 419}";
},
{
place = "{263, 240}";
},
{
place = "{1572, 248}";
},
{
horizontal = 1;
place = "{576, 192}";
},
{
horizontal = 1;
place = "{192, 178}";
},
{
horizontal = 1;
place = "{-48, 21}";
target = up;
type = BottomGhost;
},
{
horizontal = 1;
place = "{1536, -20}";
target = down;
type = TopGhost;
}
);
layerId = UUID0;
paths = (
{
closed = 1;
nodes = (
"1064 1536 LINE",
"1352 1536 LINE",
"968 0 LINE",
"680 0 LINE"
);
},
{
closed = 1;
nodes = (
"84 768 LINE",
"263 768 LINE",
"263 1206 LINE",
"201 1198 LINE SMOOTH",
"166 1194 OFFCURVE",
"124 1190 OFFCURVE",
"97 1190 CURVE SMOOTH",
"71 1190 LINE",
"71 1331 LINE",
"402 1536 LINE",
"503 1536 LINE",
"503 768 LINE",
"690 768 LINE",
"678 576 LINE",
"84 576 LINE"
);
},
{
closed = 1;
nodes = (
"1572 192 LINE",
"1182 192 LINE",
"1182 360 LINE",
"1534 960 LINE",
"1820 960 LINE",
"1820 370 LINE",
"1945 370 LINE",
"1929 192 LINE",
"1820 192 LINE",
"1820 -32 LINE",
"1572 -48 LINE"
);
},
{
closed = 1;
nodes = (
"1572 370 LINE",
"1572 711 LINE",
"1367 370 LINE"
);
}
);
width = 1991;
}
);
unicode = 00BC;
},
{
glyphname = foursuperior;
lastChange = "2016-07-28 15:52:12 +0000";
layers = (
{
hints = (
{
place = "{434, 248}";
},
{
horizontal = 1;
place = "{768, 178}";
},
{
horizontal = 1;
place = "{528, 21}";
target = up;
type = BottomGhost;
},
{
horizontal = 1;
place = "{1536, -20}";
target = down;
type = TopGhost;
}
);
layerId = UUID0;
paths = (
{
closed = 1;
nodes = (
"434 768 LINE",
"44 768 LINE",
"44 936 LINE",
"396 1536 LINE",
"682 1536 LINE",
"682 946 LINE",
"807 946 LINE",
"791 768 LINE",
"682 768 LINE",
"682 544 LINE",
"434 528 LINE"
);
},
{
closed = 1;
nodes = (
"434 946 LINE",
"434 1287 LINE",
"229 946 LINE"
);
}
);
width = 882;
}
);
unicode = 2074;
},
{
glyphname = threequarters;
lastChange = "2016-07-28 15:52:12 +0000";
layers = (
{
hints = (
{
place = "{269, 479}";
},
{
place = "{461, 287}";
},
{
place = "{1561, 248}";
},
{
horizontal = 1;
place = "{192, 178}";
},
{
horizontal = 1;
place = "{528, 194}";
},
{
horizontal = 1;
place = "{971, 193}";
},
{
horizontal = 1;
place = "{1381, 186}";
},
{
horizontal = 1;
place = "{-48, 21}";
target = up;
type = BottomGhost;
}
);
layerId = UUID0;
paths = (
{
closed = 1;
nodes = (
"1053 1536 LINE",
"1341 1536 LINE",
"957 0 LINE",
"669 0 LINE"
);
},
{
closed = 1;
nodes = (
"80 1372 LINE",
"160 1511 OFFCURVE",
"251 1567 OFFCURVE",
"397 1567 CURVE SMOOTH",
"567 1567 OFFCURVE",
"734 1480 OFFCURVE",
"734 1315 CURVE SMOOTH",
"734 1257 OFFCURVE",
"719 1146 OFFCURVE",
"547 1079 CURVE",
"675 1039 OFFCURVE",
"748 965 OFFCURVE",
"748 830 CURVE SMOOTH",
"748 635 OFFCURVE",
"580 528 OFFCURVE",
"385 528 CURVE SMOOTH",
"229 528 OFFCURVE",
"83 602 OFFCURVE",
"43 754 CURVE",
"258 817 LINE",
"274 767 OFFCURVE",
"302 722 OFFCURVE",
"372 722 CURVE SMOOTH",
"436 722 OFFCURVE",
"475 772 OFFCURVE",
"475 828 CURVE SMOOTH",
"475 951 OFFCURVE",
"381 971 OFFCURVE",
"269 971 CURVE",
"269 1164 LINE",
"374 1164 OFFCURVE",
"461 1185 OFFCURVE",
"461 1289 CURVE SMOOTH",
"461 1337 OFFCURVE",
"432 1381 OFFCURVE",
"375 1381 CURVE SMOOTH",
"344 1381 OFFCURVE",
"324 1360 OFFCURVE",
"309 1337 CURVE SMOOTH",
"300 1324 OFFCURVE",
"293 1310 OFFCURVE",
"287 1294 CURVE"
);
},
{
closed = 1;
nodes = (
"1561 192 LINE",
"1171 192 LINE",
"1171 360 LINE",
"1523 960 LINE",
"1809 960 LINE",
"1809 370 LINE",
"1934 370 LINE",
"1918 192 LINE",
"1809 192 LINE",
"1809 -32 LINE",
"1561 -48 LINE"
);
},
{
closed = 1;
nodes = (
"1561 370 LINE",
"1561 711 LINE",
"1356 370 LINE"
);
}
);
width = 1981;
}
);
unicode = 00BE;
},
{
glyphname = oslash;
lastChange = "2016-07-28 15:52:12 +0000";
layers = (
{
hints = (
{
place = "{70, 288}";
},
{
place = "{645, 289}";
},
{
horizontal = 1;
place = "{-27, 214}";
},
{
horizontal = 1;
place = "{964, 203}";
},
{
horizontal = 1;
place = "{-31, 21}";
target = up;
type = BottomGhost;
}
);
layerId = UUID0;
paths = (
{
closed = 1;
nodes = (
"502 -27 LINE SMOOTH",
"385 -27 OFFCURVE",
"294 13 OFFCURVE",
"223 85 CURVE",
"132 -31 LINE",
"55 37 LINE",
"160 170 LINE",
"100 274 OFFCURVE",
"70 413 OFFCURVE",
"70 577 CURVE SMOOTH",
"70 922 OFFCURVE",
"214 1167 OFFCURVE",
"502 1167 CURVE SMOOTH",
"641 1167 OFFCURVE",
"746 1108 OFFCURVE",
"819 1007 CURVE",
"906 1117 LINE",
"983 1049 LINE",
"873 910 LINE",
"914 817 OFFCURVE",
"934 706 OFFCURVE",
"934 577 CURVE SMOOTH",
"934 221 OFFCURVE",
"783 -27 OFFCURVE",
"502 -27 CURVE SMOOTH"
);
},
{
closed = 1;
nodes = (
"358 577 LINE SMOOTH",
"358 533 OFFCURVE",
"358 479 OFFCURVE",
"362 426 CURVE",
"635 773 LINE",
"622 874 OFFCURVE",
"586 964 OFFCURVE",
"501 964 CURVE SMOOTH",
"357 964 OFFCURVE",
"358 716 OFFCURVE",
"358 577 CURVE SMOOTH"
);
},
{
closed = 1;
nodes = (
"500 187 LINE SMOOTH",
"642 187 OFFCURVE",
"645 434 OFFCURVE",
"645 577 CURVE SMOOTH",
"645 620 LINE",
"385 290 LINE",
"405 230 OFFCURVE",
"440 187 OFFCURVE",
"500 187 CURVE SMOOTH"
);
}
);
width = 1006;
}
);
leftKerningGroup = c;
rightKerningGroup = o;
unicode = 00F8;
},
{
glyphname = Oslash;
lastChange = "2016-07-28 15:52:12 +0000";
layers = (
{
hints = (
{
place = "{87, 299}";
},
{
place = "{740, 300}";
},
{
horizontal = 1;
place = "{-32, 255}";
},
{
horizontal = 1;
place = "{1329, 239}";
}
);
layerId = UUID0;
paths = (
{
closed = 1;
nodes = (
"562 -32 LINE SMOOTH",
"380 -32 OFFCURVE",
"269 56 OFFCURVE",
"196 193 CURVE",
"124 106 LINE",
"29 198 LINE",
"141 334 LINE",
"100 478 OFFCURVE",
"87 645 OFFCURVE",
"87 820 CURVE SMOOTH",
"87 1271 OFFCURVE",
"230 1568 OFFCURVE",
"562 1568 CURVE SMOOTH",
"747 1568 OFFCURVE",
"875 1476 OFFCURVE",
"951 1317 CURVE",
"1035 1419 LINE",
"1130 1327 LINE",
"1002 1171 LINE",
"1027 1068 OFFCURVE",
"1040 951 OFFCURVE",
"1040 820 CURVE SMOOTH",
"1040 389 OFFCURVE",
"956 -32 OFFCURVE",
"562 -32 CURVE SMOOTH"
);
},
{
closed = 1;
nodes = (
"386 820 LINE SMOOTH",
"386 752 OFFCURVE",
"385 691 OFFCURVE",
"388 634 CURVE",
"729 1048 LINE",
"713 1194 OFFCURVE",
"669 1329 OFFCURVE",
"562 1329 CURVE SMOOTH",
"398 1329 OFFCURVE",
"386 1011 OFFCURVE",
"386 820 CURVE SMOOTH"
);
},
{
closed = 1;
nodes = (
"562 223 LINE SMOOTH",
"723 223 OFFCURVE",
"740 452 OFFCURVE",
"740 820 CURVE SMOOTH",
"740 853 LINE",
"403 444 LINE",
"423 303 OFFCURVE",
"467 223 OFFCURVE",
"562 223 CURVE SMOOTH"
);
}
);
width = 1129;
}
);
leftKerningGroup = O;
rightKerningGroup = O;
unicode = 00D8;
},
{
glyphname = Thorn;
lastChange = "2016-07-28 15:52:12 +0000";
layers = (
{
hints = (
{
place = "{140, 302}";
},
{
place = "{749, 299}";
},
{
horizontal = 1;
place = "{265, 223}";
},
{
horizontal = 1;
place = "{937, 230}";
},
{
horizontal = 1;
place = "{-92, 21}";
target = up;
type = BottomGhost;
},
{
horizontal = 1;
place = "{1536, -20}";
target = down;
type = TopGhost;
}
);
layerId = UUID0;
paths = (
{
closed = 1;
nodes = (
"140 1536 LINE",
"442 1536 LINE",
"442 1167 LINE",
"729 1163 OFFCURVE",
"1048 1129 OFFCURVE",
"1048 716 CURVE SMOOTH",
"1048 304 OFFCURVE",
"713 265 OFFCURVE",
"440 265 CURVE",
"440 -68 LINE",
"140 -92 LINE"
);
},
{
closed = 1;
nodes = (
"493 488 LINE SMOOTH",
"632 488 OFFCURVE",
"749 530 OFFCURVE",
"749 718 CURVE SMOOTH",
"749 902 OFFCURVE",
"653 937 OFFCURVE",
"485 937 CURVE SMOOTH",
"442 937 LINE",
"442 488 LINE"
);
}
);
width = 1082;
}
);
leftKerningGroup = E;
unicode = 00DE;
},
{
glyphname = AE;
lastChange = "2016-07-28 15:52:12 +0000";
layers = (
{
hints = (
{
place = "{797, 307}";
},
{
horizontal = 1;
place = "{0, 240}";
},
{
horizontal = 1;
place = "{329, 246}";
},
{
horizontal = 1;
place = "{672, 258}";
},
{
horizontal = 1;
place = "{1296, 240}";
}
);
layerId = UUID0;
paths = (
{
closed = 1;
nodes = (
"769 0 LINE",
"785 329 LINE",
"450 329 LINE",
"320 0 LINE",
"-7 0 LINE",
"654 1518 LINE",
"858 1536 LINE",
"1514 1536 LINE",
"1490 1296 LINE",
"1104 1296 LINE",
"1104 930 LINE",
"1357 930 LINE",
"1356 672 LINE",
"1104 672 LINE",
"1104 240 LINE",
"1530 240 LINE",
"1506 0 LINE"
);
},
{
closed = 1;
nodes = (
"786 575 LINE",
"808 1310 LINE",
"549 575 LINE"
);
}
);
width = 1580;
}
);
leftKerningGroup = AE;
rightKerningGroup = E;
unicode = 00C6;
},
{
glyphname = Lslash;
lastChange = "2016-07-28 15:52:12 +0000";
layers = (
{
hints = (
{
place = "{-2, 457}";
},
{
place = "{156, 299}";
},
{
horizontal = 1;
place = "{0, 240}";
},
{
horizontal = 1;
place = "{1536, -20}";
target = down;
type = TopGhost;
}
);
layerId = UUID0;
paths = (
{
closed = 1;
nodes = (
"455 1536 LINE",
"455 975 LINE",
"670 1006 LINE",
"670 768 LINE",
"455 737 LINE",
"455 240 LINE",
"975 240 LINE",
"927 0 LINE",
"156 0 LINE",
"156 694 LINE",
"-2 672 LINE",
"-2 910 LINE",
"156 932 LINE",
"156 1512 LINE"
);
}
);
width = 985;
}
);
leftKerningGroup = E;
rightKerningGroup = L;
unicode = 0141;
},
{
glyphname = lslash;
lastChange = "2016-07-28 15:52:12 +0000";
layers = (
{
hints = (
{
place = "{-1, 445}";
},
{
place = "{156, 288}";
},
{
place = "{156, 419}";
},
{
horizontal = 1;
place = "{-12, 21}";
target = up;
type = BottomGhost;
},
{
horizontal = 1;
place = "{1536, -20}";
target = down;
type = TopGhost;
}
);
layerId = UUID0;
paths = (
{
closed = 1;
nodes = (
"-1 814 LINE",
"575 960 LINE",
"575 722 LINE",
"-1 576 LINE"
);
},
{
closed = 1;
nodes = (
"156 1500 LINE",
"444 1536 LINE",
"444 12 LINE",
"156 -12 LINE"
);
}
);
width = 583;
}
);
unicode = 0142;
},
{
glyphname = thorn;
lastChange = "2016-07-28 15:52:12 +0000";
layers = (
{
hints = (
{
place = "{124, 288}";
},
{
place = "{702, 288}";
},
{
horizontal = 1;
place = "{-27, 206}";
},
{
horizontal = 1;
place = "{922, 245}";
},
{
horizontal = 1;
place = "{-358, 21}";
target = up;
type = BottomGhost;
},
{
horizontal = 1;
place = "{1536, -20}";
target = down;
type = TopGhost;
}
);
layerId = UUID0;
paths = (
{
closed = 1;
nodes = (
"124 -358 LINE",
"124 1500 LINE",
"412 1536 LINE",
"412 1005 LINE",
"500 1101 OFFCURVE",
"611 1167 OFFCURVE",
"710 1167 CURVE SMOOTH",
"862 1167 OFFCURVE",
"990 1013 OFFCURVE",
"990 576 CURVE SMOOTH",
"990 160 OFFCURVE",
"870 -27 OFFCURVE",
"659 -27 CURVE SMOOTH",
"553 -27 OFFCURVE",
"491 15 OFFCURVE",
"456 58 CURVE SMOOTH",
"435 83 OFFCURVE",
"421 112 OFFCURVE",
"412 144 CURVE",
"413 -358 LINE"
);
},
{
closed = 1;
nodes = (
"412 480 LINE SMOOTH",
"412 240 OFFCURVE",
"483 179 OFFCURVE",
"552 179 CURVE SMOOTH",
"693 179 OFFCURVE",
"702 363 OFFCURVE",
"702 576 CURVE SMOOTH",
"702 770 OFFCURVE",
"697 922 OFFCURVE",
"602 922 CURVE SMOOTH",
"567 922 OFFCURVE",
"520 902 OFFCURVE",
"481 882 CURVE SMOOTH",
"458 870 OFFCURVE",
"435 857 OFFCURVE",
"412 843 CURVE"
);
}
);
width = 1067;
}
);
rightKerningGroup = b;
unicode = 00FE;
},
{
glyphname = divide;
lastChange = "2016-07-28 15:52:12 +0000";
layers = (
{
hints = (
{
place = "{256, 288}";
},
{
horizontal = 1;
place = "{-6, 294}";
},
{
horizontal = 1;
place = "{384, 192}";
},
{
horizontal = 1;
place = "{672, 288}";
},
{
horizontal = 1;
place = "{-12, 21}";
target = up;
type = BottomGhost;
}
);
layerId = UUID0;
paths = (
{
closed = 1;
nodes = (
"544 288 LINE",
"544 0 LINE",
"256 -12 LINE",
"256 288 LINE"
);
},
{
closed = 1;
nodes = (
"544 960 LINE",
"544 672 LINE",
"256 672 LINE",
"256 960 LINE"
);
},
{
closed = 1;
nodes = (
"64 576 LINE",
"734 576 LINE",
"734 384 LINE",
"64 384 LINE"
);
}
);
width = 797;
}
);
unicode = 00F7;
},
{
glyphname = eth;
lastChange = "2016-07-28 15:52:12 +0000";
layers = (
{
hints = (
{
place = "{43, 289}";
},
{
place = "{623, 293}";
},
{
horizontal = 1;
place = "{-32, 262}";
},
{
horizontal = 1;
place = "{692, 244}";
},
{
horizontal = 1;
place = "{1346, 222}";
}
);
layerId = UUID0;
paths = (
{
closed = 1;
nodes = (
"916 774 LINE SMOOTH",
"916 397 OFFCURVE",
"846 -32 OFFCURVE",
"471 -32 CURVE SMOOTH",
"217 -32 OFFCURVE",
"43 206 OFFCURVE",
"43 452 CURVE SMOOTH",
"43 702 OFFCURVE",
"175 936 OFFCURVE",
"387 936 CURVE SMOOTH",
"470 936 OFFCURVE",
"560 903 OFFCURVE",
"623 856 CURVE",
"619 1024 OFFCURVE",
"607 1346 OFFCURVE",
"397 1346 CURVE SMOOTH",
"290 1346 OFFCURVE",
"156 1258 OFFCURVE",
"100 1207 CURVE",
"-8 1393 LINE",
"169 1541 OFFCURVE",
"268 1568 OFFCURVE",
"448 1568 CURVE SMOOTH",
"787 1568 OFFCURVE",
"916 1108 OFFCURVE",
"916 774 CURVE SMOOTH"
);
},
{
closed = 1;
nodes = (
"623 608 LINE SMOOTH",
"623 615 OFFCURVE",
"622 624 OFFCURVE",
"622 633 CURVE",
"621 638 OFFCURVE",
"621 644 OFFCURVE",
"621 649 CURVE",
"581 670 LINE",
"557 681 OFFCURVE",
"524 692 OFFCURVE",
"488 692 CURVE SMOOTH",
"371 692 OFFCURVE",
"332 565 OFFCURVE",
"332 447 CURVE SMOOTH",
"332 359 OFFCURVE",
"361 230 OFFCURVE",
"484 230 CURVE SMOOTH",
"633 230 OFFCURVE",
"623 482 OFFCURVE",
"623 608 CURVE SMOOTH"
);
},
{
closed = 1;
nodes = (
"329 1202 LINE",
"943 1391 LINE",
"1007 1210 LINE",
"393 1021 LINE"
);
}
);
width = 1006;
}
);
unicode = 00F0;
},
{
glyphname = multiply;
lastChange = "2016-07-28 15:52:12 +0000";
layers = (
{
hints = (
{
horizontal = 1;
place = "{193, 21}";
target = up;
type = BottomGhost;
},
{
horizontal = 1;
place = "{908, -20}";
target = down;
type = TopGhost;
}
);
layerId = UUID0;
paths = (
{
closed = 1;
nodes = (
"427 720 LINE",
"615 908 LINE",
"783 739 LINE",
"595 552 LINE",
"786 362 LINE",
"617 193 LINE",
"427 384 LINE",
"240 196 LINE",
"71 364 LINE",
"259 552 LINE",
"74 736 LINE",
"243 905 LINE"
);
}
);
width = 857;
}
);
unicode = 00D7;
},
{
glyphname = asciitilde;
lastChange = "2016-07-28 15:52:12 +0000";
layers = (
{
hints = (
{
horizontal = 1;
place = "{757, 207}";
},
{
horizontal = 1;
place = "{878, 86}";
},
{
horizontal = 1;
place = "{878, 196}";
}
);
layerId = UUID0;
paths = (
{
closed = 1;
nodes = (
"92 932 LINE",
"114 958 OFFCURVE",
"137 982 OFFCURVE",
"161 1003 CURVE SMOOTH",
"202 1038 OFFCURVE",
"254 1074 OFFCURVE",
"305 1074 CURVE SMOOTH",
"407 1074 OFFCURVE",
"464 964 OFFCURVE",
"546 964 CURVE SMOOTH",
"611 964 OFFCURVE",
"658 991 OFFCURVE",
"687 1019 CURVE SMOOTH",
"704 1035 OFFCURVE",
"718 1053 OFFCURVE",
"729 1074 CURVE",
"729 892 LINE SMOOTH",
"729 888 OFFCURVE",
"658 757 OFFCURVE",
"538 757 CURVE SMOOTH",
"448 757 OFFCURVE",
"393 878 OFFCURVE",
"284 878 CURVE SMOOTH",
"235 878 OFFCURVE",
"187 850 OFFCURVE",
"151 823 CURVE SMOOTH",
"130 806 OFFCURVE",
"110 788 OFFCURVE",
"91 768 CURVE"
);
}
);
width = 815;
}
);
unicode = 007E;
},
{
glyphname = ordfeminine;
lastChange = "2016-07-28 15:52:12 +0000";
layers = (
{
hints = (
{
place = "{68, 208}";
},
{
place = "{442, 212}";
},
{
horizontal = 1;
place = "{288, 152}";
},
{
horizontal = 1;
place = "{726, 127}";
},
{
horizontal = 1;
place = "{1012, 155}";
}
);
layerId = UUID0;
paths = (
{
closed = 1;
nodes = (
"68 549 LINE SMOOTH",
"68 790 OFFCURVE",
"294 842 OFFCURVE",
"442 853 CURVE",
"442 930 OFFCURVE",
"441 1012 OFFCURVE",
"380 1012 CURVE SMOOTH",
"329 1012 OFFCURVE",
"309 962 OFFCURVE",
"304 916 CURVE",
"98 952 LINE",
"119 1120 OFFCURVE",
"258 1167 OFFCURVE",
"380 1167 CURVE SMOOTH",
"573 1167 OFFCURVE",
"654 1052 OFFCURVE",
"654 907 CURVE SMOOTH",
"654 468 LINE SMOOTH",
"654 433 OFFCURVE",
"658 396 OFFCURVE",
"665 367 CURVE",
"668 350 OFFCURVE",
"671 333 OFFCURVE",
"676 317 CURVE",
"470 299 LINE",
"447 403 LINE",
"416 343 OFFCURVE",
"332 288 OFFCURVE",
"260 288 CURVE SMOOTH",
"145 288 OFFCURVE",
"68 399 OFFCURVE",
"68 549 CURVE SMOOTH"
);
},
{
closed = 1;
nodes = (
"276 552 LINE SMOOTH",
"276 484 OFFCURVE",
"301 440 OFFCURVE",
"360 440 CURVE SMOOTH",
"379 440 OFFCURVE",
"400 452 OFFCURVE",
"416 465 CURVE SMOOTH",
"425 472 OFFCURVE",
"434 481 OFFCURVE",
"442 490 CURVE",
"442 726 LINE",
"347 726 OFFCURVE",
"276 682 OFFCURVE",
"276 552 CURVE SMOOTH"
);
}
);
width = 774;
}
);
unicode = 00AA;
},
{
glyphname = germandbls;
lastChange = "2016-07-28 15:52:12 +0000";
layers = (
{
hints = (
{
place = "{124, 290}";
},
{
place = "{751, 249}";
},
{
place = "{836, 291}";
},
{
horizontal = 1;
place = "{2, 228}";
},
{
horizontal = 1;
place = "{1345, 222}";
},
{
horizontal = 1;
place = "{0, 21}";
target = up;
type = BottomGhost;
}
);
layerId = UUID0;
paths = (
{
closed = 1;
nodes = (
"124 0 LINE",
"124 1056 LINE SMOOTH",
"124 1420 OFFCURVE",
"321 1567 OFFCURVE",
"529 1567 CURVE SMOOTH",
"818 1567 OFFCURVE",
"1000 1388 OFFCURVE",
"1000 1192 CURVE SMOOTH",
"1000 1075 OFFCURVE",
"937 954 OFFCURVE",
"793 858 CURVE",
"963 802 OFFCURVE",
"1127 713 OFFCURVE",
"1127 471 CURVE SMOOTH",
"1127 109 OFFCURVE",
"838 14 OFFCURVE",
"540 2 CURVE",
"540 230 LINE",
"552 230 LINE SMOOTH",
"748 230 OFFCURVE",
"836 344 OFFCURVE",
"836 462 CURVE SMOOTH",
"836 590 OFFCURVE",
"732 723 OFFCURVE",
"551 723 CURVE",
"551 931 LINE",
"691 977 OFFCURVE",
"751 1072 OFFCURVE",
"751 1160 CURVE SMOOTH",
"751 1256 OFFCURVE",
"677 1345 OFFCURVE",
"560 1345 CURVE SMOOTH",
"486 1345 OFFCURVE",
"414 1273 OFFCURVE",
"414 1111 CURVE SMOOTH",
"414 0 LINE"
);
}
);
width = 1170;
}
);
leftKerningGroup = f;
unicode = 00DF;
},
{
glyphname = Eth;
lastChange = "2016-07-28 15:52:12 +0000";
layers = (
{
hints = (
{
place = "{5, 442}";
},
{
place = "{148, 299}";
},
{
place = "{765, 300}";
},
{
place = "{148, 433}";
},
{
horizontal = 1;
place = "{0, 240}";
},
{
horizontal = 1;
place = "{672, 192}";
},
{
horizontal = 1;
place = "{1296, 240}";
}
);
layerId = UUID0;
paths = (
{
closed = 1;
nodes = (
"148 1536 LINE",
"462 1536 LINE SMOOTH",
"866 1536 OFFCURVE",
"1065 1283 OFFCURVE",
"1065 762 CURVE SMOOTH",
"1065 373 OFFCURVE",
"918 0 OFFCURVE",
"515 0 CURVE SMOOTH",
"148 0 LINE"
);
},
{
closed = 1;
nodes = (
"447 1296 LINE",
"447 240 LINE",
"490 240 LINE SMOOTH",
"719 240 OFFCURVE",
"765 491 OFFCURVE",
"765 705 CURVE SMOOTH",
"765 901 OFFCURVE",
"785 1296 OFFCURVE",
"482 1296 CURVE SMOOTH"
);
},
{
closed = 1;
nodes = (
"5 864 LINE",
"581 864 LINE",
"581 672 LINE",
"5 672 LINE"
);
}
);
width = 1138;
}
);
leftKerningGroup = E;
rightKerningGroup = D;
unicode = 00D0;
},
{
glyphname = lessequal;
lastChange = "2016-07-28 15:52:12 +0000";
layers = (
{
hints = (
{
horizontal = 1;
place = "{-1, 238}";
},
{
horizontal = 1;
place = "{1448, -20}";
target = down;
type = TopGhost;
}
);
layerId = UUID0;
paths = (
{
closed = 1;
nodes = (
"61 823 LINE",
"61 1088 LINE",
"871 1448 LINE",
"857 1187 LINE",
"406 991 LINE",
"883 816 LINE",
"869 473 LINE"
);
},
{
closed = 1;
nodes = (
"184 237 LINE",
"760 237 LINE",
"760 -1 LINE",
"184 -1 LINE"
);
}
);
width = 979;
}
);
unicode = 2264;
},
{
glyphname = greaterequal;
lastChange = "2016-07-28 15:52:12 +0000";
layers = (
{
hints = (
{
horizontal = 1;
place = "{0, 238}";
},
{
horizontal = 1;
place = "{1448, -20}";
target = down;
type = TopGhost;
}
);
layerId = UUID0;
paths = (
{
closed = 1;
nodes = (
"110 473 LINE",
"96 816 LINE",
"573 991 LINE",
"122 1187 LINE",
"108 1448 LINE",
"918 1088 LINE",
"918 823 LINE"
);
},
{
closed = 1;
nodes = (
"219 238 LINE",
"795 238 LINE",
"795 0 LINE",
"219 0 LINE"
);
}
);
width = 979;
}
);
unicode = 2265;
},
{
glyphname = product;
lastChange = "2016-07-28 15:52:12 +0000";
layers = (
{
hints = (
{
place = "{142, 300}";
},
{
place = "{730, 300}";
},
{
horizontal = 1;
place = "{1238, 274}";
},
{
horizontal = 1;
place = "{-12, 21}";
target = up;
type = BottomGhost;
}
);
layerId = UUID0;
paths = (
{
closed = 1;
nodes = (
"730 1238 LINE",
"442 1238 LINE",
"442 12 LINE",
"142 -12 LINE",
"142 1512 LINE",
"1030 1512 LINE",
"1030 12 LINE",
"730 -12 LINE"
);
}
);
width = 1171;
}
);
unicode = 220F;
},
{
glyphname = pi;
lastChange = "2016-07-28 15:52:12 +0000";
layers = (
{
hints = (
{
place = "{124, 288}";
},
{
horizontal = 1;
place = "{1248, 192}";
},
{
horizontal = 1;
place = "{-12, 21}";
target = up;
type = BottomGhost;
}
);
layerId = UUID0;
paths = (
{
closed = 1;
nodes = (
"126 1128 LINE",
"414 1152 LINE",
"414 12 LINE",
"126 -12 LINE"
);
},
{
closed = 1;
nodes = (
"-20 1440 LINE",
"556 1440 LINE",
"556 1248 LINE",
"-20 1248 LINE"
);
},
{
closed = 1;
nodes = (
"124 1128 LINE",
"412 1152 LINE",
"412 12 LINE",
"124 -12 LINE"
);
}
);
width = 538;
}
);
unicode = 03C0;
},
{
glyphname = integral;
lastChange = "2016-07-28 15:52:12 +0000";
layers = (
{
hints = (
{
place = "{17, 481}";
},
{
place = "{210, 288}";
},
{
place = "{210, 481}";
},
{
horizontal = 1;
place = "{-394, 202}";
},
{
horizontal = 1;
place = "{1344, 202}";
}
);
layerId = UUID0;
paths = (
{
closed = 1;
nodes = (
"498 -22 LINE SMOOTH",
"498 -208 OFFCURVE",
"490 -394 OFFCURVE",
"212 -394 CURVE SMOOTH",
"140 -394 OFFCURVE",
"93 -387 OFFCURVE",
"62 -379 CURVE SMOOTH",
"44 -375 OFFCURVE",
"29 -370 OFFCURVE",
"17 -364 CURVE",
"17 -192 LINE",
"80 -192 LINE SMOOTH",
"200 -192 OFFCURVE",
"210 -105 OFFCURVE",
"210 -21 CURVE SMOOTH",
"210 1174 LINE SMOOTH",
"210 1360 OFFCURVE",
"218 1546 OFFCURVE",
"496 1546 CURVE SMOOTH",
"567 1546 OFFCURVE",
"615 1538 OFFCURVE",
"646 1531 CURVE SMOOTH",
"664 1526 OFFCURVE",
"679 1521 OFFCURVE",
"691 1516 CURVE",
"691 1344 LINE",
"628 1344 LINE SMOOTH",
"508 1344 OFFCURVE",
"498 1257 OFFCURVE",
"498 1173 CURVE SMOOTH"
);
}
);
width = 709;
}
);
unicode = 222B;
},
{
glyphname = lozenge;
lastChange = "2016-07-28 15:52:12 +0000";
layers = (
{
hints = (
{
horizontal = 1;
place = "{1440, -20}";
target = down;
type = TopGhost;
},
{
horizontal = 1;
place = "{0, 21}";
target = up;
type = BottomGhost;
}
);
layerId = UUID0;
paths = (
{
closed = 1;
nodes = (
"887 642 LINE",
"605 0 LINE",
"340 0 LINE",
"50 642 LINE",
"50 797 LINE",
"340 1440 LINE",
"605 1440 LINE",
"887 797 LINE"
);
},
{
closed = 1;
nodes = (
"296 720 LINE",
"461 321 LINE",
"605 720 LINE",
"461 1119 LINE"
);
}
);
width = 938;
}
);
unicode = 25CA;
},
{
glyphname = Dcroat;
lastChange = "2016-07-28 15:52:12 +0000";
layers = (
{
hints = (
{
place = "{145, 299}";
},
{
place = "{762, 300}";
},
{
horizontal = 1;
place = "{0, 240}";
},
{
horizontal = 1;
place = "{716, 192}";
},
{
horizontal = 1;
place = "{1296, 240}";
}
);
layerId = UUID0;
paths = (
{
closed = 1;
nodes = (
"54 908 LINE",
"145 908 LINE",
"145 1536 LINE",
"459 1536 LINE SMOOTH",
"863 1536 OFFCURVE",
"1062 1283 OFFCURVE",
"1062 762 CURVE SMOOTH",
"1062 373 OFFCURVE",
"915 0 OFFCURVE",
"512 0 CURVE SMOOTH",
"145 0 LINE",
"145 716 LINE",
"35 716 LINE"
);
},
{
closed = 1;
nodes = (
"444 1296 LINE",
"444 908 LINE",
"630 908 LINE",
"611 716 LINE",
"444 716 LINE",
"444 240 LINE",
"487 240 LINE SMOOTH",
"716 240 OFFCURVE",
"762 491 OFFCURVE",
"762 705 CURVE SMOOTH",
"762 901 OFFCURVE",
"782 1296 OFFCURVE",
"479 1296 CURVE SMOOTH"
);
}
);
width = 1135;
}
);
leftKerningGroup = E;
rightKerningGroup = D;
unicode = 0110;
},
{
glyphname = Hbar;
lastChange = "2016-07-28 15:52:12 +0000";
layers = (
{
hints = (
{
place = "{145, 300}";
},
{
place = "{733, 300}";
},
{
horizontal = 1;
place = "{639, 274}";
},
{
horizontal = 1;
place = "{1162, 182}";
},
{
horizontal = 1;
place = "{-12, 21}";
target = up;
type = BottomGhost;
},
{
horizontal = 1;
place = "{1536, -20}";
target = down;
type = TopGhost;
}
);
layerId = UUID0;
paths = (
{
closed = 1;
nodes = (
"26 1344 LINE",
"145 1344 LINE",
"145 1512 LINE",
"445 1536 LINE",
"445 1344 LINE",
"733 1344 LINE",
"733 1512 LINE",
"1033 1536 LINE",
"1033 1344 LINE",
"1139 1344 LINE",
"1139 1162 LINE",
"1033 1162 LINE",
"1033 12 LINE",
"733 -12 LINE",
"733 639 LINE",
"445 639 LINE",
"445 12 LINE",
"145 -12 LINE",
"145 1162 LINE",
"26 1162 LINE"
);
},
{
closed = 1;
nodes = (
"733 913 LINE",
"733 1162 LINE",
"445 1162 LINE",
"445 913 LINE"
);
}
);
width = 1179;
}
);
leftKerningGroup = E;
rightKerningGroup = H;
unicode = 0126;
},
{
glyphname = Eng;
lastChange = "2016-07-28 15:52:12 +0000";
layers = (
{
hints = (
{
place = "{141, 268}";
},
{
place = "{628, 476}";
},
{
place = "{850, 254}";
},
{
horizontal = 1;
place = "{-317, 219}";
},
{
horizontal = 1;
place = "{1536, -20}";
target = down;
type = TopGhost;
}
);
layerId = UUID0;
paths = (
{
closed = 1;
nodes = (
"628 -84 LINE",
"660 -95 OFFCURVE",
"685 -98 OFFCURVE",
"708 -98 CURVE SMOOTH",
"850 -98 OFFCURVE",
"850 12 OFFCURVE",
"850 120 CURVE SMOOTH",
"850 143 LINE",
"409 998 LINE",
"409 12 LINE",
"141 0 LINE",
"141 1524 LINE",
"454 1536 LINE",
"850 722 LINE",
"850 1512 LINE",
"1104 1536 LINE",
"1104 95 LINE SMOOTH",
"1104 -149 OFFCURVE",
"1033 -317 OFFCURVE",
"820 -317 CURVE SMOOTH",
"766 -317 OFFCURVE",
"702 -307 OFFCURVE",
"628 -287 CURVE"
);
}
);
width = 1245;
}
);
leftKerningGroup = E;
rightKerningGroup = H;
unicode = 014A;
},
{
glyphname = eng;
lastChange = "2016-07-28 15:52:13 +0000";
layers = (
{
hints = (
{
place = "{124, 288}";
},
{
place = "{541, 447}";
},
{
place = "{700, 288}";
},
{
horizontal = 1;
place = "{-288, 192}";
},
{
horizontal = 1;
place = "{922, 245}";
}
);
layerId = UUID0;
paths = (
{
closed = 1;
nodes = (
"541 -96 LINE",
"690 -96 OFFCURVE",
"700 -57 OFFCURVE",
"700 54 CURVE SMOOTH",
"700 769 LINE SMOOTH",
"700 882 OFFCURVE",
"658 922 OFFCURVE",
"595 922 CURVE SMOOTH",
"544 922 OFFCURVE",
"479 882 OFFCURVE",
"412 842 CURVE",
"412 12 LINE",
"124 -12 LINE",
"124 1128 LINE",
"412 1152 LINE",
"412 1005 LINE",
"527 1105 OFFCURVE",
"643 1167 OFFCURVE",
"742 1167 CURVE SMOOTH",
"885 1167 OFFCURVE",
"988 1055 OFFCURVE",
"988 876 CURVE SMOOTH",
"988 54 LINE SMOOTH",
"988 -163 OFFCURVE",
"988 -288 OFFCURVE",
"733 -288 CURVE SMOOTH",
"680 -288 OFFCURVE",
"617 -282 OFFCURVE",
"541 -269 CURVE"
);
}
);
width = 1105;
}
);
leftKerningGroup = m;
rightKerningGroup = h;
unicode = 014B;
},
{
glyphname = schwa;
lastChange = "2016-07-28 15:52:13 +0000";
layers = (
{
hints = (
{
place = "{50, 283}";
},
{
place = "{608, 287}";
},
{
horizontal = 1;
place = "{-32, 198}";
},
{
horizontal = 1;
place = "{438, 166}";
},
{
horizontal = 1;
place = "{955, 212}";
}
);
layerId = UUID0;
paths = (
{
closed = 1;
nodes = (
"608 604 LINE",
"608 749 OFFCURVE",
"573 955 OFFCURVE",
"468 955 CURVE SMOOTH",
"378 955 OFFCURVE",
"316 783 OFFCURVE",
"308 767 CURVE",
"90 850 LINE",
"143 1036 OFFCURVE",
"263 1167 OFFCURVE",
"473 1167 CURVE SMOOTH",
"754 1167 OFFCURVE",
"895 920 OFFCURVE",
"895 570 CURVE SMOOTH",
"895 217 OFFCURVE",
"751 -32 OFFCURVE",
"463 -32 CURVE SMOOTH",
"188 -32 OFFCURVE",
"50 217 OFFCURVE",
"50 570 CURVE",
"54 584 LINE",
"57 591 OFFCURVE",
"58 600 OFFCURVE",
"58 604 CURVE"
);
},
{
closed = 1;
nodes = (
"333 438 LINE",
"333 286 OFFCURVE",
"370 166 OFFCURVE",
"468 166 CURVE SMOOTH",
"538 166 OFFCURVE",
"608 286 OFFCURVE",
"608 438 CURVE"
);
}
);
width = 965;
}
);
rightKerningGroup = o;
unicode = 0259;
},
{
glyphname = Sigma;
lastChange = "2016-07-28 15:52:13 +0000";
layers = (
{
hints = (
{
horizontal = 1;
place = "{0, 240}";
},
{
horizontal = 1;
place = "{1296, 240}";
}
);
layerId = UUID0;
paths = (
{
closed = 1;
nodes = (
"581 1296 LINE",
"98 1296 LINE",
"122 1536 LINE",
"935 1536 LINE",
"935 1337 LINE",
"421 240 LINE",
"949 240 LINE",
"901 0 LINE",
"51 0 LINE",
"51 190 LINE"
);
}
);
width = 1008;
}
);
unicode = 03A3;
},
{
glyphname = Schwa;
lastChange = "2016-07-28 16:02:26 +0000";
layers = (
{
hints = (
{
place = "{70, 303}";
},
{
place = "{723, 300}";
},
{
horizontal = 1;
place = "{-32, 255}";
},
{
horizontal = 1;
place = "{595, 221}";
},
{
horizontal = 1;
place = "{1329, 239}";
}
);
layerId = UUID0;
paths = (
{
closed = 1;
nodes = (
"723 816 LINE",
"723 820 LINE SMOOTH",
"723 1011 OFFCURVE",
"711 1329 OFFCURVE",
"545 1329 CURVE SMOOTH",
"437 1329 OFFCURVE",
"386 1196 OFFCURVE",
"365 1044 CURVE",
"88 1141 LINE",
"152 1406 OFFCURVE",
"299 1568 OFFCURVE",
"545 1568 CURVE SMOOTH",
"879 1568 OFFCURVE",
"1023 1271 OFFCURVE",
"1023 820 CURVE SMOOTH",
"1023 389 OFFCURVE",
"939 -32 OFFCURVE",
"545 -32 CURVE SMOOTH",
"152 -32 OFFCURVE",
"70 389 OFFCURVE",
"70 816 CURVE"
);
},
{
closed = 1;
nodes = (
"545 223 LINE SMOOTH",
"670 223 OFFCURVE",
"708 360 OFFCURVE",
"719 595 CURVE",
"373 595 LINE",
"384 363 OFFCURVE",
"419 223 OFFCURVE",
"545 223 CURVE SMOOTH"
);
}
);
width = 1109;
}
);
rightKerningGroup = O;
unicode = 018F;
},
{
glyphname = idotless;
lastChange = "2016-07-28 16:02:26 +0000";
layers = (
{
hints = (
{
place = "{124, 288}";
},
{
horizontal = 1;
place = "{-12, 21}";
target = up;
type = BottomGhost;
},
{
horizontal = 1;
place = "{1152, -20}";
target = down;
type = TopGhost;
}
);
layerId = UUID0;
paths = (
{
closed = 1;
nodes = (
"124 1128 LINE",
"412 1152 LINE",
"412 12 LINE",
"124 -12 LINE"
);
}
);
width = 536;
}
);
unicode = 0131;
},
{
glyphname = jdotless;
lastChange = "2016-07-28 16:02:26 +0000";
layers = (
{
hints = (
{
place = "{-35, 447}";
},
{
place = "{124, 288}";
},
{
horizontal = 1;
place = "{-288, 192}";
},
{
horizontal = 1;
place = "{1152, -20}";
target = down;
type = TopGhost;
}
);
layerId = UUID0;
paths = (
{
closed = 1;
nodes = (
"-35 -96 LINE",
"114 -96 OFFCURVE",
"124 -57 OFFCURVE",
"124 54 CURVE SMOOTH",
"124 1128 LINE",
"412 1152 LINE",
"412 54 LINE SMOOTH",
"412 -163 OFFCURVE",
"412 -288 OFFCURVE",
"157 -288 CURVE SMOOTH",
"104 -288 OFFCURVE",
"41 -282 OFFCURVE",
"-35 -269 CURVE"
);
}
);
width = 536;
}
);
unicode = 0237;
},
{
glyphname = guillemetleft;
lastChange = "2016-07-28 16:02:26 +0000";
layers = (
{
hints = (
{
horizontal = 1;
place = "{59, 21}";
target = up;
type = BottomGhost;
},
{
horizontal = 1;
place = "{1094, -20}";
target = down;
type = TopGhost;
}
);
layerId = UUID0;
paths = (
{
closed = 1;
nodes = (
"54 439 LINE",
"54 704 LINE",
"564 1094 LINE",
"550 833 LINE",
"249 607 LINE",
"576 402 LINE",
"562 59 LINE"
);
},
{
closed = 1;
nodes = (
"630 439 LINE",
"630 704 LINE",
"1140 1094 LINE",
"1126 833 LINE",
"825 607 LINE",
"1152 402 LINE",
"1138 59 LINE"
);
}
);
width = 1244;
}
);
unicode = 00AB;
},
{
glyphname = guillemetright;
lastChange = "2016-07-28 16:02:26 +0000";
layers = (
{
hints = (
{
horizontal = 1;
place = "{1094, -20}";
target = down;
type = TopGhost;
},
{
horizontal = 1;
place = "{59, 21}";
target = up;
type = BottomGhost;
}
);
layerId = UUID0;
paths = (
{
closed = 1;
nodes = (
"682 59 LINE",
"668 402 LINE",
"995 607 LINE",
"694 833 LINE",
"680 1094 LINE",
"1190 704 LINE",
"1190 439 LINE"
);
},
{
closed = 1;
nodes = (
"106 59 LINE",
"92 402 LINE",
"419 607 LINE",
"118 833 LINE",
"104 1094 LINE",
"614 704 LINE",
"614 439 LINE"
);
}
);
width = 1244;
}
);
unicode = 00BB;
},
{
glyphname = euro;
lastChange = "2016-07-28 16:02:26 +0000";
layers = (
{
hints = (
{
horizontal = 1;
place = "{-32, 257}";
},
{
horizontal = 1;
place = "{576, 144}";
},
{
horizontal = 1;
place = "{816, 144}";
},
{
horizontal = 1;
place = "{1066, 502}";
},
{
horizontal = 1;
place = "{1328, 240}";
}
);
layerId = UUID0;
paths = (
{
closed = 1;
nodes = (
"51 960 LINE",
"165 960 LINE",
"200 1263 OFFCURVE",
"337 1568 OFFCURVE",
"643 1568 CURVE SMOOTH",
"912 1568 OFFCURVE",
"1070 1315 OFFCURVE",
"1070 1074 CURVE",
"780 1059 LINE",
"780 1084 OFFCURVE",
"774 1328 OFFCURVE",
"626 1328 CURVE SMOOTH",
"515 1328 OFFCURVE",
"472 1148 OFFCURVE",
"461 960 CURVE",
"915 960 LINE",
"915 816 LINE",
"456 816 LINE",
"456 800 LINE SMOOTH",
"456 773 OFFCURVE",
"456 747 OFFCURVE",
"457 720 CURVE",
"915 720 LINE",
"915 576 LINE",
"464 576 LINE",
"480 379 OFFCURVE",
"527 225 OFFCURVE",
"655 225 CURVE SMOOTH",
"780 225 OFFCURVE",
"806 366 OFFCURVE",
"817 467 CURVE",
"1072 443 LINE",
"1072 197 OFFCURVE",
"932 -32 OFFCURVE",
"636 -32 CURVE SMOOTH",
"322 -32 OFFCURVE",
"203 259 OFFCURVE",
"167 576 CURVE",
"51 576 LINE",
"51 720 LINE",
"157 720 LINE",
"156 747 OFFCURVE",
"156 773 OFFCURVE",
"156 800 CURVE SMOOTH",
"156 816 LINE",
"51 816 LINE"
);
}
);
width = 1141;
}
);
unicode = 20AC;
},
{
glyphname = increment;
lastChange = "2016-07-28 16:02:26 +0000";
layers = (
{
hints = (
{
horizontal = 1;
place = "{0, 192}";
},
{
horizontal = 1;
place = "{1322, -20}";
target = down;
type = TopGhost;
}
);
layerId = UUID0;
paths = (
{
closed = 1;
nodes = (
"385 1322 LINE",
"650 1322 LINE",
"1004 0 LINE",
"44 0 LINE"
);
},
{
closed = 1;
nodes = (
"412 192 LINE",
"719 192 LINE",
"553 907 LINE"
);
}
);
width = 1047;
}
);
unicode = 2206;
},
{
glyphname = micro;
lastChange = "2016-07-28 16:02:26 +0000";
layers = (
{
hints = (
{
place = "{128, 288}";
},
{
place = "{704, 288}";
},
{
horizontal = 1;
place = "{-198, 426}";
},
{
horizontal = 1;
place = "{43, 185}";
},
{
horizontal = 1;
place = "{-204, 21}";
target = up;
type = BottomGhost;
},
{
horizontal = 1;
place = "{1152, -20}";
target = down;
type = TopGhost;
}
);
layerId = UUID0;
paths = (
{
closed = 1;
nodes = (
"128 1128 LINE",
"416 1152 LINE",
"416 381 LINE SMOOTH",
"416 268 OFFCURVE",
"454 228 OFFCURVE",
"511 228 CURVE SMOOTH",
"563 228 OFFCURVE",
"635 273 OFFCURVE",
"704 318 CURVE",
"704 1128 LINE",
"992 1152 LINE",
"992 12 LINE",
"704 -12 LINE",
"704 135 LINE",
"623 76 OFFCURVE",
"542 43 OFFCURVE",
"474 43 CURVE SMOOTH",
"453 43 OFFCURVE",
"434 44 OFFCURVE",
"416 46 CURVE",
"416 -192 LINE",
"128 -204 LINE"
);
}
);
width = 1099;
}
);
unicode = 00B5;
},
{
glyphname = dblgravecomb;
lastChange = "2016-07-28 16:02:26 +0000";
layers = (
{
hints = (
{
horizontal = 1;
place = "{1248, 21}";
target = up;
type = BottomGhost;
},
{
horizontal = 1;
place = "{1847, -20}";
target = down;
type = TopGhost;
}
);
layerId = UUID0;
paths = (
{
closed = 1;
nodes = (
"762 1250 LINE",
"469 1708 LINE",
"739 1847 LINE",
"899 1320 LINE"
);
},
{
closed = 1;
nodes = (
"384 1248 LINE",
"0 1632 LINE",
"234 1826 LINE",
"503 1346 LINE"
);
}
);
width = 1102;
}
);
unicode = 030F;
},
{
glyphname = breveinvertedcomb;
lastChange = "2016-07-28 16:02:26 +0000";
layers = (
{
hints = (
{
place = "{77, 240}";
},
{
place = "{701, 240}";
},
{
horizontal = 1;
place = "{1248, 480}";
},
{
horizontal = 1;
place = "{1488, 240}";
}
);
layerId = UUID0;
paths = (
{
closed = 1;
nodes = (
"77 1248 LINE",
"77 1430 OFFCURVE",
"173 1728 OFFCURVE",
"509 1728 CURVE SMOOTH",
"845 1728 OFFCURVE",
"941 1430 OFFCURVE",
"941 1248 CURVE",
"701 1248 LINE",
"701 1344 OFFCURVE",
"701 1488 OFFCURVE",
"509 1488 CURVE SMOOTH",
"317 1488 OFFCURVE",
"317 1344 OFFCURVE",
"317 1248 CURVE"
);
}
);
width = 1018;
}
);
unicode = 0311;
},
